<ttFont>
<head>
    <!-- Most of this table will be recalculated by the compiler -->
    <tableVersion value="1.0"/>
    <fontRevision value="1.0"/>
    <checkSumAdjustment value="0x72fa2818"/>
    <magicNumber value="0x5f0f3cf5"/>
    <flags value="00000000 00001011"/>
    <unitsPerEm value="1000"/>
    <created value="Mon Apr  8 19:23:46 2019"/>
    <modified value="Mon Apr  8 19:23:47 2019"/>
    <xMin value="-149"/>
    <yMin value="-288"/>
    <xMax value="1098"/>
    <yMax value="1011"/>
    <macStyle value="00000000 00000000"/>
    <lowestRecPPEM value="6"/>
    <fontDirectionHint value="2"/>
    <indexToLocFormat value="0"/>
    <glyphDataFormat value="0"/>
  </head>
    <TTGlyph name=".notdef" xMin="60" yMin="-100" xMax="454" yMax="750">
      <contour>
        <pt x="60" y="-100" on="1"/>
        <pt x="60" y="750" on="1"/>
        <pt x="454" y="750" on="1"/>
        <pt x="454" y="-100" on="1"/>
      </contour>
    </TTGlyph>
    <TTGlyph name="A" xMin="-48" yMin="0" xMax="623" yMax="700">
      <contour>
        <pt x="-48" y="0" on="1"/>
        <pt x="366" y="700" on="1"/>
        <pt x="503" y="700" on="1"/>
        <pt x="623" y="0" on="1"/>
        <pt x="502" y="0" on="1"/>
        <pt x="472" y="196" on="1"/>
        <pt x="192" y="196" on="1"/>
        <pt x="81" y="0" on="1"/>
      </contour>
      <contour>
        <pt x="245" y="290" on="1"/>
        <pt x="458" y="290" on="1"/>
        <pt x="412" y="587" on="1"/>
      </contour>
    </TTGlyph>
    <TTGlyph name="AE" xMin="-48" yMin="0" xMax="972" yMax="700">
      <contour>
        <pt x="-48" y="0" on="1"/>
        <pt x="368" y="700" on="1"/>
        <pt x="972" y="700" on="1"/>
        <pt x="950" y="595" on="1"/>
        <pt x="532" y="595" on="1"/>
        <pt x="558" y="404" on="1"/>
        <pt x="786" y="404" on="1"/>
        <pt x="764" y="302" on="1"/>
        <pt x="571" y="302" on="1"/>
        <pt x="598" y="105" on="1"/>
        <pt x="846" y="105" on="1"/>
        <pt x="824" y="0" on="1"/>
        <pt x="495" y="0" on="1"/>
        <pt x="469" y="196" on="1"/>
        <pt x="188" y="196" on="1"/>
        <pt x="74" y="0" on="1"/>
      </contour>
      <contour>
        <pt x="243" y="290" on="1"/>
        <pt x="456" y="290" on="1"/>
        <pt x="416" y="587" on="1"/>
      </contour>
    </TTGlyph>
    <TTGlyph name="Aacute" xMin="-48" yMin="0" xMax="673" yMax="923">
      <component glyphName="A" x="0" y="0" flags="0x204"/>
      <component glyphName="acute" x="152" y="199" flags="0x4"/>
    </TTGlyph>
    <TTGlyph name="Abreve" xMin="-48" yMin="0" xMax="640" yMax="942">
      <component glyphName="A" x="0" y="0" flags="0x204"/>
      <component glyphName="breve" x="119" y="199" flags="0x4"/>
    </TTGlyph>
    <TTGlyph name="Acircumflex" xMin="-48" yMin="0" xMax="623" yMax="925">
      <component glyphName="A" x="0" y="0" flags="0x204"/>
      <component glyphName="circumflex" x="118" y="199" flags="0x4"/>
    </TTGlyph>
    <TTGlyph name="Adieresis" xMin="-48" yMin="0" xMax="624" yMax="926">
      <component glyphName="A" x="0" y="0" flags="0x204"/>
      <component glyphName="dieresis" x="94" y="199" flags="0x4"/>
    </TTGlyph>
    <TTGlyph name="Agrave" xMin="-48" yMin="0" xMax="623" yMax="923">
      <component glyphName="A" x="0" y="0" flags="0x204"/>
      <component glyphName="grave" x="108" y="199" flags="0x4"/>
    </TTGlyph>
    <TTGlyph name="Amacron" xMin="-48" yMin="0" xMax="623" yMax="891">
      <component glyphName="A" x="0" y="0" flags="0x204"/>
      <component glyphName="macron" x="119" y="199" flags="0x4"/>
    </TTGlyph>
    <TTGlyph name="Aogonek" xMin="-48" yMin="-231" xMax="623" yMax="700">
      <contour>
        <pt x="-48" y="0" on="1"/>
        <pt x="366" y="700" on="1"/>
        <pt x="503" y="700" on="1"/>
        <pt x="623" y="0" on="1"/>
        <pt x="563" y="-32" on="0"/>
        <pt x="504" y="-96" on="0"/>
        <pt x="504" y="-127" on="1"/>
        <pt x="504" y="-146" on="0"/>
        <pt x="532" y="-170" on="0"/>
        <pt x="555" y="-170" on="1"/>
        <pt x="567" y="-170" on="0"/>
        <pt x="592" y="-164" on="0"/>
        <pt x="601" y="-160" on="1"/>
        <pt x="605" y="-213" on="1"/>
        <pt x="589" y="-222" on="0"/>
        <pt x="548" y="-231" on="0"/>
        <pt x="526" y="-231" on="1"/>
        <pt x="485" y="-231" on="0"/>
        <pt x="434" y="-189" on="0"/>
        <pt x="434" y="-153" on="1"/>
        <pt x="434" y="-112" on="0"/>
        <pt x="493" y="-36" on="0"/>
        <pt x="553" y="0" on="1"/>
        <pt x="502" y="0" on="1"/>
        <pt x="472" y="196" on="1"/>
        <pt x="192" y="196" on="1"/>
        <pt x="81" y="0" on="1"/>
      </contour>
      <contour>
        <pt x="245" y="290" on="1"/>
        <pt x="458" y="290" on="1"/>
        <pt x="412" y="587" on="1"/>
      </contour>
    </TTGlyph>
    <TTGlyph name="Aring" xMin="-48" yMin="0" xMax="623" yMax="1011">
      <component glyphName="A" x="0" y="0" flags="0x204"/>
      <component glyphName="ring" x="119" y="199" flags="0x4"/>
    </TTGlyph>
    <TTGlyph name="Atilde" xMin="-48" yMin="0" xMax="653" yMax="924">
      <component glyphName="A" x="0" y="0" flags="0x204"/>
      <component glyphName="tilde" x="123" y="199" flags="0x4"/>
    </TTGlyph>
    <TTGlyph name="B" xMin="28" yMin="0" xMax="656" yMax="700">
      <contour>
        <pt x="177" y="700" on="1"/>
        <pt x="462" y="700" on="1"/>
        <pt x="550" y="700" on="0"/>
        <pt x="656" y="612" on="0"/>
        <pt x="656" y="540" on="1"/>
        <pt x="656" y="477" on="0"/>
        <pt x="579" y="379" on="0"/>
        <pt x="516" y="357" on="1"/>
        <pt x="565" y="338" on="0"/>
        <pt x="620" y="265" on="0"/>
        <pt x="620" y="216" on="1"/>
        <pt x="620" y="170" on="0"/>
        <pt x="581" y="91" on="0"/>
        <pt x="513" y="33" on="0"/>
        <pt x="420" y="0" on="0"/>
        <pt x="367" y="0" on="1"/>
        <pt x="28" y="0" on="1"/>
      </contour>
      <contour>
        <pt x="438" y="602" on="1"/>
        <pt x="273" y="602" on="1"/>
        <pt x="231" y="406" on="1"/>
        <pt x="410" y="406" on="1"/>
        <pt x="465" y="406" on="0"/>
        <pt x="536" y="469" on="0"/>
        <pt x="536" y="518" on="1"/>
        <pt x="536" y="557" on="0"/>
        <pt x="484" y="602" on="0"/>
      </contour>
      <contour>
        <pt x="364" y="98" on="1"/>
        <pt x="424" y="98" on="0"/>
        <pt x="502" y="167" on="0"/>
        <pt x="502" y="221" on="1"/>
        <pt x="502" y="264" on="0"/>
        <pt x="444" y="313" on="0"/>
        <pt x="394" y="313" on="1"/>
        <pt x="212" y="313" on="1"/>
        <pt x="166" y="98" on="1"/>
      </contour>
    </TTGlyph>
    <TTGlyph name="C" xMin="70" yMin="-10" xMax="717" yMax="709">
      <contour>
        <pt x="410" y="97" on="1"/>
        <pt x="461" y="97" on="0"/>
        <pt x="561" y="141" on="0"/>
        <pt x="601" y="182" on="1"/>
        <pt x="665" y="103" on="1"/>
        <pt x="611" y="49" on="0"/>
        <pt x="470" y="-10" on="0"/>
        <pt x="398" y="-10" on="1"/>
        <pt x="329" y="-10" on="0"/>
        <pt x="208" y="41" on="0"/>
        <pt x="120" y="129" on="0"/>
        <pt x="70" y="251" on="0"/>
        <pt x="70" y="321" on="1"/>
        <pt x="70" y="401" on="0"/>
        <pt x="130" y="543" on="0"/>
        <pt x="233" y="648" on="0"/>
        <pt x="371" y="709" on="0"/>
        <pt x="448" y="709" on="1"/>
        <pt x="536" y="709" on="0"/>
        <pt x="674" y="641" on="0"/>
        <pt x="717" y="575" on="1"/>
        <pt x="626" y="499" on="1"/>
        <pt x="597" y="549" on="0"/>
        <pt x="501" y="603" on="0"/>
        <pt x="442" y="603" on="1"/>
        <pt x="390" y="603" on="0"/>
        <pt x="298" y="560" on="0"/>
        <pt x="230" y="485" on="0"/>
        <pt x="191" y="384" on="0"/>
        <pt x="191" y="327" on="1"/>
        <pt x="191" y="277" on="0"/>
        <pt x="224" y="193" on="0"/>
        <pt x="282" y="132" on="0"/>
        <pt x="363" y="97" on="0"/>
      </contour>
    </TTGlyph>
    <TTGlyph name="Cacute" xMin="70" yMin="-10" xMax="717" yMax="923">
      <component glyphName="C" x="0" y="0" flags="0x204"/>
      <component glyphName="acute" x="170" y="199" flags="0x4"/>
    </TTGlyph>
    <TTGlyph name="Ccaron" xMin="70" yMin="-10" xMax="717" yMax="929">
      <component glyphName="C" x="0" y="0" flags="0x204"/>
      <component glyphName="caron" x="139" y="199" flags="0x4"/>
    </TTGlyph>
    <TTGlyph name="Ccedilla" xMin="70" yMin="-245" xMax="717" yMax="709">
      <contour>
        <pt x="410" y="97" on="1"/>
        <pt x="461" y="97" on="0"/>
        <pt x="561" y="141" on="0"/>
        <pt x="601" y="182" on="1"/>
        <pt x="665" y="103" on="1"/>
        <pt x="611" y="49" on="0"/>
        <pt x="470" y="-10" on="0"/>
        <pt x="400" y="-10" on="1"/>
        <pt x="376" y="-63" on="1"/>
        <pt x="416" y="-67" on="0"/>
        <pt x="459" y="-106" on="0"/>
        <pt x="459" y="-137" on="1"/>
        <pt x="459" y="-183" on="0"/>
        <pt x="386" y="-245" on="0"/>
        <pt x="333" y="-245" on="1"/>
        <pt x="295" y="-245" on="0"/>
        <pt x="234" y="-223" on="0"/>
        <pt x="215" y="-201" on="1"/>
        <pt x="256" y="-159" on="1"/>
        <pt x="271" y="-175" on="0"/>
        <pt x="309" y="-192" on="0"/>
        <pt x="331" y="-192" on="1"/>
        <pt x="360" y="-192" on="0"/>
        <pt x="395" y="-166" on="0"/>
        <pt x="395" y="-144" on="1"/>
        <pt x="395" y="-125" on="0"/>
        <pt x="363" y="-103" on="0"/>
        <pt x="337" y="-103" on="1"/>
        <pt x="303" y="-103" on="1"/>
        <pt x="345" y="-6" on="1"/>
        <pt x="286" y="3" on="0"/>
        <pt x="184" y="60" on="0"/>
        <pt x="111" y="146" on="0"/>
        <pt x="70" y="258" on="0"/>
        <pt x="70" y="321" on="1"/>
        <pt x="70" y="401" on="0"/>
        <pt x="130" y="543" on="0"/>
        <pt x="233" y="648" on="0"/>
        <pt x="371" y="709" on="0"/>
        <pt x="448" y="709" on="1"/>
        <pt x="536" y="709" on="0"/>
        <pt x="674" y="641" on="0"/>
        <pt x="717" y="575" on="1"/>
        <pt x="626" y="499" on="1"/>
        <pt x="597" y="549" on="0"/>
        <pt x="501" y="603" on="0"/>
        <pt x="442" y="603" on="1"/>
        <pt x="390" y="603" on="0"/>
        <pt x="298" y="560" on="0"/>
        <pt x="230" y="485" on="0"/>
        <pt x="191" y="384" on="0"/>
        <pt x="191" y="327" on="1"/>
        <pt x="191" y="277" on="0"/>
        <pt x="224" y="193" on="0"/>
        <pt x="282" y="132" on="0"/>
        <pt x="363" y="97" on="0"/>
      </contour>
    </TTGlyph>
    <TTGlyph name="Ccircumflex" xMin="70" yMin="-10" xMax="717" yMax="925">
      <component glyphName="C" x="0" y="0" flags="0x204"/>
      <component glyphName="circumflex" x="136" y="199" flags="0x4"/>
    </TTGlyph>
    <TTGlyph name="Cdotaccent" xMin="70" yMin="-10" xMax="717" yMax="930">
      <component glyphName="C" x="0" y="0" flags="0x204"/>
      <component glyphName="dotaccent" x="247" y="199" flags="0x4"/>
    </TTGlyph>
    <TTGlyph name="D" xMin="28" yMin="0" xMax="699" yMax="700">
      <contour>
        <pt x="28" y="0" on="1"/>
        <pt x="177" y="700" on="1"/>
        <pt x="396" y="700" on="1"/>
        <pt x="462" y="700" on="0"/>
        <pt x="574" y="654" on="0"/>
        <pt x="654" y="572" on="0"/>
        <pt x="699" y="457" on="0"/>
        <pt x="699" y="389" on="1"/>
        <pt x="699" y="310" on="0"/>
        <pt x="637" y="168" on="0"/>
        <pt x="533" y="62" on="0"/>
        <pt x="391" y="0" on="0"/>
        <pt x="312" y="0" on="1"/>
      </contour>
      <contour>
        <pt x="386" y="596" on="1"/>
        <pt x="272" y="596" on="1"/>
        <pt x="167" y="104" on="1"/>
        <pt x="325" y="104" on="1"/>
        <pt x="377" y="104" on="0"/>
        <pt x="469" y="148" on="0"/>
        <pt x="537" y="223" on="0"/>
        <pt x="577" y="325" on="0"/>
        <pt x="577" y="382" on="1"/>
        <pt x="577" y="476" on="0"/>
        <pt x="470" y="596" on="0"/>
      </contour>
    </TTGlyph>
    <TTGlyph name="Dcaron" xMin="28" yMin="0" xMax="699" yMax="929">
      <component glyphName="D" x="0" y="0" flags="0x204"/>
      <component glyphName="caron" x="144" y="199" flags="0x4"/>
    </TTGlyph>
    <TTGlyph name="Dcroat" xMin="28" yMin="0" xMax="722" yMax="700">
      <contour>
        <pt x="51" y="0" on="1"/>
        <pt x="115" y="302" on="1"/>
        <pt x="28" y="302" on="1"/>
        <pt x="49" y="399" on="1"/>
        <pt x="136" y="399" on="1"/>
        <pt x="200" y="700" on="1"/>
        <pt x="419" y="700" on="1"/>
        <pt x="485" y="700" on="0"/>
        <pt x="597" y="654" on="0"/>
        <pt x="677" y="572" on="0"/>
        <pt x="722" y="457" on="0"/>
        <pt x="722" y="389" on="1"/>
        <pt x="722" y="310" on="0"/>
        <pt x="660" y="168" on="0"/>
        <pt x="556" y="62" on="0"/>
        <pt x="414" y="0" on="0"/>
        <pt x="335" y="0" on="1"/>
      </contour>
      <contour>
        <pt x="409" y="596" on="1"/>
        <pt x="295" y="596" on="1"/>
        <pt x="253" y="399" on="1"/>
        <pt x="409" y="399" on="1"/>
        <pt x="388" y="302" on="1"/>
        <pt x="232" y="302" on="1"/>
        <pt x="190" y="104" on="1"/>
        <pt x="348" y="104" on="1"/>
        <pt x="400" y="104" on="0"/>
        <pt x="492" y="148" on="0"/>
        <pt x="560" y="223" on="0"/>
        <pt x="600" y="325" on="0"/>
        <pt x="600" y="382" on="1"/>
        <pt x="600" y="476" on="0"/>
        <pt x="493" y="596" on="0"/>
      </contour>
    </TTGlyph>
    <TTGlyph name="E" xMin="28" yMin="0" xMax="668" yMax="700">
      <contour>
        <pt x="28" y="0" on="1"/>
        <pt x="177" y="700" on="1"/>
        <pt x="668" y="700" on="1"/>
        <pt x="645" y="598" on="1"/>
        <pt x="272" y="598" on="1"/>
        <pt x="231" y="403" on="1"/>
        <pt x="492" y="403" on="1"/>
        <pt x="471" y="303" on="1"/>
        <pt x="209" y="303" on="1"/>
        <pt x="167" y="102" on="1"/>
        <pt x="545" y="102" on="1"/>
        <pt x="523" y="0" on="1"/>
      </contour>
    </TTGlyph>
    <TTGlyph name="Eacute" xMin="28" yMin="0" xMax="668" yMax="923">
      <component glyphName="E" x="0" y="0" flags="0x204"/>
      <component glyphName="acute" x="140" y="199" flags="0x4"/>
    </TTGlyph>
    <TTGlyph name="Ebreve" xMin="28" yMin="0" xMax="668" yMax="942">
      <component glyphName="E" x="0" y="0" flags="0x204"/>
      <component glyphName="breve" x="107" y="199" flags="0x4"/>
    </TTGlyph>
    <TTGlyph name="Ecaron" xMin="28" yMin="0" xMax="668" yMax="929">
      <component glyphName="E" x="0" y="0" flags="0x204"/>
      <component glyphName="caron" x="108" y="199" flags="0x4"/>
    </TTGlyph>
    <TTGlyph name="Ecircumflex" xMin="28" yMin="0" xMax="668" yMax="925">
      <component glyphName="E" x="0" y="0" flags="0x204"/>
      <component glyphName="circumflex" x="106" y="199" flags="0x4"/>
    </TTGlyph>
    <TTGlyph name="Edieresis" xMin="28" yMin="0" xMax="668" yMax="926">
      <component glyphName="E" x="0" y="0" flags="0x204"/>
      <component glyphName="dieresis" x="82" y="199" flags="0x4"/>
    </TTGlyph>
    <TTGlyph name="Edotaccent" xMin="28" yMin="0" xMax="668" yMax="930">
      <component glyphName="E" x="0" y="0" flags="0x204"/>
      <component glyphName="dotaccent" x="216" y="199" flags="0x4"/>
    </TTGlyph>
    <TTGlyph name="Egrave" xMin="28" yMin="0" xMax="668" yMax="923">
      <component glyphName="E" x="0" y="0" flags="0x204"/>
      <component glyphName="grave" x="96" y="199" flags="0x4"/>
    </TTGlyph>
    <TTGlyph name="Emacron" xMin="28" yMin="0" xMax="668" yMax="891">
      <component glyphName="E" x="0" y="0" flags="0x204"/>
      <component glyphName="macron" x="107" y="199" flags="0x4"/>
    </TTGlyph>
    <TTGlyph name="Eng" xMin="28" yMin="-212" xMax="758" yMax="700">
      <contour>
        <pt x="505" y="6" on="1"/>
        <pt x="249" y="528" on="1"/>
        <pt x="139" y="0" on="1"/>
        <pt x="28" y="0" on="1"/>
        <pt x="177" y="700" on="1"/>
        <pt x="294" y="700" on="1"/>
        <pt x="541" y="192" on="1"/>
        <pt x="647" y="700" on="1"/>
        <pt x="758" y="700" on="1"/>
        <pt x="593" y="-75" on="1"/>
        <pt x="579" y="-141" on="0"/>
        <pt x="495" y="-212" on="0"/>
        <pt x="432" y="-212" on="1"/>
        <pt x="411" y="-212" on="0"/>
        <pt x="375" y="-205" on="0"/>
        <pt x="364" y="-201" on="1"/>
        <pt x="383" y="-112" on="1"/>
        <pt x="391" y="-115" on="0"/>
        <pt x="413" y="-118" on="0"/>
        <pt x="428" y="-118" on="1"/>
        <pt x="454" y="-118" on="0"/>
        <pt x="485" y="-91" on="0"/>
        <pt x="490" y="-63" on="1"/>
      </contour>
    </TTGlyph>
    <TTGlyph name="Eogonek" xMin="28" yMin="-231" xMax="668" yMax="700">
      <contour>
        <pt x="28" y="0" on="1"/>
        <pt x="177" y="700" on="1"/>
        <pt x="668" y="700" on="1"/>
        <pt x="645" y="598" on="1"/>
        <pt x="272" y="598" on="1"/>
        <pt x="231" y="403" on="1"/>
        <pt x="492" y="403" on="1"/>
        <pt x="471" y="303" on="1"/>
        <pt x="209" y="303" on="1"/>
        <pt x="167" y="102" on="1"/>
        <pt x="545" y="102" on="1"/>
        <pt x="523" y="0" on="1"/>
        <pt x="463" y="-32" on="0"/>
        <pt x="404" y="-96" on="0"/>
        <pt x="404" y="-127" on="1"/>
        <pt x="404" y="-146" on="0"/>
        <pt x="432" y="-170" on="0"/>
        <pt x="455" y="-170" on="1"/>
        <pt x="467" y="-170" on="0"/>
        <pt x="492" y="-164" on="0"/>
        <pt x="501" y="-160" on="1"/>
        <pt x="505" y="-213" on="1"/>
        <pt x="489" y="-222" on="0"/>
        <pt x="448" y="-231" on="0"/>
        <pt x="426" y="-231" on="1"/>
        <pt x="385" y="-231" on="0"/>
        <pt x="334" y="-189" on="0"/>
        <pt x="334" y="-153" on="1"/>
        <pt x="334" y="-112" on="0"/>
        <pt x="393" y="-36" on="0"/>
        <pt x="453" y="0" on="1"/>
      </contour>
    </TTGlyph>
    <TTGlyph name="Eth" xMin="28" yMin="0" xMax="722" yMax="700">
      <contour>
        <pt x="51" y="0" on="1"/>
        <pt x="115" y="302" on="1"/>
        <pt x="28" y="302" on="1"/>
        <pt x="49" y="399" on="1"/>
        <pt x="136" y="399" on="1"/>
        <pt x="200" y="700" on="1"/>
        <pt x="419" y="700" on="1"/>
        <pt x="485" y="700" on="0"/>
        <pt x="597" y="654" on="0"/>
        <pt x="677" y="572" on="0"/>
        <pt x="722" y="457" on="0"/>
        <pt x="722" y="389" on="1"/>
        <pt x="722" y="310" on="0"/>
        <pt x="660" y="168" on="0"/>
        <pt x="556" y="62" on="0"/>
        <pt x="414" y="0" on="0"/>
        <pt x="335" y="0" on="1"/>
      </contour>
      <contour>
        <pt x="409" y="596" on="1"/>
        <pt x="295" y="596" on="1"/>
        <pt x="253" y="399" on="1"/>
        <pt x="409" y="399" on="1"/>
        <pt x="388" y="302" on="1"/>
        <pt x="232" y="302" on="1"/>
        <pt x="190" y="104" on="1"/>
        <pt x="348" y="104" on="1"/>
        <pt x="400" y="104" on="0"/>
        <pt x="492" y="148" on="0"/>
        <pt x="560" y="223" on="0"/>
        <pt x="600" y="325" on="0"/>
        <pt x="600" y="382" on="1"/>
        <pt x="600" y="476" on="0"/>
        <pt x="493" y="596" on="0"/>
      </contour>
    </TTGlyph>
    <TTGlyph name="Euro" xMin="40" yMin="-10" xMax="735" yMax="710">
      <contour>
        <pt x="454" y="316" on="1"/>
        <pt x="418" y="253" on="1"/>
        <pt x="239" y="253" on="1"/>
        <pt x="249" y="175" on="0"/>
        <pt x="342" y="84" on="0"/>
        <pt x="414" y="84" on="1"/>
        <pt x="457" y="84" on="0"/>
        <pt x="542" y="125" on="0"/>
        <pt x="578" y="162" on="1"/>
        <pt x="639" y="100" on="1"/>
        <pt x="588" y="46" on="0"/>
        <pt x="467" y="-10" on="0"/>
        <pt x="403" y="-10" on="1"/>
        <pt x="290" y="-10" on="0"/>
        <pt x="147" y="134" on="0"/>
        <pt x="137" y="253" on="1"/>
        <pt x="40" y="253" on="1"/>
        <pt x="53" y="316" on="1"/>
        <pt x="137" y="316" on="1"/>
        <pt x="138" y="334" on="0"/>
        <pt x="142" y="369" on="0"/>
        <pt x="146" y="385" on="1"/>
        <pt x="68" y="385" on="1"/>
        <pt x="82" y="449" on="1"/>
        <pt x="163" y="449" on="1"/>
        <pt x="183" y="506" on="0"/>
        <pt x="251" y="603" on="0"/>
        <pt x="338" y="672" on="0"/>
        <pt x="443" y="710" on="0"/>
        <pt x="500" y="710" on="1"/>
        <pt x="581" y="710" on="0"/>
        <pt x="703" y="634" on="0"/>
        <pt x="735" y="564" on="1"/>
        <pt x="652" y="511" on="1"/>
        <pt x="629" y="560" on="0"/>
        <pt x="541" y="616" on="0"/>
        <pt x="489" y="616" on="1"/>
        <pt x="417" y="616" on="0"/>
        <pt x="300" y="524" on="0"/>
        <pt x="268" y="449" on="1"/>
        <pt x="527" y="449" on="1"/>
        <pt x="491" y="385" on="1"/>
        <pt x="247" y="385" on="1"/>
        <pt x="243" y="369" on="0"/>
        <pt x="239" y="334" on="0"/>
        <pt x="238" y="316" on="1"/>
      </contour>
    </TTGlyph>
    <TTGlyph name="F" xMin="28" yMin="0" xMax="669" yMax="700">
      <contour>
        <pt x="28" y="0" on="1"/>
        <pt x="177" y="700" on="1"/>
        <pt x="669" y="700" on="1"/>
        <pt x="647" y="598" on="1"/>
        <pt x="272" y="598" on="1"/>
        <pt x="230" y="398" on="1"/>
        <pt x="489" y="398" on="1"/>
        <pt x="468" y="298" on="1"/>
        <pt x="208" y="298" on="1"/>
        <pt x="145" y="0" on="1"/>
      </contour>
    </TTGlyph>
    <TTGlyph name="G" xMin="67" yMin="-11" xMax="762" yMax="711">
      <contour>
        <pt x="750" y="321" on="1"/>
        <pt x="737" y="248" on="0"/>
        <pt x="670" y="126" on="0"/>
        <pt x="575" y="38" on="0"/>
        <pt x="456" y="-11" on="0"/>
        <pt x="390" y="-11" on="1"/>
        <pt x="321" y="-11" on="0"/>
        <pt x="203" y="39" on="0"/>
        <pt x="116" y="126" on="0"/>
        <pt x="67" y="247" on="0"/>
        <pt x="67" y="316" on="1"/>
        <pt x="67" y="396" on="0"/>
        <pt x="129" y="540" on="0"/>
        <pt x="233" y="648" on="0"/>
        <pt x="373" y="711" on="0"/>
        <pt x="450" y="711" on="1"/>
        <pt x="540" y="711" on="0"/>
        <pt x="686" y="638" on="0"/>
        <pt x="730" y="572" on="1"/>
        <pt x="638" y="497" on="1"/>
        <pt x="609" y="546" on="0"/>
        <pt x="504" y="604" on="0"/>
        <pt x="441" y="604" on="1"/>
        <pt x="389" y="604" on="0"/>
        <pt x="296" y="560" on="0"/>
        <pt x="228" y="483" on="0"/>
        <pt x="188" y="380" on="0"/>
        <pt x="188" y="322" on="1"/>
        <pt x="188" y="273" on="0"/>
        <pt x="220" y="190" on="0"/>
        <pt x="277" y="130" on="0"/>
        <pt x="355" y="96" on="0"/>
        <pt x="401" y="96" on="1"/>
        <pt x="479" y="96" on="0"/>
        <pt x="601" y="199" on="0"/>
        <pt x="620" y="280" on="1"/>
        <pt x="415" y="280" on="1"/>
        <pt x="435" y="382" on="1"/>
        <pt x="762" y="382" on="1"/>
      </contour>
    </TTGlyph>
    <TTGlyph name="Gbreve" xMin="67" yMin="-11" xMax="762" yMax="943">
      <component glyphName="G" x="0" y="0" flags="0x204"/>
      <component glyphName="breve" x="138" y="200" flags="0x4"/>
    </TTGlyph>
    <TTGlyph name="Gcircumflex" xMin="67" yMin="-11" xMax="762" yMax="926">
      <component glyphName="G" x="0" y="0" flags="0x204"/>
      <component glyphName="circumflex" x="137" y="200" flags="0x4"/>
    </TTGlyph>
    <TTGlyph name="Gcommaaccent" xMin="67" yMin="-288" xMax="762" yMax="711">
      <component glyphName="G" x="0" y="0" flags="0x204"/>
      <component glyphName="commaaccent" x="318" y="0" flags="0x4"/>
    </TTGlyph>
    <TTGlyph name="Gdotaccent" xMin="67" yMin="-11" xMax="762" yMax="931">
      <component glyphName="G" x="0" y="0" flags="0x204"/>
      <component glyphName="dotaccent" x="247" y="200" flags="0x4"/>
    </TTGlyph>
    <TTGlyph name="H" xMin="23" yMin="0" xMax="748" yMax="700">
      <contour>
        <pt x="23" y="0" on="1"/>
        <pt x="172" y="700" on="1"/>
        <pt x="289" y="700" on="1"/>
        <pt x="226" y="405" on="1"/>
        <pt x="568" y="405" on="1"/>
        <pt x="631" y="700" on="1"/>
        <pt x="748" y="700" on="1"/>
        <pt x="599" y="0" on="1"/>
        <pt x="482" y="0" on="1"/>
        <pt x="546" y="300" on="1"/>
        <pt x="204" y="300" on="1"/>
        <pt x="140" y="0" on="1"/>
      </contour>
    </TTGlyph>
    <TTGlyph name="Hbar" xMin="41" yMin="0" xMax="830" yMax="700">
      <contour>
        <pt x="41" y="0" on="1"/>
        <pt x="150" y="512" on="1"/>
        <pt x="64" y="512" on="1"/>
        <pt x="84" y="596" on="1"/>
        <pt x="168" y="596" on="1"/>
        <pt x="190" y="700" on="1"/>
        <pt x="307" y="700" on="1"/>
        <pt x="285" y="596" on="1"/>
        <pt x="627" y="596" on="1"/>
        <pt x="649" y="700" on="1"/>
        <pt x="766" y="700" on="1"/>
        <pt x="744" y="596" on="1"/>
        <pt x="830" y="596" on="1"/>
        <pt x="810" y="512" on="1"/>
        <pt x="726" y="512" on="1"/>
        <pt x="617" y="0" on="1"/>
        <pt x="500" y="0" on="1"/>
        <pt x="564" y="302" on="1"/>
        <pt x="222" y="302" on="1"/>
        <pt x="158" y="0" on="1"/>
      </contour>
      <contour>
        <pt x="244" y="403" on="1"/>
        <pt x="586" y="403" on="1"/>
        <pt x="609" y="512" on="1"/>
        <pt x="267" y="512" on="1"/>
      </contour>
    </TTGlyph>
    <TTGlyph name="Hcircumflex" xMin="23" yMin="0" xMax="748" yMax="925">
      <component glyphName="H" x="0" y="0" flags="0x204"/>
      <component glyphName="circumflex" x="150" y="199" flags="0x4"/>
    </TTGlyph>
    <TTGlyph name="I" xMin="22" yMin="0" xMax="289" yMax="700">
      <contour>
        <pt x="22" y="0" on="1"/>
        <pt x="171" y="700" on="1"/>
        <pt x="289" y="700" on="1"/>
        <pt x="140" y="0" on="1"/>
      </contour>
    </TTGlyph>
    <TTGlyph name="IJ" xMin="22" yMin="-10" xMax="918" yMax="700">
      <component glyphName="I" x="0" y="0" flags="0x4"/>
      <component glyphName="J" x="272" y="0" flags="0x4"/>
    </TTGlyph>
    <TTGlyph name="Iacute" xMin="22" yMin="0" xMax="474" yMax="923">
      <component glyphName="I" x="0" y="0" flags="0x204"/>
      <component glyphName="acute" x="-47" y="199" flags="0x4"/>
    </TTGlyph>
    <TTGlyph name="Ibreve" xMin="22" yMin="0" xMax="441" yMax="942">
      <component glyphName="I" x="0" y="0" flags="0x204"/>
      <component glyphName="breve" x="-80" y="199" flags="0x4"/>
    </TTGlyph>
    <TTGlyph name="Icircumflex" xMin="22" yMin="0" xMax="422" yMax="925">
      <component glyphName="I" x="0" y="0" flags="0x204"/>
      <component glyphName="circumflex" x="-81" y="199" flags="0x4"/>
    </TTGlyph>
    <TTGlyph name="Idieresis" xMin="22" yMin="0" xMax="425" yMax="926">
      <component glyphName="I" x="0" y="0" flags="0x204"/>
      <component glyphName="dieresis" x="-105" y="199" flags="0x4"/>
    </TTGlyph>
    <TTGlyph name="Idotaccent" xMin="22" yMin="0" xMax="329" yMax="930">
      <component glyphName="I" x="0" y="0" flags="0x204"/>
      <component glyphName="dotaccent" x="30" y="199" flags="0x4"/>
    </TTGlyph>
    <TTGlyph name="Igrave" xMin="22" yMin="0" xMax="301" yMax="923">
      <component glyphName="I" x="0" y="0" flags="0x204"/>
      <component glyphName="grave" x="-90" y="199" flags="0x4"/>
    </TTGlyph>
    <TTGlyph name="Imacron" xMin="22" yMin="0" xMax="419" yMax="891">
      <component glyphName="I" x="0" y="0" flags="0x204"/>
      <component glyphName="macron" x="-80" y="199" flags="0x4"/>
    </TTGlyph>
    <TTGlyph name="Iogonek" xMin="-49" yMin="-231" xMax="289" yMax="700">
      <contour>
        <pt x="22" y="0" on="1"/>
        <pt x="171" y="700" on="1"/>
        <pt x="289" y="700" on="1"/>
        <pt x="140" y="0" on="1"/>
        <pt x="80" y="-32" on="0"/>
        <pt x="21" y="-96" on="0"/>
        <pt x="21" y="-127" on="1"/>
        <pt x="21" y="-146" on="0"/>
        <pt x="49" y="-170" on="0"/>
        <pt x="72" y="-170" on="1"/>
        <pt x="84" y="-170" on="0"/>
        <pt x="109" y="-164" on="0"/>
        <pt x="118" y="-160" on="1"/>
        <pt x="122" y="-213" on="1"/>
        <pt x="106" y="-222" on="0"/>
        <pt x="65" y="-231" on="0"/>
        <pt x="43" y="-231" on="1"/>
        <pt x="2" y="-231" on="0"/>
        <pt x="-49" y="-189" on="0"/>
        <pt x="-49" y="-153" on="1"/>
        <pt x="-49" y="-112" on="0"/>
        <pt x="10" y="-36" on="0"/>
        <pt x="70" y="0" on="1"/>
      </contour>
    </TTGlyph>
    <TTGlyph name="Itilde" xMin="22" yMin="0" xMax="454" yMax="924">
      <component glyphName="I" x="0" y="0" flags="0x204"/>
      <component glyphName="tilde" x="-76" y="199" flags="0x4"/>
    </TTGlyph>
    <TTGlyph name="J" xMin="17" yMin="-10" xMax="646" yMax="700">
      <contour>
        <pt x="549" y="251" on="1"/>
        <pt x="524" y="129" on="0"/>
        <pt x="369" y="-10" on="0"/>
        <pt x="261" y="-10" on="1"/>
        <pt x="160" y="-10" on="0"/>
        <pt x="32" y="96" on="0"/>
        <pt x="17" y="191" on="1"/>
        <pt x="126" y="228" on="1"/>
        <pt x="136" y="163" on="0"/>
        <pt x="203" y="96" on="0"/>
        <pt x="259" y="96" on="1"/>
        <pt x="323" y="96" on="0"/>
        <pt x="418" y="189" on="0"/>
        <pt x="435" y="269" on="1"/>
        <pt x="527" y="700" on="1"/>
        <pt x="646" y="700" on="1"/>
      </contour>
    </TTGlyph>
    <TTGlyph name="Jcircumflex" xMin="17" yMin="-10" xMax="773" yMax="925">
      <component glyphName="J" x="0" y="0" flags="0x204"/>
      <component glyphName="circumflex" x="270" y="199" flags="0x4"/>
    </TTGlyph>
    <TTGlyph name="K" xMin="28" yMin="0" xMax="739" yMax="700">
      <contour>
        <pt x="28" y="0" on="1"/>
        <pt x="177" y="700" on="1"/>
        <pt x="294" y="700" on="1"/>
        <pt x="228" y="390" on="1"/>
        <pt x="587" y="700" on="1"/>
        <pt x="739" y="700" on="1"/>
        <pt x="337" y="360" on="1"/>
        <pt x="595" y="0" on="1"/>
        <pt x="448" y="0" on="1"/>
        <pt x="216" y="335" on="1"/>
        <pt x="145" y="0" on="1"/>
      </contour>
    </TTGlyph>
    <TTGlyph name="Kcommaaccent" xMin="28" yMin="-288" xMax="739" yMax="700">
      <component glyphName="K" x="0" y="0" flags="0x204"/>
      <component glyphName="commaaccent" x="219" y="0" flags="0x4"/>
    </TTGlyph>
    <TTGlyph name="L" xMin="28" yMin="0" xMax="533" yMax="700">
      <contour>
        <pt x="28" y="0" on="1"/>
        <pt x="177" y="700" on="1"/>
        <pt x="294" y="700" on="1"/>
        <pt x="167" y="104" on="1"/>
        <pt x="533" y="104" on="1"/>
        <pt x="511" y="0" on="1"/>
      </contour>
    </TTGlyph>
    <TTGlyph name="Lacute" xMin="28" yMin="0" xMax="533" yMax="923">
      <component glyphName="L" x="0" y="0" flags="0x204"/>
      <component glyphName="acute" x="-42" y="199" flags="0x4"/>
    </TTGlyph>
    <TTGlyph name="Lcaron" xMin="28" yMin="0" xMax="592" yMax="718">
      <component glyphName="L" x="0" y="0" flags="0x4"/>
      <component glyphName="caronSlovak" x="245" y="0" flags="0x4"/>
    </TTGlyph>
    <TTGlyph name="Lcommaaccent" xMin="28" yMin="-288" xMax="533" yMax="700">
      <component glyphName="L" x="0" y="0" flags="0x204"/>
      <component glyphName="commaaccent" x="214" y="0" flags="0x4"/>
    </TTGlyph>
    <TTGlyph name="Ldot" xMin="28" yMin="0" xMax="533" yMax="700">
      <component glyphName="L" x="0" y="0" flags="0x4"/>
      <component glyphName="dotaccent" x="225" y="-302" flags="0x4"/>
    </TTGlyph>
    <TTGlyph name="Lslash" xMin="-8" yMin="0" xMax="556" yMax="700">
      <contour>
        <pt x="51" y="0" on="1"/>
        <pt x="99" y="227" on="1"/>
        <pt x="-8" y="163" on="1"/>
        <pt x="14" y="269" on="1"/>
        <pt x="122" y="334" on="1"/>
        <pt x="200" y="700" on="1"/>
        <pt x="317" y="700" on="1"/>
        <pt x="256" y="414" on="1"/>
        <pt x="447" y="528" on="1"/>
        <pt x="425" y="422" on="1"/>
        <pt x="233" y="307" on="1"/>
        <pt x="190" y="104" on="1"/>
        <pt x="556" y="104" on="1"/>
        <pt x="534" y="0" on="1"/>
      </contour>
    </TTGlyph>
    <TTGlyph name="M" xMin="28" yMin="0" xMax="884" yMax="700">
      <contour>
        <pt x="395" y="50" on="1"/>
        <pt x="256" y="552" on="1"/>
        <pt x="139" y="0" on="1"/>
        <pt x="28" y="0" on="1"/>
        <pt x="177" y="700" on="1"/>
        <pt x="326" y="700" on="1"/>
        <pt x="438" y="275" on="1"/>
        <pt x="726" y="700" on="1"/>
        <pt x="884" y="700" on="1"/>
        <pt x="735" y="0" on="1"/>
        <pt x="626" y="0" on="1"/>
        <pt x="741" y="544" on="1"/>
      </contour>
    </TTGlyph>
    <TTGlyph name="N" xMin="28" yMin="0" xMax="758" yMax="700">
      <contour>
        <pt x="177" y="700" on="1"/>
        <pt x="291" y="700" on="1"/>
        <pt x="541" y="180" on="1"/>
        <pt x="647" y="700" on="1"/>
        <pt x="758" y="700" on="1"/>
        <pt x="609" y="0" on="1"/>
        <pt x="504" y="0" on="1"/>
        <pt x="248" y="534" on="1"/>
        <pt x="139" y="0" on="1"/>
        <pt x="28" y="0" on="1"/>
      </contour>
    </TTGlyph>
    <TTGlyph name="Nacute" xMin="28" yMin="0" xMax="758" yMax="923">
      <component glyphName="N" x="0" y="0" flags="0x204"/>
      <component glyphName="acute" x="183" y="199" flags="0x4"/>
    </TTGlyph>
    <TTGlyph name="Ncaron" xMin="28" yMin="0" xMax="758" yMax="929">
      <component glyphName="N" x="0" y="0" flags="0x204"/>
      <component glyphName="caron" x="152" y="199" flags="0x4"/>
    </TTGlyph>
    <TTGlyph name="Ncommaaccent" xMin="28" yMin="-288" xMax="758" yMax="700">
      <component glyphName="N" x="0" y="0" flags="0x204"/>
      <component glyphName="commaaccent" x="237" y="0" flags="0x4"/>
    </TTGlyph>
    <TTGlyph name="Ntilde" xMin="28" yMin="0" xMax="758" yMax="924">
      <component glyphName="N" x="0" y="0" flags="0x204"/>
      <component glyphName="tilde" x="154" y="199" flags="0x4"/>
    </TTGlyph>
    <TTGlyph name="O" xMin="70" yMin="-11" xMax="765" yMax="711">
      <contour>
        <pt x="765" y="380" on="1"/>
        <pt x="765" y="300" on="0"/>
        <pt x="706" y="157" on="0"/>
        <pt x="604" y="51" on="0"/>
        <pt x="468" y="-11" on="0"/>
        <pt x="392" y="-11" on="1"/>
        <pt x="323" y="-11" on="0"/>
        <pt x="205" y="40" on="0"/>
        <pt x="119" y="128" on="0"/>
        <pt x="70" y="249" on="0"/>
        <pt x="70" y="320" on="1"/>
        <pt x="70" y="400" on="0"/>
        <pt x="129" y="543" on="0"/>
        <pt x="231" y="649" on="0"/>
        <pt x="367" y="711" on="0"/>
        <pt x="443" y="711" on="1"/>
        <pt x="512" y="711" on="0"/>
        <pt x="630" y="660" on="0"/>
        <pt x="716" y="572" on="0"/>
        <pt x="765" y="451" on="0"/>
      </contour>
      <contour>
        <pt x="645" y="373" on="1"/>
        <pt x="645" y="423" on="0"/>
        <pt x="613" y="508" on="0"/>
        <pt x="558" y="569" on="0"/>
        <pt x="481" y="604" on="0"/>
        <pt x="436" y="604" on="1"/>
        <pt x="385" y="604" on="0"/>
        <pt x="295" y="560" on="0"/>
        <pt x="229" y="485" on="0"/>
        <pt x="190" y="384" on="0"/>
        <pt x="190" y="327" on="1"/>
        <pt x="190" y="278" on="0"/>
        <pt x="222" y="193" on="0"/>
        <pt x="278" y="132" on="0"/>
        <pt x="355" y="97" on="0"/>
        <pt x="400" y="97" on="1"/>
        <pt x="450" y="97" on="0"/>
        <pt x="540" y="140" on="0"/>
        <pt x="606" y="215" on="0"/>
        <pt x="645" y="316" on="0"/>
      </contour>
    </TTGlyph>
    <TTGlyph name="OE" xMin="66" yMin="0" xMax="1098" yMax="700">
      <contour>
        <pt x="384" y="0" on="1"/>
        <pt x="314" y="0" on="0"/>
        <pt x="197" y="47" on="0"/>
        <pt x="113" y="131" on="0"/>
        <pt x="66" y="249" on="0"/>
        <pt x="66" y="318" on="1"/>
        <pt x="66" y="397" on="0"/>
        <pt x="125" y="537" on="0"/>
        <pt x="226" y="640" on="0"/>
        <pt x="364" y="700" on="0"/>
        <pt x="442" y="700" on="1"/>
        <pt x="1098" y="700" on="1"/>
        <pt x="1076" y="595" on="1"/>
        <pt x="657" y="595" on="1"/>
        <pt x="691" y="558" on="0"/>
        <pt x="731" y="459" on="0"/>
        <pt x="734" y="404" on="1"/>
        <pt x="917" y="404" on="1"/>
        <pt x="895" y="302" on="1"/>
        <pt x="726" y="302" on="1"/>
        <pt x="714" y="245" on="0"/>
        <pt x="657" y="144" on="0"/>
        <pt x="616" y="105" on="1"/>
        <pt x="972" y="105" on="1"/>
        <pt x="950" y="0" on="1"/>
      </contour>
      <contour>
        <pt x="382" y="107" on="1"/>
        <pt x="431" y="107" on="0"/>
        <pt x="518" y="150" on="0"/>
        <pt x="583" y="223" on="0"/>
        <pt x="621" y="321" on="0"/>
        <pt x="621" y="376" on="1"/>
        <pt x="621" y="423" on="0"/>
        <pt x="591" y="503" on="0"/>
        <pt x="539" y="560" on="0"/>
        <pt x="467" y="593" on="0"/>
        <pt x="424" y="593" on="1"/>
        <pt x="375" y="593" on="0"/>
        <pt x="286" y="550" on="0"/>
        <pt x="221" y="477" on="0"/>
        <pt x="182" y="379" on="0"/>
        <pt x="182" y="325" on="1"/>
        <pt x="182" y="278" on="0"/>
        <pt x="212" y="198" on="0"/>
        <pt x="265" y="140" on="0"/>
        <pt x="339" y="107" on="0"/>
      </contour>
    </TTGlyph>
    <TTGlyph name="Oacute" xMin="70" yMin="-11" xMax="765" yMax="923">
      <component glyphName="O" x="0" y="0" flags="0x204"/>
      <component glyphName="acute" x="177" y="199" flags="0x4"/>
    </TTGlyph>
    <TTGlyph name="Obreve" xMin="70" yMin="-11" xMax="765" yMax="942">
      <component glyphName="O" x="0" y="0" flags="0x204"/>
      <component glyphName="breve" x="144" y="199" flags="0x4"/>
    </TTGlyph>
    <TTGlyph name="Ocircumflex" xMin="70" yMin="-11" xMax="765" yMax="925">
      <component glyphName="O" x="0" y="0" flags="0x204"/>
      <component glyphName="circumflex" x="144" y="199" flags="0x4"/>
    </TTGlyph>
    <TTGlyph name="Odieresis" xMin="70" yMin="-11" xMax="765" yMax="926">
      <component glyphName="O" x="0" y="0" flags="0x204"/>
      <component glyphName="dieresis" x="119" y="199" flags="0x4"/>
    </TTGlyph>
    <TTGlyph name="Ograve" xMin="70" yMin="-11" xMax="765" yMax="923">
      <component glyphName="O" x="0" y="0" flags="0x204"/>
      <component glyphName="grave" x="134" y="199" flags="0x4"/>
    </TTGlyph>
    <TTGlyph name="Ohungarumlaut" xMin="70" yMin="-11" xMax="774" yMax="923">
      <component glyphName="O" x="0" y="0" flags="0x204"/>
      <component glyphName="hungarumlaut" x="154" y="199" flags="0x4"/>
    </TTGlyph>
    <TTGlyph name="Omacron" xMin="70" yMin="-11" xMax="765" yMax="891">
      <component glyphName="O" x="0" y="0" flags="0x204"/>
      <component glyphName="macron" x="144" y="199" flags="0x4"/>
    </TTGlyph>
    <TTGlyph name="Oslash" xMin="4" yMin="-11" xMax="835" yMax="711">
      <contour>
        <pt x="112" y="-5" on="1"/>
        <pt x="4" y="-5" on="1"/>
        <pt x="131" y="120" on="1"/>
        <pt x="102" y="161" on="0"/>
        <pt x="70" y="263" on="0"/>
        <pt x="70" y="320" on="1"/>
        <pt x="70" y="400" on="0"/>
        <pt x="129" y="543" on="0"/>
        <pt x="231" y="649" on="0"/>
        <pt x="367" y="711" on="0"/>
        <pt x="443" y="711" on="1"/>
        <pt x="504" y="711" on="0"/>
        <pt x="612" y="671" on="0"/>
        <pt x="654" y="634" on="1"/>
        <pt x="726" y="705" on="1"/>
        <pt x="835" y="705" on="1"/>
        <pt x="705" y="577" on="1"/>
        <pt x="733" y="537" on="0"/>
        <pt x="765" y="436" on="0"/>
        <pt x="765" y="380" on="1"/>
        <pt x="765" y="300" on="0"/>
        <pt x="706" y="157" on="0"/>
        <pt x="604" y="51" on="0"/>
        <pt x="468" y="-11" on="0"/>
        <pt x="392" y="-11" on="1"/>
        <pt x="332" y="-11" on="0"/>
        <pt x="224" y="29" on="0"/>
        <pt x="183" y="64" on="1"/>
      </contour>
      <contour>
        <pt x="190" y="327" on="1"/>
        <pt x="190" y="293" on="0"/>
        <pt x="205" y="232" on="0"/>
        <pt x="219" y="206" on="1"/>
        <pt x="571" y="553" on="1"/>
        <pt x="544" y="577" on="0"/>
        <pt x="476" y="604" on="0"/>
        <pt x="436" y="604" on="1"/>
        <pt x="385" y="604" on="0"/>
        <pt x="295" y="560" on="0"/>
        <pt x="229" y="485" on="0"/>
        <pt x="190" y="384" on="0"/>
      </contour>
      <contour>
        <pt x="645" y="373" on="1"/>
        <pt x="645" y="406" on="0"/>
        <pt x="631" y="466" on="0"/>
        <pt x="618" y="492" on="1"/>
        <pt x="266" y="146" on="1"/>
        <pt x="293" y="123" on="0"/>
        <pt x="361" y="97" on="0"/>
        <pt x="400" y="97" on="1"/>
        <pt x="450" y="97" on="0"/>
        <pt x="540" y="140" on="0"/>
        <pt x="606" y="215" on="0"/>
        <pt x="645" y="316" on="0"/>
      </contour>
    </TTGlyph>
    <TTGlyph name="Otilde" xMin="70" yMin="-11" xMax="765" yMax="924">
      <component glyphName="O" x="0" y="0" flags="0x204"/>
      <component glyphName="tilde" x="148" y="199" flags="0x4"/>
    </TTGlyph>
    <TTGlyph name="P" xMin="28" yMin="0" xMax="668" yMax="700">
      <contour>
        <pt x="28" y="0" on="1"/>
        <pt x="177" y="700" on="1"/>
        <pt x="456" y="700" on="1"/>
        <pt x="552" y="700" on="0"/>
        <pt x="668" y="595" on="0"/>
        <pt x="668" y="506" on="1"/>
        <pt x="668" y="455" on="0"/>
        <pt x="629" y="367" on="0"/>
        <pt x="559" y="303" on="0"/>
        <pt x="464" y="267" on="0"/>
        <pt x="409" y="267" on="1"/>
        <pt x="202" y="267" on="1"/>
        <pt x="145" y="0" on="1"/>
      </contour>
      <contour>
        <pt x="431" y="599" on="1"/>
        <pt x="273" y="599" on="1"/>
        <pt x="223" y="365" on="1"/>
        <pt x="401" y="365" on="1"/>
        <pt x="467" y="365" on="0"/>
        <pt x="549" y="439" on="0"/>
        <pt x="549" y="498" on="1"/>
        <pt x="549" y="545" on="0"/>
        <pt x="486" y="599" on="0"/>
      </contour>
    </TTGlyph>
    <TTGlyph name="Q" xMin="70" yMin="-43" xMax="765" yMax="711">
      <contour>
        <pt x="765" y="380" on="1"/>
        <pt x="765" y="289" on="0"/>
        <pt x="689" y="130" on="0"/>
        <pt x="626" y="76" on="1"/>
        <pt x="674" y="0" on="1"/>
        <pt x="585" y="-43" on="1"/>
        <pt x="543" y="23" on="1"/>
        <pt x="509" y="7" on="0"/>
        <pt x="432" y="-11" on="0"/>
        <pt x="392" y="-11" on="1"/>
        <pt x="323" y="-11" on="0"/>
        <pt x="205" y="40" on="0"/>
        <pt x="119" y="128" on="0"/>
        <pt x="70" y="249" on="0"/>
        <pt x="70" y="320" on="1"/>
        <pt x="70" y="400" on="0"/>
        <pt x="129" y="543" on="0"/>
        <pt x="231" y="649" on="0"/>
        <pt x="367" y="711" on="0"/>
        <pt x="443" y="711" on="1"/>
        <pt x="512" y="711" on="0"/>
        <pt x="630" y="660" on="0"/>
        <pt x="716" y="572" on="0"/>
        <pt x="765" y="451" on="0"/>
      </contour>
      <contour>
        <pt x="509" y="260" on="1"/>
        <pt x="566" y="170" on="1"/>
        <pt x="603" y="207" on="0"/>
        <pt x="645" y="313" on="0"/>
        <pt x="645" y="373" on="1"/>
        <pt x="645" y="423" on="0"/>
        <pt x="613" y="508" on="0"/>
        <pt x="558" y="569" on="0"/>
        <pt x="481" y="604" on="0"/>
        <pt x="436" y="604" on="1"/>
        <pt x="385" y="604" on="0"/>
        <pt x="295" y="560" on="0"/>
        <pt x="229" y="485" on="0"/>
        <pt x="190" y="384" on="0"/>
        <pt x="190" y="327" on="1"/>
        <pt x="190" y="278" on="0"/>
        <pt x="222" y="193" on="0"/>
        <pt x="278" y="132" on="0"/>
        <pt x="355" y="97" on="0"/>
        <pt x="400" y="97" on="1"/>
        <pt x="422" y="97" on="0"/>
        <pt x="466" y="106" on="0"/>
        <pt x="486" y="114" on="1"/>
        <pt x="421" y="217" on="1"/>
      </contour>
    </TTGlyph>
    <TTGlyph name="R" xMin="28" yMin="0" xMax="667" yMax="700">
      <contour>
        <pt x="28" y="0" on="1"/>
        <pt x="177" y="700" on="1"/>
        <pt x="461" y="700" on="1"/>
        <pt x="554" y="700" on="0"/>
        <pt x="667" y="596" on="0"/>
        <pt x="667" y="511" on="1"/>
        <pt x="667" y="430" on="0"/>
        <pt x="563" y="307" on="0"/>
        <pt x="482" y="288" on="1"/>
        <pt x="578" y="0" on="1"/>
        <pt x="454" y="0" on="1"/>
        <pt x="367" y="281" on="1"/>
        <pt x="205" y="281" on="1"/>
        <pt x="145" y="0" on="1"/>
      </contour>
      <contour>
        <pt x="441" y="599" on="1"/>
        <pt x="273" y="599" on="1"/>
        <pt x="225" y="377" on="1"/>
        <pt x="412" y="377" on="1"/>
        <pt x="471" y="377" on="0"/>
        <pt x="548" y="448" on="0"/>
        <pt x="548" y="502" on="1"/>
        <pt x="548" y="547" on="0"/>
        <pt x="490" y="599" on="0"/>
      </contour>
    </TTGlyph>
    <TTGlyph name="Racute" xMin="28" yMin="0" xMax="667" yMax="923">
      <component glyphName="R" x="0" y="0" flags="0x204"/>
      <component glyphName="acute" x="138" y="199" flags="0x4"/>
    </TTGlyph>
    <TTGlyph name="Rcaron" xMin="28" yMin="0" xMax="667" yMax="929">
      <component glyphName="R" x="0" y="0" flags="0x204"/>
      <component glyphName="caron" x="106" y="199" flags="0x4"/>
    </TTGlyph>
    <TTGlyph name="Rcommaaccent" xMin="28" yMin="-288" xMax="667" yMax="700">
      <component glyphName="R" x="0" y="0" flags="0x204"/>
      <component glyphName="commaaccent" x="200" y="0" flags="0x4"/>
    </TTGlyph>
    <TTGlyph name="S" xMin="11" yMin="-10" xMax="626" yMax="710">
      <contour>
        <pt x="11" y="125" on="1"/>
        <pt x="85" y="208" on="1"/>
        <pt x="148" y="146" on="0"/>
        <pt x="261" y="88" on="0"/>
        <pt x="320" y="88" on="1"/>
        <pt x="384" y="88" on="0"/>
        <pt x="467" y="152" on="0"/>
        <pt x="467" y="201" on="1"/>
        <pt x="467" y="236" on="0"/>
        <pt x="417" y="279" on="0"/>
        <pt x="357" y="296" on="1"/>
        <pt x="235" y="328" on="1"/>
        <pt x="161" y="348" on="0"/>
        <pt x="83" y="435" on="0"/>
        <pt x="83" y="498" on="1"/>
        <pt x="83" y="594" on="0"/>
        <pt x="222" y="710" on="0"/>
        <pt x="336" y="710" on="1"/>
        <pt x="420" y="710" on="0"/>
        <pt x="572" y="651" on="0"/>
        <pt x="626" y="598" on="1"/>
        <pt x="553" y="515" on="1"/>
        <pt x="506" y="561" on="0"/>
        <pt x="391" y="611" on="0"/>
        <pt x="329" y="611" on="1"/>
        <pt x="269" y="611" on="0"/>
        <pt x="197" y="557" on="0"/>
        <pt x="197" y="513" on="1"/>
        <pt x="197" y="480" on="0"/>
        <pt x="242" y="437" on="0"/>
        <pt x="291" y="424" on="1"/>
        <pt x="408" y="394" on="1"/>
        <pt x="498" y="371" on="0"/>
        <pt x="584" y="284" on="0"/>
        <pt x="584" y="218" on="1"/>
        <pt x="584" y="168" on="0"/>
        <pt x="544" y="83" on="0"/>
        <pt x="473" y="23" on="0"/>
        <pt x="372" y="-10" on="0"/>
        <pt x="312" y="-10" on="1"/>
        <pt x="225" y="-10" on="0"/>
        <pt x="74" y="57" on="0"/>
      </contour>
    </TTGlyph>
    <TTGlyph name="Sacute" xMin="11" yMin="-10" xMax="626" yMax="923">
      <component glyphName="S" x="0" y="0" flags="0x204"/>
      <component glyphName="acute" x="73" y="199" flags="0x4"/>
    </TTGlyph>
    <TTGlyph name="Scaron" xMin="11" yMin="-10" xMax="626" yMax="929">
      <component glyphName="S" x="0" y="0" flags="0x204"/>
      <component glyphName="caron" x="41" y="199" flags="0x4"/>
    </TTGlyph>
    <TTGlyph name="Scedilla" xMin="11" yMin="-245" xMax="626" yMax="710">
      <contour>
        <pt x="11" y="125" on="1"/>
        <pt x="85" y="208" on="1"/>
        <pt x="148" y="146" on="0"/>
        <pt x="261" y="88" on="0"/>
        <pt x="320" y="88" on="1"/>
        <pt x="384" y="88" on="0"/>
        <pt x="467" y="152" on="0"/>
        <pt x="467" y="201" on="1"/>
        <pt x="467" y="236" on="0"/>
        <pt x="417" y="279" on="0"/>
        <pt x="357" y="296" on="1"/>
        <pt x="235" y="328" on="1"/>
        <pt x="161" y="348" on="0"/>
        <pt x="83" y="435" on="0"/>
        <pt x="83" y="498" on="1"/>
        <pt x="83" y="594" on="0"/>
        <pt x="222" y="710" on="0"/>
        <pt x="336" y="710" on="1"/>
        <pt x="420" y="710" on="0"/>
        <pt x="572" y="651" on="0"/>
        <pt x="626" y="598" on="1"/>
        <pt x="553" y="515" on="1"/>
        <pt x="506" y="561" on="0"/>
        <pt x="391" y="611" on="0"/>
        <pt x="329" y="611" on="1"/>
        <pt x="269" y="611" on="0"/>
        <pt x="197" y="557" on="0"/>
        <pt x="197" y="513" on="1"/>
        <pt x="197" y="480" on="0"/>
        <pt x="242" y="437" on="0"/>
        <pt x="291" y="424" on="1"/>
        <pt x="408" y="394" on="1"/>
        <pt x="498" y="371" on="0"/>
        <pt x="584" y="284" on="0"/>
        <pt x="584" y="218" on="1"/>
        <pt x="584" y="168" on="0"/>
        <pt x="545" y="85" on="0"/>
        <pt x="476" y="25" on="0"/>
        <pt x="378" y="-9" on="0"/>
        <pt x="320" y="-10" on="1"/>
        <pt x="296" y="-63" on="1"/>
        <pt x="336" y="-67" on="0"/>
        <pt x="379" y="-106" on="0"/>
        <pt x="379" y="-137" on="1"/>
        <pt x="379" y="-183" on="0"/>
        <pt x="306" y="-245" on="0"/>
        <pt x="253" y="-245" on="1"/>
        <pt x="215" y="-245" on="0"/>
        <pt x="154" y="-223" on="0"/>
        <pt x="135" y="-201" on="1"/>
        <pt x="176" y="-159" on="1"/>
        <pt x="191" y="-175" on="0"/>
        <pt x="229" y="-192" on="0"/>
        <pt x="251" y="-192" on="1"/>
        <pt x="280" y="-192" on="0"/>
        <pt x="315" y="-166" on="0"/>
        <pt x="315" y="-144" on="1"/>
        <pt x="315" y="-125" on="0"/>
        <pt x="283" y="-103" on="0"/>
        <pt x="257" y="-103" on="1"/>
        <pt x="223" y="-103" on="1"/>
        <pt x="265" y="-7" on="1"/>
        <pt x="193" y="0" on="0"/>
        <pt x="65" y="67" on="0"/>
      </contour>
    </TTGlyph>
    <TTGlyph name="Scircumflex" xMin="11" yMin="-10" xMax="626" yMax="925">
      <component glyphName="S" x="0" y="0" flags="0x204"/>
      <component glyphName="circumflex" x="39" y="199" flags="0x4"/>
    </TTGlyph>
    <TTGlyph name="Scommaaccent" xMin="11" yMin="-288" xMax="626" yMax="710">
      <component glyphName="S" x="0" y="0" flags="0x204"/>
      <component glyphName="commaaccent" x="221" y="0" flags="0x4"/>
    </TTGlyph>
    <TTGlyph name="T" xMin="96" yMin="0" xMax="695" yMax="700">
      <contour>
        <pt x="96" y="596" on="1"/>
        <pt x="119" y="700" on="1"/>
        <pt x="695" y="700" on="1"/>
        <pt x="672" y="596" on="1"/>
        <pt x="444" y="596" on="1"/>
        <pt x="317" y="0" on="1"/>
        <pt x="199" y="0" on="1"/>
        <pt x="326" y="596" on="1"/>
      </contour>
    </TTGlyph>
    <TTGlyph name="Tbar" xMin="96" yMin="0" xMax="695" yMax="700">
      <contour>
        <pt x="143" y="383" on="1"/>
        <pt x="281" y="383" on="1"/>
        <pt x="326" y="596" on="1"/>
        <pt x="96" y="596" on="1"/>
        <pt x="119" y="700" on="1"/>
        <pt x="695" y="700" on="1"/>
        <pt x="672" y="596" on="1"/>
        <pt x="444" y="596" on="1"/>
        <pt x="399" y="383" on="1"/>
        <pt x="538" y="383" on="1"/>
        <pt x="517" y="293" on="1"/>
        <pt x="379" y="293" on="1"/>
        <pt x="317" y="0" on="1"/>
        <pt x="199" y="0" on="1"/>
        <pt x="261" y="293" on="1"/>
        <pt x="122" y="293" on="1"/>
      </contour>
    </TTGlyph>
    <TTGlyph name="Tcaron" xMin="96" yMin="0" xMax="695" yMax="929">
      <component glyphName="T" x="0" y="0" flags="0x204"/>
      <component glyphName="caron" x="99" y="199" flags="0x4"/>
    </TTGlyph>
    <TTGlyph name="Tcedilla" xMin="96" yMin="-245" xMax="695" yMax="700">
      <contour>
        <pt x="96" y="596" on="1"/>
        <pt x="119" y="700" on="1"/>
        <pt x="695" y="700" on="1"/>
        <pt x="672" y="596" on="1"/>
        <pt x="444" y="596" on="1"/>
        <pt x="317" y="0" on="1"/>
        <pt x="290" y="0" on="1"/>
        <pt x="262" y="-63" on="1"/>
        <pt x="302" y="-67" on="0"/>
        <pt x="345" y="-106" on="0"/>
        <pt x="345" y="-137" on="1"/>
        <pt x="345" y="-183" on="0"/>
        <pt x="272" y="-245" on="0"/>
        <pt x="219" y="-245" on="1"/>
        <pt x="181" y="-245" on="0"/>
        <pt x="120" y="-223" on="0"/>
        <pt x="101" y="-201" on="1"/>
        <pt x="142" y="-159" on="1"/>
        <pt x="157" y="-175" on="0"/>
        <pt x="195" y="-192" on="0"/>
        <pt x="217" y="-192" on="1"/>
        <pt x="246" y="-192" on="0"/>
        <pt x="281" y="-166" on="0"/>
        <pt x="281" y="-144" on="1"/>
        <pt x="281" y="-125" on="0"/>
        <pt x="249" y="-103" on="0"/>
        <pt x="223" y="-103" on="1"/>
        <pt x="189" y="-103" on="1"/>
        <pt x="234" y="0" on="1"/>
        <pt x="199" y="0" on="1"/>
        <pt x="326" y="596" on="1"/>
      </contour>
    </TTGlyph>
    <TTGlyph name="Thorn" xMin="29" yMin="0" xMax="627" yMax="700">
      <contour>
        <pt x="29" y="0" on="1"/>
        <pt x="178" y="700" on="1"/>
        <pt x="295" y="700" on="1"/>
        <pt x="266" y="565" on="1"/>
        <pt x="413" y="565" on="1"/>
        <pt x="514" y="565" on="0"/>
        <pt x="627" y="465" on="0"/>
        <pt x="627" y="377" on="1"/>
        <pt x="627" y="324" on="0"/>
        <pt x="589" y="236" on="0"/>
        <pt x="520" y="174" on="0"/>
        <pt x="424" y="139" on="0"/>
        <pt x="366" y="139" on="1"/>
        <pt x="176" y="139" on="1"/>
        <pt x="146" y="0" on="1"/>
      </contour>
      <contour>
        <pt x="388" y="463" on="1"/>
        <pt x="245" y="463" on="1"/>
        <pt x="196" y="237" on="1"/>
        <pt x="359" y="237" on="1"/>
        <pt x="429" y="237" on="0"/>
        <pt x="508" y="306" on="0"/>
        <pt x="508" y="369" on="1"/>
        <pt x="508" y="416" on="0"/>
        <pt x="447" y="463" on="0"/>
      </contour>
    </TTGlyph>
    <TTGlyph name="U" xMin="73" yMin="-10" xMax="739" yMax="700">
      <contour>
        <pt x="650" y="282" on="1"/>
        <pt x="621" y="144" on="0"/>
        <pt x="453" y="-10" on="0"/>
        <pt x="331" y="-10" on="1"/>
        <pt x="260" y="-10" on="0"/>
        <pt x="153" y="38" on="0"/>
        <pt x="88" y="125" on="0"/>
        <pt x="67" y="246" on="0"/>
        <pt x="82" y="318" on="1"/>
        <pt x="163" y="700" on="1"/>
        <pt x="281" y="700" on="1"/>
        <pt x="198" y="308" on="1"/>
        <pt x="178" y="215" on="0"/>
        <pt x="256" y="98" on="0"/>
        <pt x="338" y="98" on="1"/>
        <pt x="410" y="98" on="0"/>
        <pt x="516" y="201" on="0"/>
        <pt x="535" y="291" on="1"/>
        <pt x="622" y="700" on="1"/>
        <pt x="739" y="700" on="1"/>
      </contour>
    </TTGlyph>
    <TTGlyph name="Uacute" xMin="73" yMin="-10" xMax="739" yMax="923">
      <component glyphName="U" x="0" y="0" flags="0x204"/>
      <component glyphName="acute" x="165" y="199" flags="0x4"/>
    </TTGlyph>
    <TTGlyph name="Ubreve" xMin="73" yMin="-10" xMax="739" yMax="942">
      <component glyphName="U" x="0" y="0" flags="0x204"/>
      <component glyphName="breve" x="132" y="199" flags="0x4"/>
    </TTGlyph>
    <TTGlyph name="Ucircumflex" xMin="73" yMin="-10" xMax="739" yMax="925">
      <component glyphName="U" x="0" y="0" flags="0x204"/>
      <component glyphName="circumflex" x="131" y="199" flags="0x4"/>
    </TTGlyph>
    <TTGlyph name="Udieresis" xMin="73" yMin="-10" xMax="739" yMax="926">
      <component glyphName="U" x="0" y="0" flags="0x204"/>
      <component glyphName="dieresis" x="107" y="199" flags="0x4"/>
    </TTGlyph>
    <TTGlyph name="Ugrave" xMin="73" yMin="-10" xMax="739" yMax="923">
      <component glyphName="U" x="0" y="0" flags="0x204"/>
      <component glyphName="grave" x="121" y="199" flags="0x4"/>
    </TTGlyph>
    <TTGlyph name="Uhungarumlaut" xMin="73" yMin="-10" xMax="761" yMax="923">
      <component glyphName="U" x="0" y="0" flags="0x204"/>
      <component glyphName="hungarumlaut" x="141" y="199" flags="0x4"/>
    </TTGlyph>
    <TTGlyph name="Umacron" xMin="73" yMin="-10" xMax="739" yMax="891">
      <component glyphName="U" x="0" y="0" flags="0x204"/>
      <component glyphName="macron" x="132" y="199" flags="0x4"/>
    </TTGlyph>
    <TTGlyph name="Uogonek" xMin="73" yMin="-231" xMax="739" yMax="700">
      <contour>
        <pt x="650" y="282" on="1"/>
        <pt x="625" y="164" on="0"/>
        <pt x="495" y="16" on="0"/>
        <pt x="400" y="-3" on="1"/>
        <pt x="343" y="-34" on="0"/>
        <pt x="287" y="-96" on="0"/>
        <pt x="287" y="-127" on="1"/>
        <pt x="287" y="-146" on="0"/>
        <pt x="315" y="-170" on="0"/>
        <pt x="338" y="-170" on="1"/>
        <pt x="350" y="-170" on="0"/>
        <pt x="375" y="-164" on="0"/>
        <pt x="384" y="-160" on="1"/>
        <pt x="388" y="-213" on="1"/>
        <pt x="372" y="-222" on="0"/>
        <pt x="331" y="-231" on="0"/>
        <pt x="309" y="-231" on="1"/>
        <pt x="268" y="-231" on="0"/>
        <pt x="217" y="-189" on="0"/>
        <pt x="217" y="-153" on="1"/>
        <pt x="217" y="-115" on="0"/>
        <pt x="269" y="-44" on="0"/>
        <pt x="320" y="-10" on="1"/>
        <pt x="252" y="-8" on="0"/>
        <pt x="149" y="42" on="0"/>
        <pt x="87" y="128" on="0"/>
        <pt x="67" y="247" on="0"/>
        <pt x="82" y="318" on="1"/>
        <pt x="163" y="700" on="1"/>
        <pt x="281" y="700" on="1"/>
        <pt x="198" y="308" on="1"/>
        <pt x="178" y="215" on="0"/>
        <pt x="256" y="98" on="0"/>
        <pt x="338" y="98" on="1"/>
        <pt x="410" y="98" on="0"/>
        <pt x="516" y="201" on="0"/>
        <pt x="535" y="291" on="1"/>
        <pt x="622" y="700" on="1"/>
        <pt x="739" y="700" on="1"/>
      </contour>
    </TTGlyph>
    <TTGlyph name="Uring" xMin="73" yMin="-10" xMax="739" yMax="1011">
      <component glyphName="U" x="0" y="0" flags="0x204"/>
      <component glyphName="ring" x="132" y="199" flags="0x4"/>
    </TTGlyph>
    <TTGlyph name="Utilde" xMin="73" yMin="-10" xMax="739" yMax="924">
      <component glyphName="U" x="0" y="0" flags="0x204"/>
      <component glyphName="tilde" x="136" y="199" flags="0x4"/>
    </TTGlyph>
    <TTGlyph name="V" xMin="100" yMin="0" xMax="772" yMax="700">
      <contour>
        <pt x="221" y="0" on="1"/>
        <pt x="100" y="700" on="1"/>
        <pt x="221" y="700" on="1"/>
        <pt x="312" y="119" on="1"/>
        <pt x="644" y="700" on="1"/>
        <pt x="772" y="700" on="1"/>
        <pt x="358" y="0" on="1"/>
      </contour>
    </TTGlyph>
    <TTGlyph name="W" xMin="130" yMin="0" xMax="976" yMax="700">
      <contour>
        <pt x="254" y="0" on="1"/>
        <pt x="132" y="0" on="1"/>
        <pt x="130" y="700" on="1"/>
        <pt x="246" y="700" on="1"/>
        <pt x="239" y="185" on="1"/>
        <pt x="495" y="700" on="1"/>
        <pt x="607" y="700" on="1"/>
        <pt x="645" y="187" on="1"/>
        <pt x="856" y="700" on="1"/>
        <pt x="976" y="700" on="1"/>
        <pt x="677" y="0" on="1"/>
        <pt x="554" y="0" on="1"/>
        <pt x="516" y="531" on="1"/>
      </contour>
    </TTGlyph>
    <TTGlyph name="Wacute" xMin="130" yMin="0" xMax="976" yMax="923">
      <component glyphName="W" x="0" y="0" flags="0x204"/>
      <component glyphName="acute" x="271" y="199" flags="0x4"/>
    </TTGlyph>
    <TTGlyph name="Wcircumflex" xMin="130" yMin="0" xMax="976" yMax="925">
      <component glyphName="W" x="0" y="0" flags="0x204"/>
      <component glyphName="circumflex" x="239" y="199" flags="0x4"/>
    </TTGlyph>
    <TTGlyph name="Wdieresis" xMin="130" yMin="0" xMax="976" yMax="926">
      <component glyphName="W" x="0" y="0" flags="0x204"/>
      <component glyphName="dieresis" x="215" y="199" flags="0x4"/>
    </TTGlyph>
    <TTGlyph name="Wgrave" xMin="130" yMin="0" xMax="976" yMax="923">
      <component glyphName="W" x="0" y="0" flags="0x204"/>
      <component glyphName="grave" x="228" y="199" flags="0x4"/>
    </TTGlyph>
    <TTGlyph name="X" xMin="-46" yMin="0" xMax="757" yMax="700">
      <contour>
        <pt x="99" y="0" on="1"/>
        <pt x="-46" y="0" on="1"/>
        <pt x="299" y="365" on="1"/>
        <pt x="123" y="700" on="1"/>
        <pt x="256" y="700" on="1"/>
        <pt x="383" y="451" on="1"/>
        <pt x="613" y="700" on="1"/>
        <pt x="757" y="700" on="1"/>
        <pt x="432" y="356" on="1"/>
        <pt x="619" y="0" on="1"/>
        <pt x="487" y="0" on="1"/>
        <pt x="349" y="271" on="1"/>
      </contour>
    </TTGlyph>
    <TTGlyph name="Y" xMin="100" yMin="0" xMax="763" yMax="700">
      <contour>
        <pt x="223" y="0" on="1"/>
        <pt x="281" y="277" on="1"/>
        <pt x="100" y="700" on="1"/>
        <pt x="225" y="700" on="1"/>
        <pt x="358" y="380" on="1"/>
        <pt x="624" y="700" on="1"/>
        <pt x="763" y="700" on="1"/>
        <pt x="398" y="274" on="1"/>
        <pt x="341" y="0" on="1"/>
      </contour>
    </TTGlyph>
    <TTGlyph name="Yacute" xMin="100" yMin="0" xMax="763" yMax="923">
      <component glyphName="Y" x="0" y="0" flags="0x204"/>
      <component glyphName="acute" x="140" y="199" flags="0x4"/>
    </TTGlyph>
    <TTGlyph name="Ycircumflex" xMin="100" yMin="0" xMax="763" yMax="925">
      <component glyphName="Y" x="0" y="0" flags="0x204"/>
      <component glyphName="circumflex" x="107" y="199" flags="0x4"/>
    </TTGlyph>
    <TTGlyph name="Ydieresis" xMin="100" yMin="0" xMax="763" yMax="926">
      <component glyphName="Y" x="0" y="0" flags="0x204"/>
      <component glyphName="dieresis" x="83" y="199" flags="0x4"/>
    </TTGlyph>
    <TTGlyph name="Ygrave" xMin="100" yMin="0" xMax="763" yMax="923">
      <component glyphName="Y" x="0" y="0" flags="0x204"/>
      <component glyphName="grave" x="97" y="199" flags="0x4"/>
    </TTGlyph>
    <TTGlyph name="Z" xMin="-21" yMin="0" xMax="661" yMax="700">
      <contour>
        <pt x="-21" y="0" on="1"/>
        <pt x="-4" y="80" on="1"/>
        <pt x="482" y="601" on="1"/>
        <pt x="107" y="598" on="1"/>
        <pt x="130" y="700" on="1"/>
        <pt x="661" y="700" on="1"/>
        <pt x="643" y="620" on="1"/>
        <pt x="157" y="99" on="1"/>
        <pt x="540" y="102" on="1"/>
        <pt x="518" y="0" on="1"/>
      </contour>
    </TTGlyph>
    <TTGlyph name="Zacute" xMin="-21" yMin="0" xMax="661" yMax="923">
      <component glyphName="Z" x="0" y="0" flags="0x204"/>
      <component glyphName="acute" x="94" y="199" flags="0x4"/>
    </TTGlyph>
    <TTGlyph name="Zcaron" xMin="-21" yMin="0" xMax="661" yMax="929">
      <component glyphName="Z" x="0" y="0" flags="0x204"/>
      <component glyphName="caron" x="62" y="199" flags="0x4"/>
    </TTGlyph>
    <TTGlyph name="Zdotaccent" xMin="-21" yMin="0" xMax="661" yMax="930">
      <component glyphName="Z" x="0" y="0" flags="0x204"/>
      <component glyphName="dotaccent" x="170" y="199" flags="0x4"/>
    </TTGlyph>
    <TTGlyph name="a" xMin="24" yMin="-6" xMax="495" yMax="508">
      <contour>
        <pt x="185" y="-6" on="1"/>
        <pt x="112" y="-6" on="0"/>
        <pt x="24" y="69" on="0"/>
        <pt x="24" y="132" on="1"/>
        <pt x="24" y="205" on="0"/>
        <pt x="131" y="293" on="0"/>
        <pt x="221" y="293" on="1"/>
        <pt x="261" y="293" on="0"/>
        <pt x="338" y="274" on="0"/>
        <pt x="369" y="258" on="1"/>
        <pt x="378" y="300" on="1"/>
        <pt x="391" y="357" on="0"/>
        <pt x="337" y="415" on="0"/>
        <pt x="271" y="415" on="1"/>
        <pt x="243" y="415" on="0"/>
        <pt x="178" y="400" on="0"/>
        <pt x="135" y="384" on="1"/>
        <pt x="108" y="467" on="1"/>
        <pt x="162" y="487" on="0"/>
        <pt x="255" y="508" on="0"/>
        <pt x="298" y="508" on="1"/>
        <pt x="407" y="508" on="0"/>
        <pt x="509" y="398" on="0"/>
        <pt x="489" y="304" on="1"/>
        <pt x="422" y="0" on="1"/>
        <pt x="312" y="0" on="1"/>
        <pt x="322" y="45" on="1"/>
        <pt x="286" y="18" on="0"/>
        <pt x="220" y="-6" on="0"/>
      </contour>
      <contour>
        <pt x="128" y="142" on="1"/>
        <pt x="128" y="109" on="0"/>
        <pt x="179" y="73" on="0"/>
        <pt x="225" y="73" on="1"/>
        <pt x="255" y="73" on="0"/>
        <pt x="310" y="90" on="0"/>
        <pt x="336" y="109" on="1"/>
        <pt x="355" y="194" on="1"/>
        <pt x="331" y="207" on="0"/>
        <pt x="270" y="220" on="0"/>
        <pt x="235" y="220" on="1"/>
        <pt x="186" y="220" on="0"/>
        <pt x="128" y="177" on="0"/>
      </contour>
    </TTGlyph>
    <TTGlyph name="a.school" xMin="46" yMin="-5" xMax="583" yMax="505">
      <contour>
        <pt x="364" y="0" on="1"/>
        <pt x="375" y="48" on="1"/>
        <pt x="348" y="23" on="0"/>
        <pt x="279" y="-5" on="0"/>
        <pt x="241" y="-5" on="1"/>
        <pt x="200" y="-5" on="0"/>
        <pt x="128" y="30" on="0"/>
        <pt x="76" y="91" on="0"/>
        <pt x="46" y="175" on="0"/>
        <pt x="46" y="223" on="1"/>
        <pt x="46" y="281" on="0"/>
        <pt x="87" y="384" on="0"/>
        <pt x="156" y="460" on="0"/>
        <pt x="249" y="505" on="0"/>
        <pt x="302" y="505" on="1"/>
        <pt x="351" y="505" on="0"/>
        <pt x="430" y="463" on="0"/>
        <pt x="455" y="425" on="1"/>
        <pt x="472" y="501" on="1"/>
        <pt x="583" y="501" on="1"/>
        <pt x="474" y="0" on="1"/>
      </contour>
      <contour>
        <pt x="156" y="232" on="1"/>
        <pt x="156" y="169" on="0"/>
        <pt x="229" y="89" on="0"/>
        <pt x="286" y="89" on="1"/>
        <pt x="315" y="89" on="0"/>
        <pt x="369" y="110" on="0"/>
        <pt x="391" y="131" on="1"/>
        <pt x="439" y="349" on="1"/>
        <pt x="420" y="377" on="0"/>
        <pt x="356" y="409" on="0"/>
        <pt x="319" y="409" on="1"/>
        <pt x="250" y="409" on="0"/>
        <pt x="156" y="307" on="0"/>
      </contour>
    </TTGlyph>
    <TTGlyph name="aacute" xMin="24" yMin="-6" xMax="541" yMax="724">
      <component glyphName="a" x="0" y="0" flags="0x204"/>
      <component glyphName="acute" x="20" y="0" flags="0x4"/>
    </TTGlyph>
    <TTGlyph name="aacute.school" xMin="46" yMin="-5" xMax="583" yMax="724">
      <component glyphName="a.school" x="0" y="0" flags="0x204"/>
      <component glyphName="acute" x="55" y="0" flags="0x4"/>
    </TTGlyph>
    <TTGlyph name="abreve" xMin="24" yMin="-6" xMax="508" yMax="743">
      <component glyphName="a" x="0" y="0" flags="0x204"/>
      <component glyphName="breve" x="-13" y="0" flags="0x4"/>
    </TTGlyph>
    <TTGlyph name="abreve.school" xMin="46" yMin="-5" xMax="583" yMax="743">
      <component glyphName="a.school" x="0" y="0" flags="0x204"/>
      <component glyphName="breve" x="22" y="0" flags="0x4"/>
    </TTGlyph>
    <TTGlyph name="acircumflex" xMin="24" yMin="-6" xMax="495" yMax="726">
      <component glyphName="a" x="0" y="0" flags="0x204"/>
      <component glyphName="circumflex" x="-13" y="0" flags="0x4"/>
    </TTGlyph>
    <TTGlyph name="acircumflex.school" xMin="46" yMin="-5" xMax="583" yMax="726">
      <component glyphName="a.school" x="0" y="0" flags="0x204"/>
      <component glyphName="circumflex" x="22" y="0" flags="0x4"/>
    </TTGlyph>
    <TTGlyph name="acute" xMin="229" yMin="591" xMax="521" yMax="724">
      <contour>
        <pt x="378" y="724" on="1"/>
        <pt x="521" y="724" on="1"/>
        <pt x="332" y="591" on="1"/>
        <pt x="229" y="591" on="1"/>
      </contour>
    </TTGlyph>
    <TTGlyph name="adieresis" xMin="24" yMin="-6" xMax="495" yMax="727">
      <component glyphName="a" x="0" y="0" flags="0x204"/>
      <component glyphName="dieresis" x="-37" y="0" flags="0x4"/>
    </TTGlyph>
    <TTGlyph name="adieresis.school" xMin="46" yMin="-5" xMax="583" yMax="727">
      <component glyphName="a.school" x="0" y="0" flags="0x204"/>
      <component glyphName="dieresis" x="-2" y="0" flags="0x4"/>
    </TTGlyph>
    <TTGlyph name="ae" xMin="34" yMin="-10" xMax="828" yMax="508">
      <contour>
        <pt x="201" y="-6" on="1"/>
        <pt x="126" y="-6" on="0"/>
        <pt x="34" y="70" on="0"/>
        <pt x="34" y="133" on="1"/>
        <pt x="34" y="205" on="0"/>
        <pt x="140" y="293" on="0"/>
        <pt x="227" y="293" on="1"/>
        <pt x="262" y="293" on="0"/>
        <pt x="330" y="280" on="0"/>
        <pt x="358" y="267" on="1"/>
        <pt x="359" y="274" on="0"/>
        <pt x="362" y="290" on="0"/>
        <pt x="364" y="297" on="1"/>
        <pt x="365" y="305" on="1"/>
        <pt x="376" y="359" on="0"/>
        <pt x="322" y="415" on="0"/>
        <pt x="259" y="415" on="1"/>
        <pt x="232" y="415" on="0"/>
        <pt x="168" y="400" on="0"/>
        <pt x="125" y="384" on="1"/>
        <pt x="98" y="467" on="1"/>
        <pt x="153" y="488" on="0"/>
        <pt x="246" y="508" on="0"/>
        <pt x="289" y="508" on="1"/>
        <pt x="345" y="508" on="0"/>
        <pt x="424" y="470" on="0"/>
        <pt x="444" y="436" on="1"/>
        <pt x="480" y="471" on="0"/>
        <pt x="570" y="508" on="0"/>
        <pt x="619" y="508" on="1"/>
        <pt x="711" y="508" on="0"/>
        <pt x="828" y="384" on="0"/>
        <pt x="828" y="286" on="1"/>
        <pt x="828" y="268" on="0"/>
        <pt x="825" y="238" on="0"/>
        <pt x="823" y="223" on="1"/>
        <pt x="462" y="223" on="1"/>
        <pt x="463" y="163" on="0"/>
        <pt x="541" y="84" on="0"/>
        <pt x="599" y="84" on="1"/>
        <pt x="632" y="84" on="0"/>
        <pt x="692" y="105" on="0"/>
        <pt x="714" y="125" on="1"/>
        <pt x="774" y="51" on="1"/>
        <pt x="728" y="19" on="0"/>
        <pt x="640" y="-10" on="0"/>
        <pt x="590" y="-10" on="1"/>
        <pt x="531" y="-10" on="0"/>
        <pt x="434" y="35" on="0"/>
        <pt x="403" y="74" on="1"/>
        <pt x="355" y="33" on="0"/>
        <pt x="257" y="-6" on="0"/>
      </contour>
      <contour>
        <pt x="612" y="415" on="1"/>
        <pt x="562" y="415" on="0"/>
        <pt x="486" y="346" on="0"/>
        <pt x="471" y="292" on="1"/>
        <pt x="727" y="292" on="1"/>
        <pt x="724" y="346" on="0"/>
        <pt x="660" y="415" on="0"/>
      </contour>
      <contour>
        <pt x="135" y="142" on="1"/>
        <pt x="135" y="109" on="0"/>
        <pt x="187" y="73" on="0"/>
        <pt x="233" y="73" on="1"/>
        <pt x="270" y="73" on="0"/>
        <pt x="340" y="101" on="0"/>
        <pt x="372" y="128" on="1"/>
        <pt x="365" y="144" on="0"/>
        <pt x="356" y="178" on="0"/>
        <pt x="355" y="197" on="1"/>
        <pt x="331" y="209" on="0"/>
        <pt x="274" y="220" on="0"/>
        <pt x="241" y="220" on="1"/>
        <pt x="193" y="220" on="0"/>
        <pt x="135" y="177" on="0"/>
      </contour>
    </TTGlyph>
    <TTGlyph name="agrave" xMin="24" yMin="-6" xMax="495" yMax="724">
      <component glyphName="a" x="0" y="0" flags="0x204"/>
      <component glyphName="grave" x="-23" y="0" flags="0x4"/>
    </TTGlyph>
    <TTGlyph name="agrave.school" xMin="46" yMin="-5" xMax="583" yMax="724">
      <component glyphName="a.school" x="0" y="0" flags="0x204"/>
      <component glyphName="grave" x="12" y="0" flags="0x4"/>
    </TTGlyph>
    <TTGlyph name="amacron" xMin="24" yMin="-6" xMax="495" yMax="692">
      <component glyphName="a" x="0" y="0" flags="0x204"/>
      <component glyphName="macron" x="-13" y="0" flags="0x4"/>
    </TTGlyph>
    <TTGlyph name="amacron.school" xMin="46" yMin="-5" xMax="583" yMax="692">
      <component glyphName="a.school" x="0" y="0" flags="0x204"/>
      <component glyphName="macron" x="22" y="0" flags="0x4"/>
    </TTGlyph>
    <TTGlyph name="ampersand" xMin="18" yMin="-13" xMax="652" yMax="709">
      <contour>
        <pt x="612" y="65" on="1"/>
        <pt x="537" y="-13" on="1"/>
        <pt x="517" y="3" on="0"/>
        <pt x="476" y="41" on="0"/>
        <pt x="455" y="61" on="1"/>
        <pt x="409" y="26" on="0"/>
        <pt x="303" y="-10" on="0"/>
        <pt x="246" y="-10" on="1"/>
        <pt x="143" y="-10" on="0"/>
        <pt x="18" y="90" on="0"/>
        <pt x="18" y="172" on="1"/>
        <pt x="18" y="241" on="0"/>
        <pt x="101" y="345" on="0"/>
        <pt x="189" y="386" on="1"/>
        <pt x="203" y="392" on="1"/>
        <pt x="186" y="425" on="0"/>
        <pt x="170" y="484" on="0"/>
        <pt x="170" y="515" on="1"/>
        <pt x="170" y="599" on="0"/>
        <pt x="284" y="709" on="0"/>
        <pt x="371" y="709" on="1"/>
        <pt x="443" y="709" on="0"/>
        <pt x="534" y="631" on="0"/>
        <pt x="534" y="570" on="1"/>
        <pt x="534" y="516" on="0"/>
        <pt x="466" y="428" on="0"/>
        <pt x="397" y="394" on="1"/>
        <pt x="341" y="366" on="1"/>
        <pt x="367" y="326" on="0"/>
        <pt x="432" y="244" on="0"/>
        <pt x="467" y="205" on="1"/>
        <pt x="492" y="237" on="0"/>
        <pt x="538" y="317" on="0"/>
        <pt x="558" y="365" on="1"/>
        <pt x="652" y="341" on="1"/>
        <pt x="625" y="278" on="0"/>
        <pt x="565" y="178" on="0"/>
        <pt x="531" y="139" on="1"/>
        <pt x="551" y="119" on="0"/>
        <pt x="593" y="81" on="0"/>
      </contour>
      <contour>
        <pt x="273" y="528" on="1"/>
        <pt x="273" y="506" on="0"/>
        <pt x="286" y="463" on="0"/>
        <pt x="301" y="436" on="1"/>
        <pt x="353" y="461" on="1"/>
        <pt x="392" y="480" on="0"/>
        <pt x="431" y="529" on="0"/>
        <pt x="431" y="558" on="1"/>
        <pt x="431" y="587" on="0"/>
        <pt x="393" y="623" on="0"/>
        <pt x="361" y="623" on="1"/>
        <pt x="322" y="623" on="0"/>
        <pt x="273" y="570" on="0"/>
      </contour>
      <contour>
        <pt x="124" y="188" on="1"/>
        <pt x="124" y="139" on="0"/>
        <pt x="198" y="81" on="0"/>
        <pt x="258" y="81" on="1"/>
        <pt x="294" y="81" on="0"/>
        <pt x="361" y="104" on="0"/>
        <pt x="394" y="126" on="1"/>
        <pt x="353" y="172" on="0"/>
        <pt x="276" y="272" on="0"/>
        <pt x="244" y="321" on="1"/>
        <pt x="233" y="316" on="1"/>
        <pt x="177" y="290" on="0"/>
        <pt x="124" y="227" on="0"/>
      </contour>
    </TTGlyph>
    <TTGlyph name="aogonek" xMin="24" yMin="-231" xMax="495" yMax="508">
      <contour>
        <pt x="185" y="-6" on="1"/>
        <pt x="112" y="-6" on="0"/>
        <pt x="24" y="69" on="0"/>
        <pt x="24" y="132" on="1"/>
        <pt x="24" y="205" on="0"/>
        <pt x="131" y="293" on="0"/>
        <pt x="221" y="293" on="1"/>
        <pt x="261" y="293" on="0"/>
        <pt x="338" y="274" on="0"/>
        <pt x="369" y="258" on="1"/>
        <pt x="378" y="300" on="1"/>
        <pt x="391" y="357" on="0"/>
        <pt x="337" y="415" on="0"/>
        <pt x="271" y="415" on="1"/>
        <pt x="243" y="415" on="0"/>
        <pt x="178" y="400" on="0"/>
        <pt x="135" y="384" on="1"/>
        <pt x="108" y="467" on="1"/>
        <pt x="162" y="487" on="0"/>
        <pt x="255" y="508" on="0"/>
        <pt x="298" y="508" on="1"/>
        <pt x="407" y="508" on="0"/>
        <pt x="509" y="398" on="0"/>
        <pt x="489" y="304" on="1"/>
        <pt x="422" y="0" on="1"/>
        <pt x="362" y="-32" on="0"/>
        <pt x="303" y="-96" on="0"/>
        <pt x="303" y="-127" on="1"/>
        <pt x="303" y="-146" on="0"/>
        <pt x="331" y="-170" on="0"/>
        <pt x="354" y="-170" on="1"/>
        <pt x="366" y="-170" on="0"/>
        <pt x="391" y="-164" on="0"/>
        <pt x="400" y="-160" on="1"/>
        <pt x="404" y="-213" on="1"/>
        <pt x="388" y="-222" on="0"/>
        <pt x="347" y="-231" on="0"/>
        <pt x="325" y="-231" on="1"/>
        <pt x="284" y="-231" on="0"/>
        <pt x="233" y="-189" on="0"/>
        <pt x="233" y="-153" on="1"/>
        <pt x="233" y="-112" on="0"/>
        <pt x="292" y="-36" on="0"/>
        <pt x="352" y="0" on="1"/>
        <pt x="312" y="0" on="1"/>
        <pt x="322" y="45" on="1"/>
        <pt x="286" y="18" on="0"/>
        <pt x="220" y="-6" on="0"/>
      </contour>
      <contour>
        <pt x="128" y="142" on="1"/>
        <pt x="128" y="109" on="0"/>
        <pt x="179" y="73" on="0"/>
        <pt x="225" y="73" on="1"/>
        <pt x="255" y="73" on="0"/>
        <pt x="310" y="90" on="0"/>
        <pt x="336" y="109" on="1"/>
        <pt x="355" y="194" on="1"/>
        <pt x="331" y="207" on="0"/>
        <pt x="270" y="220" on="0"/>
        <pt x="235" y="220" on="1"/>
        <pt x="186" y="220" on="0"/>
        <pt x="128" y="177" on="0"/>
      </contour>
    </TTGlyph>
    <TTGlyph name="aogonek.school" xMin="46" yMin="-231" xMax="583" yMax="505">
      <contour>
        <pt x="364" y="0" on="1"/>
        <pt x="375" y="48" on="1"/>
        <pt x="348" y="23" on="0"/>
        <pt x="279" y="-5" on="0"/>
        <pt x="241" y="-5" on="1"/>
        <pt x="200" y="-5" on="0"/>
        <pt x="128" y="30" on="0"/>
        <pt x="76" y="91" on="0"/>
        <pt x="46" y="175" on="0"/>
        <pt x="46" y="223" on="1"/>
        <pt x="46" y="281" on="0"/>
        <pt x="87" y="384" on="0"/>
        <pt x="156" y="460" on="0"/>
        <pt x="249" y="505" on="0"/>
        <pt x="302" y="505" on="1"/>
        <pt x="351" y="505" on="0"/>
        <pt x="430" y="463" on="0"/>
        <pt x="455" y="425" on="1"/>
        <pt x="472" y="501" on="1"/>
        <pt x="583" y="501" on="1"/>
        <pt x="474" y="0" on="1"/>
        <pt x="414" y="-32" on="0"/>
        <pt x="355" y="-96" on="0"/>
        <pt x="355" y="-127" on="1"/>
        <pt x="355" y="-146" on="0"/>
        <pt x="383" y="-170" on="0"/>
        <pt x="406" y="-170" on="1"/>
        <pt x="418" y="-170" on="0"/>
        <pt x="443" y="-164" on="0"/>
        <pt x="452" y="-160" on="1"/>
        <pt x="456" y="-213" on="1"/>
        <pt x="440" y="-222" on="0"/>
        <pt x="399" y="-231" on="0"/>
        <pt x="377" y="-231" on="1"/>
        <pt x="336" y="-231" on="0"/>
        <pt x="285" y="-189" on="0"/>
        <pt x="285" y="-153" on="1"/>
        <pt x="285" y="-112" on="0"/>
        <pt x="344" y="-36" on="0"/>
        <pt x="404" y="0" on="1"/>
      </contour>
      <contour>
        <pt x="156" y="232" on="1"/>
        <pt x="156" y="169" on="0"/>
        <pt x="229" y="89" on="0"/>
        <pt x="286" y="89" on="1"/>
        <pt x="315" y="89" on="0"/>
        <pt x="369" y="110" on="0"/>
        <pt x="391" y="131" on="1"/>
        <pt x="439" y="349" on="1"/>
        <pt x="420" y="377" on="0"/>
        <pt x="356" y="409" on="0"/>
        <pt x="319" y="409" on="1"/>
        <pt x="250" y="409" on="0"/>
        <pt x="156" y="307" on="0"/>
      </contour>
    </TTGlyph>
    <TTGlyph name="aring" xMin="24" yMin="-6" xMax="495" yMax="812">
      <component glyphName="a" x="0" y="0" flags="0x204"/>
      <component glyphName="ring" x="-13" y="0" flags="0x4"/>
    </TTGlyph>
    <TTGlyph name="aring.school" xMin="46" yMin="-5" xMax="583" yMax="812">
      <component glyphName="a.school" x="0" y="0" flags="0x204"/>
      <component glyphName="ring" x="22" y="0" flags="0x4"/>
    </TTGlyph>
    <TTGlyph name="asciicircum" xMin="70" yMin="350" xMax="507" yMax="700">
      <contour>
        <pt x="70" y="350" on="1"/>
        <pt x="317" y="700" on="1"/>
        <pt x="409" y="700" on="1"/>
        <pt x="507" y="350" on="1"/>
        <pt x="419" y="350" on="1"/>
        <pt x="347" y="611" on="1"/>
        <pt x="164" y="350" on="1"/>
      </contour>
    </TTGlyph>
    <TTGlyph name="asciitilde" xMin="63" yMin="279" xMax="580" yMax="467">
      <contour>
        <pt x="307" y="432" on="1"/>
        <pt x="373" y="390" on="1"/>
        <pt x="393" y="377" on="0"/>
        <pt x="419" y="367" on="0"/>
        <pt x="431" y="367" on="1"/>
        <pt x="454" y="367" on="0"/>
        <pt x="491" y="405" on="0"/>
        <pt x="504" y="443" on="1"/>
        <pt x="580" y="425" on="1"/>
        <pt x="557" y="355" on="0"/>
        <pt x="481" y="279" on="0"/>
        <pt x="433" y="279" on="1"/>
        <pt x="411" y="279" on="0"/>
        <pt x="365" y="295" on="0"/>
        <pt x="336" y="313" on="1"/>
        <pt x="270" y="356" on="1"/>
        <pt x="249" y="369" on="0"/>
        <pt x="224" y="378" on="0"/>
        <pt x="212" y="378" on="1"/>
        <pt x="188" y="378" on="0"/>
        <pt x="152" y="340" on="0"/>
        <pt x="139" y="303" on="1"/>
        <pt x="63" y="320" on="1"/>
        <pt x="86" y="390" on="0"/>
        <pt x="162" y="467" on="0"/>
        <pt x="209" y="467" on="1"/>
        <pt x="230" y="467" on="0"/>
        <pt x="277" y="450" on="0"/>
      </contour>
    </TTGlyph>
    <TTGlyph name="asterisk" xMin="99" yMin="326" xMax="475" yMax="700">
      <contour>
        <pt x="392" y="373" on="1"/>
        <pt x="306" y="448" on="1"/>
        <pt x="282" y="326" on="1"/>
        <pt x="211" y="326" on="1"/>
        <pt x="239" y="450" on="1"/>
        <pt x="125" y="390" on="1"/>
        <pt x="99" y="458" on="1"/>
        <pt x="222" y="519" on="1"/>
        <pt x="129" y="596" on="1"/>
        <pt x="179" y="654" on="1"/>
        <pt x="266" y="579" on="1"/>
        <pt x="290" y="700" on="1"/>
        <pt x="360" y="700" on="1"/>
        <pt x="333" y="576" on="1"/>
        <pt x="447" y="637" on="1"/>
        <pt x="475" y="570" on="1"/>
        <pt x="351" y="508" on="1"/>
        <pt x="444" y="433" on="1"/>
      </contour>
    </TTGlyph>
    <TTGlyph name="at" xMin="47" yMin="-144" xMax="712" yMax="579">
      <contour>
        <pt x="342" y="49" on="1"/>
        <pt x="284" y="49" on="0"/>
        <pt x="204" y="138" on="0"/>
        <pt x="204" y="203" on="1"/>
        <pt x="204" y="240" on="0"/>
        <pt x="230" y="306" on="0"/>
        <pt x="275" y="355" on="0"/>
        <pt x="336" y="383" on="0"/>
        <pt x="370" y="383" on="1"/>
        <pt x="396" y="383" on="0"/>
        <pt x="443" y="364" on="0"/>
        <pt x="461" y="348" on="1"/>
        <pt x="465" y="370" on="1"/>
        <pt x="540" y="370" on="1"/>
        <pt x="501" y="171" on="1"/>
        <pt x="494" y="140" on="0"/>
        <pt x="518" y="108" on="0"/>
        <pt x="546" y="108" on="1"/>
        <pt x="593" y="108" on="0"/>
        <pt x="654" y="200" on="0"/>
        <pt x="654" y="269" on="1"/>
        <pt x="654" y="324" on="0"/>
        <pt x="613" y="418" on="0"/>
        <pt x="543" y="487" on="0"/>
        <pt x="445" y="526" on="0"/>
        <pt x="389" y="526" on="1"/>
        <pt x="329" y="526" on="0"/>
        <pt x="225" y="477" on="0"/>
        <pt x="148" y="393" on="0"/>
        <pt x="104" y="277" on="0"/>
        <pt x="104" y="211" on="1"/>
        <pt x="104" y="146" on="0"/>
        <pt x="147" y="36" on="0"/>
        <pt x="224" y="-43" on="0"/>
        <pt x="332" y="-88" on="0"/>
        <pt x="395" y="-88" on="1"/>
        <pt x="438" y="-88" on="0"/>
        <pt x="519" y="-68" on="0"/>
        <pt x="554" y="-49" on="1"/>
        <pt x="575" y="-100" on="1"/>
        <pt x="532" y="-122" on="0"/>
        <pt x="442" y="-144" on="0"/>
        <pt x="394" y="-144" on="1"/>
        <pt x="319" y="-144" on="0"/>
        <pt x="192" y="-91" on="0"/>
        <pt x="99" y="2" on="0"/>
        <pt x="47" y="132" on="0"/>
        <pt x="47" y="207" on="1"/>
        <pt x="47" y="287" on="0"/>
        <pt x="99" y="424" on="0"/>
        <pt x="191" y="523" on="0"/>
        <pt x="318" y="579" on="0"/>
        <pt x="392" y="579" on="1"/>
        <pt x="460" y="579" on="0"/>
        <pt x="577" y="532" on="0"/>
        <pt x="663" y="450" on="0"/>
        <pt x="712" y="338" on="0"/>
        <pt x="712" y="273" on="1"/>
        <pt x="712" y="225" on="0"/>
        <pt x="686" y="143" on="0"/>
        <pt x="639" y="84" on="0"/>
        <pt x="575" y="51" on="0"/>
        <pt x="537" y="51" on="1"/>
        <pt x="503" y="51" on="0"/>
        <pt x="455" y="72" on="0"/>
        <pt x="442" y="91" on="1"/>
        <pt x="419" y="71" on="0"/>
        <pt x="368" y="49" on="0"/>
      </contour>
      <contour>
        <pt x="276" y="209" on="1"/>
        <pt x="276" y="166" on="0"/>
        <pt x="323" y="113" on="0"/>
        <pt x="359" y="113" on="1"/>
        <pt x="377" y="113" on="0"/>
        <pt x="412" y="128" on="0"/>
        <pt x="426" y="142" on="1"/>
        <pt x="425" y="150" on="0"/>
        <pt x="427" y="170" on="0"/>
        <pt x="429" y="180" on="1"/>
        <pt x="448" y="278" on="1"/>
        <pt x="435" y="297" on="0"/>
        <pt x="396" y="317" on="0"/>
        <pt x="371" y="317" on="1"/>
        <pt x="333" y="317" on="0"/>
        <pt x="276" y="253" on="0"/>
      </contour>
    </TTGlyph>
    <TTGlyph name="at.cap" xMin="75" yMin="-12" xMax="740" yMax="711">
      <component glyphName="at" x="28" y="132" flags="0x4"/>
    </TTGlyph>
    <TTGlyph name="atilde" xMin="24" yMin="-6" xMax="521" yMax="725">
      <component glyphName="a" x="0" y="0" flags="0x204"/>
      <component glyphName="tilde" x="-9" y="0" flags="0x4"/>
    </TTGlyph>
    <TTGlyph name="atilde.school" xMin="46" yMin="-5" xMax="583" yMax="725">
      <component glyphName="a.school" x="0" y="0" flags="0x204"/>
      <component glyphName="tilde" x="26" y="0" flags="0x4"/>
    </TTGlyph>
    <TTGlyph name="b" xMin="14" yMin="-6" xMax="552" yMax="734">
      <contour>
        <pt x="552" y="277" on="1"/>
        <pt x="552" y="219" on="0"/>
        <pt x="511" y="115" on="0"/>
        <pt x="442" y="39" on="0"/>
        <pt x="349" y="-6" on="0"/>
        <pt x="296" y="-6" on="1"/>
        <pt x="245" y="-6" on="0"/>
        <pt x="166" y="39" on="0"/>
        <pt x="142" y="81" on="1"/>
        <pt x="124" y="0" on="1"/>
        <pt x="14" y="0" on="1"/>
        <pt x="165" y="715" on="1"/>
        <pt x="279" y="734" on="1"/>
        <pt x="219" y="446" on="1"/>
        <pt x="246" y="474" on="0"/>
        <pt x="318" y="504" on="0"/>
        <pt x="358" y="504" on="1"/>
        <pt x="399" y="504" on="0"/>
        <pt x="470" y="469" on="0"/>
        <pt x="522" y="408" on="0"/>
        <pt x="552" y="325" on="0"/>
      </contour>
      <contour>
        <pt x="312" y="410" on="1"/>
        <pt x="281" y="410" on="0"/>
        <pt x="226" y="386" on="0"/>
        <pt x="202" y="363" on="1"/>
        <pt x="159" y="156" on="1"/>
        <pt x="177" y="126" on="0"/>
        <pt x="242" y="90" on="0"/>
        <pt x="279" y="90" on="1"/>
        <pt x="348" y="90" on="0"/>
        <pt x="443" y="193" on="0"/>
        <pt x="443" y="267" on="1"/>
        <pt x="443" y="330" on="0"/>
        <pt x="369" y="410" on="0"/>
      </contour>
    </TTGlyph>
    <TTGlyph name="backslash" xMin="119" yMin="-208" xMax="424" yMax="700">
      <contour>
        <pt x="424" y="-208" on="1"/>
        <pt x="319" y="-208" on="1"/>
        <pt x="119" y="700" on="1"/>
        <pt x="224" y="700" on="1"/>
      </contour>
    </TTGlyph>
    <TTGlyph name="bar" xMin="9" yMin="-210" xMax="302" yMax="700">
      <contour>
        <pt x="9" y="-210" on="1"/>
        <pt x="202" y="700" on="1"/>
        <pt x="302" y="700" on="1"/>
        <pt x="109" y="-210" on="1"/>
      </contour>
    </TTGlyph>
    <TTGlyph name="braceleft" xMin="21" yMin="-223" xMax="454" yMax="708">
      <contour>
        <pt x="235" y="75" on="1"/>
        <pt x="175" y="-25" on="1"/>
        <pt x="147" y="-72" on="0"/>
        <pt x="169" y="-135" on="0"/>
        <pt x="212" y="-136" on="1"/>
        <pt x="225" y="-137" on="0"/>
        <pt x="250" y="-133" on="0"/>
        <pt x="264" y="-129" on="1"/>
        <pt x="264" y="-213" on="1"/>
        <pt x="242" y="-219" on="0"/>
        <pt x="203" y="-224" on="0"/>
        <pt x="183" y="-223" on="1"/>
        <pt x="136" y="-222" on="0"/>
        <pt x="73" y="-187" on="0"/>
        <pt x="46" y="-129" on="0"/>
        <pt x="57" y="-53" on="0"/>
        <pt x="83" y="-10" on="1"/>
        <pt x="137" y="78" on="1"/>
        <pt x="168" y="127" on="0"/>
        <pt x="144" y="200" on="0"/>
        <pt x="97" y="200" on="1"/>
        <pt x="21" y="200" on="1"/>
        <pt x="39" y="286" on="1"/>
        <pt x="116" y="286" on="1"/>
        <pt x="163" y="286" on="0"/>
        <pt x="214" y="354" on="0"/>
        <pt x="206" y="405" on="1"/>
        <pt x="189" y="513" on="1"/>
        <pt x="182" y="555" on="0"/>
        <pt x="202" y="628" on="0"/>
        <pt x="248" y="681" on="0"/>
        <pt x="318" y="709" on="0"/>
        <pt x="361" y="708" on="1"/>
        <pt x="388" y="707" on="0"/>
        <pt x="432" y="697" on="0"/>
        <pt x="454" y="687" on="1"/>
        <pt x="419" y="605" on="1"/>
        <pt x="406" y="612" on="0"/>
        <pt x="376" y="620" on="0"/>
        <pt x="363" y="620" on="1"/>
        <pt x="320" y="621" on="0"/>
        <pt x="275" y="563" on="0"/>
        <pt x="282" y="516" on="1"/>
        <pt x="299" y="395" on="1"/>
        <pt x="306" y="338" on="0"/>
        <pt x="239" y="250" on="0"/>
        <pt x="180" y="239" on="1"/>
        <pt x="236" y="221" on="0"/>
        <pt x="268" y="129" on="0"/>
      </contour>
    </TTGlyph>
    <TTGlyph name="braceright" xMin="-47" yMin="-221" xMax="386" yMax="710">
      <contour>
        <pt x="172" y="412" on="1"/>
        <pt x="232" y="512" on="1"/>
        <pt x="260" y="559" on="0"/>
        <pt x="238" y="622" on="0"/>
        <pt x="195" y="623" on="1"/>
        <pt x="182" y="624" on="0"/>
        <pt x="157" y="620" on="0"/>
        <pt x="143" y="616" on="1"/>
        <pt x="143" y="700" on="1"/>
        <pt x="165" y="706" on="0"/>
        <pt x="204" y="711" on="0"/>
        <pt x="224" y="710" on="1"/>
        <pt x="271" y="709" on="0"/>
        <pt x="334" y="674" on="0"/>
        <pt x="361" y="616" on="0"/>
        <pt x="350" y="540" on="0"/>
        <pt x="324" y="497" on="1"/>
        <pt x="270" y="409" on="1"/>
        <pt x="239" y="360" on="0"/>
        <pt x="263" y="287" on="0"/>
        <pt x="310" y="287" on="1"/>
        <pt x="386" y="287" on="1"/>
        <pt x="368" y="201" on="1"/>
        <pt x="291" y="201" on="1"/>
        <pt x="244" y="201" on="0"/>
        <pt x="193" y="133" on="0"/>
        <pt x="201" y="82" on="1"/>
        <pt x="218" y="-26" on="1"/>
        <pt x="225" y="-68" on="0"/>
        <pt x="205" y="-141" on="0"/>
        <pt x="159" y="-194" on="0"/>
        <pt x="89" y="-222" on="0"/>
        <pt x="46" y="-221" on="1"/>
        <pt x="19" y="-220" on="0"/>
        <pt x="-25" y="-210" on="0"/>
        <pt x="-47" y="-200" on="1"/>
        <pt x="-12" y="-118" on="1"/>
        <pt x="1" y="-125" on="0"/>
        <pt x="31" y="-133" on="0"/>
        <pt x="44" y="-133" on="1"/>
        <pt x="87" y="-134" on="0"/>
        <pt x="132" y="-76" on="0"/>
        <pt x="125" y="-29" on="1"/>
        <pt x="108" y="92" on="1"/>
        <pt x="101" y="149" on="0"/>
        <pt x="168" y="237" on="0"/>
        <pt x="227" y="248" on="1"/>
        <pt x="171" y="266" on="0"/>
        <pt x="139" y="358" on="0"/>
      </contour>
    </TTGlyph>
    <TTGlyph name="bracketleft" xMin="-33" yMin="-215" xMax="425" yMax="700">
      <contour>
        <pt x="230" y="-215" on="1"/>
        <pt x="-33" y="-215" on="1"/>
        <pt x="162" y="700" on="1"/>
        <pt x="425" y="700" on="1"/>
        <pt x="406" y="610" on="1"/>
        <pt x="245" y="610" on="1"/>
        <pt x="88" y="-125" on="1"/>
        <pt x="250" y="-125" on="1"/>
      </contour>
    </TTGlyph>
    <TTGlyph name="bracketright" xMin="-50" yMin="-215" xMax="408" yMax="700">
      <contour>
        <pt x="145" y="700" on="1"/>
        <pt x="408" y="700" on="1"/>
        <pt x="213" y="-215" on="1"/>
        <pt x="-50" y="-215" on="1"/>
        <pt x="-31" y="-125" on="1"/>
        <pt x="130" y="-125" on="1"/>
        <pt x="287" y="610" on="1"/>
        <pt x="125" y="610" on="1"/>
      </contour>
    </TTGlyph>
    <TTGlyph name="breve" xMin="185" yMin="588" xMax="521" yMax="743">
      <contour>
        <pt x="338" y="653" on="1"/>
        <pt x="375" y="653" on="0"/>
        <pt x="433" y="696" on="0"/>
        <pt x="452" y="738" on="1"/>
        <pt x="521" y="717" on="1"/>
        <pt x="494" y="656" on="0"/>
        <pt x="397" y="588" on="0"/>
        <pt x="335" y="588" on="1"/>
        <pt x="269" y="588" on="0"/>
        <pt x="187" y="664" on="0"/>
        <pt x="185" y="728" on="1"/>
        <pt x="251" y="743" on="1"/>
        <pt x="254" y="698" on="0"/>
        <pt x="298" y="653" on="0"/>
      </contour>
    </TTGlyph>
    <TTGlyph name="bullet" xMin="87" yMin="231" xMax="299" yMax="450">
      <contour>
        <pt x="181" y="231" on="1"/>
        <pt x="141" y="231" on="0"/>
        <pt x="87" y="286" on="0"/>
        <pt x="87" y="327" on="1"/>
        <pt x="87" y="376" on="0"/>
        <pt x="158" y="450" on="0"/>
        <pt x="207" y="450" on="1"/>
        <pt x="247" y="450" on="0"/>
        <pt x="299" y="395" on="0"/>
        <pt x="299" y="354" on="1"/>
        <pt x="299" y="305" on="0"/>
        <pt x="228" y="231" on="0"/>
      </contour>
    </TTGlyph>
    <TTGlyph name="c" xMin="45" yMin="-10" xMax="516" yMax="508">
      <contour>
        <pt x="285" y="89" on="1"/>
        <pt x="317" y="89" on="0"/>
        <pt x="376" y="112" on="0"/>
        <pt x="401" y="134" on="1"/>
        <pt x="455" y="63" on="1"/>
        <pt x="416" y="27" on="0"/>
        <pt x="318" y="-10" on="0"/>
        <pt x="267" y="-10" on="1"/>
        <pt x="219" y="-10" on="0"/>
        <pt x="137" y="24" on="0"/>
        <pt x="79" y="85" on="0"/>
        <pt x="45" y="168" on="0"/>
        <pt x="45" y="217" on="1"/>
        <pt x="45" y="277" on="0"/>
        <pt x="88" y="383" on="0"/>
        <pt x="162" y="462" on="0"/>
        <pt x="262" y="508" on="0"/>
        <pt x="318" y="508" on="1"/>
        <pt x="379" y="508" on="0"/>
        <pt x="485" y="454" on="0"/>
        <pt x="516" y="407" on="1"/>
        <pt x="436" y="341" on="1"/>
        <pt x="415" y="375" on="0"/>
        <pt x="354" y="408" on="0"/>
        <pt x="315" y="408" on="1"/>
        <pt x="283" y="408" on="0"/>
        <pt x="224" y="379" on="0"/>
        <pt x="181" y="329" on="0"/>
        <pt x="156" y="263" on="0"/>
        <pt x="156" y="226" on="1"/>
        <pt x="156" y="166" on="0"/>
        <pt x="229" y="89" on="0"/>
      </contour>
    </TTGlyph>
    <TTGlyph name="cacute" xMin="45" yMin="-10" xMax="561" yMax="724">
      <component glyphName="c" x="0" y="0" flags="0x204"/>
      <component glyphName="acute" x="40" y="0" flags="0x4"/>
    </TTGlyph>
    <TTGlyph name="caron" xMin="182" yMin="592" xMax="529" yMax="730">
      <contour>
        <pt x="267" y="730" on="1"/>
        <pt x="336" y="645" on="1"/>
        <pt x="438" y="730" on="1"/>
        <pt x="529" y="730" on="1"/>
        <pt x="384" y="592" on="1"/>
        <pt x="273" y="592" on="1"/>
        <pt x="182" y="730" on="1"/>
      </contour>
    </TTGlyph>
    <TTGlyph name="caronSlovak" xMin="183" yMin="478" xMax="347" yMax="718">
      <contour>
        <pt x="238" y="718" on="1"/>
        <pt x="347" y="718" on="1"/>
        <pt x="267" y="478" on="1"/>
        <pt x="183" y="478" on="1"/>
      </contour>
    </TTGlyph>
    <TTGlyph name="ccaron" xMin="45" yMin="-10" xMax="537" yMax="730">
      <component glyphName="c" x="0" y="0" flags="0x204"/>
      <component glyphName="caron" x="8" y="0" flags="0x4"/>
    </TTGlyph>
    <TTGlyph name="ccedilla" xMin="45" yMin="-245" xMax="516" yMax="508">
      <contour>
        <pt x="285" y="89" on="1"/>
        <pt x="317" y="89" on="0"/>
        <pt x="376" y="112" on="0"/>
        <pt x="401" y="134" on="1"/>
        <pt x="455" y="63" on="1"/>
        <pt x="420" y="31" on="0"/>
        <pt x="333" y="-6" on="0"/>
        <pt x="287" y="-9" on="1"/>
        <pt x="263" y="-63" on="1"/>
        <pt x="303" y="-67" on="0"/>
        <pt x="346" y="-106" on="0"/>
        <pt x="346" y="-137" on="1"/>
        <pt x="346" y="-183" on="0"/>
        <pt x="273" y="-245" on="0"/>
        <pt x="220" y="-245" on="1"/>
        <pt x="182" y="-245" on="0"/>
        <pt x="121" y="-223" on="0"/>
        <pt x="102" y="-201" on="1"/>
        <pt x="143" y="-159" on="1"/>
        <pt x="158" y="-175" on="0"/>
        <pt x="196" y="-192" on="0"/>
        <pt x="218" y="-192" on="1"/>
        <pt x="247" y="-192" on="0"/>
        <pt x="282" y="-166" on="0"/>
        <pt x="282" y="-144" on="1"/>
        <pt x="282" y="-125" on="0"/>
        <pt x="250" y="-103" on="0"/>
        <pt x="224" y="-103" on="1"/>
        <pt x="190" y="-103" on="1"/>
        <pt x="232" y="-7" on="1"/>
        <pt x="150" y="4" on="0"/>
        <pt x="45" y="128" on="0"/>
        <pt x="45" y="217" on="1"/>
        <pt x="45" y="277" on="0"/>
        <pt x="88" y="383" on="0"/>
        <pt x="162" y="462" on="0"/>
        <pt x="262" y="508" on="0"/>
        <pt x="318" y="508" on="1"/>
        <pt x="379" y="508" on="0"/>
        <pt x="485" y="454" on="0"/>
        <pt x="516" y="407" on="1"/>
        <pt x="436" y="341" on="1"/>
        <pt x="415" y="375" on="0"/>
        <pt x="354" y="408" on="0"/>
        <pt x="315" y="408" on="1"/>
        <pt x="283" y="408" on="0"/>
        <pt x="224" y="379" on="0"/>
        <pt x="181" y="329" on="0"/>
        <pt x="156" y="263" on="0"/>
        <pt x="156" y="226" on="1"/>
        <pt x="156" y="166" on="0"/>
        <pt x="229" y="89" on="0"/>
      </contour>
    </TTGlyph>
    <TTGlyph name="ccircumflex" xMin="45" yMin="-10" xMax="516" yMax="726">
      <component glyphName="c" x="0" y="0" flags="0x204"/>
      <component glyphName="circumflex" x="6" y="0" flags="0x4"/>
    </TTGlyph>
    <TTGlyph name="cdotaccent" xMin="45" yMin="-10" xMax="516" yMax="731">
      <component glyphName="c" x="0" y="0" flags="0x204"/>
      <component glyphName="dotaccent" x="117" y="0" flags="0x4"/>
    </TTGlyph>
    <TTGlyph name="cedilla" xMin="69" yMin="-245" xMax="313" yMax="0">
      <contour>
        <pt x="313" y="-137" on="1"/>
        <pt x="313" y="-183" on="0"/>
        <pt x="240" y="-245" on="0"/>
        <pt x="187" y="-245" on="1"/>
        <pt x="149" y="-245" on="0"/>
        <pt x="88" y="-223" on="0"/>
        <pt x="69" y="-201" on="1"/>
        <pt x="110" y="-159" on="1"/>
        <pt x="125" y="-175" on="0"/>
        <pt x="163" y="-192" on="0"/>
        <pt x="185" y="-192" on="1"/>
        <pt x="214" y="-192" on="0"/>
        <pt x="249" y="-166" on="0"/>
        <pt x="249" y="-144" on="1"/>
        <pt x="249" y="-125" on="0"/>
        <pt x="217" y="-103" on="0"/>
        <pt x="191" y="-103" on="1"/>
        <pt x="157" y="-103" on="1"/>
        <pt x="202" y="0" on="1"/>
        <pt x="258" y="0" on="1"/>
        <pt x="230" y="-63" on="1"/>
        <pt x="270" y="-67" on="0"/>
        <pt x="313" y="-106" on="0"/>
      </contour>
    </TTGlyph>
    <TTGlyph name="cent" xMin="45" yMin="-114" xMax="516" yMax="616">
      <contour>
        <pt x="187" y="-114" on="1"/>
        <pt x="210" y="-3" on="1"/>
        <pt x="137" y="14" on="0"/>
        <pt x="45" y="134" on="0"/>
        <pt x="45" y="217" on="1"/>
        <pt x="45" y="277" on="0"/>
        <pt x="88" y="383" on="0"/>
        <pt x="162" y="462" on="0"/>
        <pt x="262" y="508" on="0"/>
        <pt x="318" y="508" on="1"/>
        <pt x="319" y="508" on="1"/>
        <pt x="342" y="616" on="1"/>
        <pt x="397" y="616" on="1"/>
        <pt x="373" y="502" on="1"/>
        <pt x="418" y="492" on="0"/>
        <pt x="492" y="444" on="0"/>
        <pt x="516" y="407" on="1"/>
        <pt x="436" y="341" on="1"/>
        <pt x="420" y="366" on="0"/>
        <pt x="378" y="398" on="0"/>
        <pt x="352" y="404" on="1"/>
        <pt x="285" y="89" on="1"/>
        <pt x="317" y="89" on="0"/>
        <pt x="376" y="112" on="0"/>
        <pt x="401" y="134" on="1"/>
        <pt x="455" y="63" on="1"/>
        <pt x="416" y="27" on="0"/>
        <pt x="318" y="-10" on="0"/>
        <pt x="267" y="-10" on="1"/>
        <pt x="264" y="-10" on="1"/>
        <pt x="242" y="-114" on="1"/>
      </contour>
      <contour>
        <pt x="156" y="226" on="1"/>
        <pt x="156" y="181" on="0"/>
        <pt x="198" y="114" on="0"/>
        <pt x="232" y="99" on="1"/>
        <pt x="298" y="407" on="1"/>
        <pt x="239" y="400" on="0"/>
        <pt x="156" y="295" on="0"/>
      </contour>
    </TTGlyph>
    <TTGlyph name="circumflex" xMin="156" yMin="588" xMax="503" yMax="726">
      <contour>
        <pt x="419" y="588" on="1"/>
        <pt x="349" y="674" on="1"/>
        <pt x="246" y="588" on="1"/>
        <pt x="156" y="588" on="1"/>
        <pt x="301" y="726" on="1"/>
        <pt x="413" y="726" on="1"/>
        <pt x="503" y="588" on="1"/>
      </contour>
    </TTGlyph>
    <TTGlyph name="colon" xMin="10" yMin="-9" xMax="230" yMax="511">
      <component glyphName="period" x="1" y="0" flags="0x4"/>
      <component glyphName="period" x="83" y="375" flags="0x4"/>
    </TTGlyph>
    <TTGlyph name="comma" xMin="-71" yMin="-166" xMax="159" yMax="98">
      <contour>
        <pt x="46" y="98" on="1"/>
        <pt x="159" y="98" on="1"/>
        <pt x="11" y="-166" on="1"/>
        <pt x="-71" y="-166" on="1"/>
      </contour>
    </TTGlyph>
    <TTGlyph name="commaaccent" xMin="-77" yMin="-288" xMax="123" yMax="-88">
      <contour>
        <pt x="19" y="-88" on="1"/>
        <pt x="123" y="-88" on="1"/>
        <pt x="2" y="-288" on="1"/>
        <pt x="-77" y="-288" on="1"/>
      </contour>
    </TTGlyph>
    <TTGlyph name="copyright" xMin="67" yMin="-10" xMax="747" yMax="708">
      <contour>
        <pt x="67" y="308" on="1"/>
        <pt x="67" y="389" on="0"/>
        <pt x="127" y="535" on="0"/>
        <pt x="229" y="644" on="0"/>
        <pt x="365" y="708" on="0"/>
        <pt x="441" y="708" on="1"/>
        <pt x="507" y="708" on="0"/>
        <pt x="619" y="660" on="0"/>
        <pt x="701" y="576" on="0"/>
        <pt x="747" y="459" on="0"/>
        <pt x="747" y="390" on="1"/>
        <pt x="747" y="309" on="0"/>
        <pt x="687" y="163" on="0"/>
        <pt x="585" y="54" on="0"/>
        <pt x="449" y="-10" on="0"/>
        <pt x="373" y="-10" on="1"/>
        <pt x="307" y="-10" on="0"/>
        <pt x="195" y="38" on="0"/>
        <pt x="113" y="123" on="0"/>
        <pt x="67" y="240" on="0"/>
      </contour>
      <contour>
        <pt x="691" y="384" on="1"/>
        <pt x="691" y="442" on="0"/>
        <pt x="652" y="542" on="0"/>
        <pt x="585" y="613" on="0"/>
        <pt x="491" y="654" on="0"/>
        <pt x="436" y="654" on="1"/>
        <pt x="373" y="654" on="0"/>
        <pt x="259" y="599" on="0"/>
        <pt x="174" y="506" on="0"/>
        <pt x="123" y="382" on="0"/>
        <pt x="123" y="314" on="1"/>
        <pt x="123" y="256" on="0"/>
        <pt x="161" y="156" on="0"/>
        <pt x="229" y="84" on="0"/>
        <pt x="323" y="43" on="0"/>
        <pt x="377" y="43" on="1"/>
        <pt x="440" y="43" on="0"/>
        <pt x="555" y="99" on="0"/>
        <pt x="640" y="192" on="0"/>
        <pt x="691" y="316" on="0"/>
      </contour>
      <contour>
        <pt x="237" y="325" on="1"/>
        <pt x="237" y="367" on="0"/>
        <pt x="270" y="444" on="0"/>
        <pt x="325" y="502" on="0"/>
        <pt x="397" y="537" on="0"/>
        <pt x="437" y="537" on="1"/>
        <pt x="480" y="537" on="0"/>
        <pt x="556" y="496" on="0"/>
        <pt x="576" y="462" on="1"/>
        <pt x="518" y="412" on="1"/>
        <pt x="502" y="437" on="0"/>
        <pt x="457" y="465" on="0"/>
        <pt x="432" y="465" on="1"/>
        <pt x="385" y="465" on="0"/>
        <pt x="315" y="386" on="0"/>
        <pt x="315" y="333" on="1"/>
        <pt x="315" y="291" on="0"/>
        <pt x="365" y="236" on="0"/>
        <pt x="404" y="236" on="1"/>
        <pt x="425" y="236" on="0"/>
        <pt x="466" y="254" on="0"/>
        <pt x="487" y="271" on="1"/>
        <pt x="521" y="214" on="1"/>
        <pt x="493" y="190" on="0"/>
        <pt x="426" y="164" on="0"/>
        <pt x="391" y="164" on="1"/>
        <pt x="325" y="164" on="0"/>
        <pt x="237" y="256" on="0"/>
      </contour>
    </TTGlyph>
    <TTGlyph name="cordinal" xMin="84" yMin="308" xMax="454" yMax="710">
      <contour>
        <pt x="275" y="387" on="1"/>
        <pt x="300" y="387" on="0"/>
        <pt x="347" y="407" on="0"/>
        <pt x="369" y="427" on="1"/>
        <pt x="415" y="366" on="1"/>
        <pt x="382" y="338" on="0"/>
        <pt x="305" y="308" on="0"/>
        <pt x="265" y="308" on="1"/>
        <pt x="187" y="308" on="0"/>
        <pt x="84" y="410" on="0"/>
        <pt x="84" y="488" on="1"/>
        <pt x="84" y="534" on="0"/>
        <pt x="118" y="615" on="0"/>
        <pt x="176" y="675" on="0"/>
        <pt x="254" y="710" on="0"/>
        <pt x="298" y="710" on="1"/>
        <pt x="345" y="710" on="0"/>
        <pt x="429" y="668" on="0"/>
        <pt x="454" y="632" on="1"/>
        <pt x="392" y="576" on="1"/>
        <pt x="373" y="602" on="0"/>
        <pt x="325" y="629" on="0"/>
        <pt x="296" y="629" on="1"/>
        <pt x="246" y="629" on="0"/>
        <pt x="173" y="548" on="0"/>
        <pt x="173" y="493" on="1"/>
        <pt x="173" y="447" on="0"/>
        <pt x="231" y="387" on="0"/>
      </contour>
    </TTGlyph>
    <TTGlyph name="d" xMin="46" yMin="-5" xMax="628" yMax="734">
      <contour>
        <pt x="364" y="0" on="1"/>
        <pt x="374" y="48" on="1"/>
        <pt x="348" y="23" on="0"/>
        <pt x="279" y="-5" on="0"/>
        <pt x="241" y="-5" on="1"/>
        <pt x="200" y="-5" on="0"/>
        <pt x="128" y="30" on="0"/>
        <pt x="76" y="91" on="0"/>
        <pt x="46" y="175" on="0"/>
        <pt x="46" y="223" on="1"/>
        <pt x="46" y="281" on="0"/>
        <pt x="87" y="384" on="0"/>
        <pt x="156" y="460" on="0"/>
        <pt x="249" y="505" on="0"/>
        <pt x="302" y="505" on="1"/>
        <pt x="351" y="505" on="0"/>
        <pt x="428" y="465" on="0"/>
        <pt x="453" y="428" on="1"/>
        <pt x="513" y="715" on="1"/>
        <pt x="628" y="734" on="1"/>
        <pt x="474" y="0" on="1"/>
      </contour>
      <contour>
        <pt x="156" y="232" on="1"/>
        <pt x="156" y="169" on="0"/>
        <pt x="229" y="89" on="0"/>
        <pt x="286" y="89" on="1"/>
        <pt x="315" y="89" on="0"/>
        <pt x="368" y="110" on="0"/>
        <pt x="391" y="131" on="1"/>
        <pt x="437" y="351" on="1"/>
        <pt x="418" y="378" on="0"/>
        <pt x="355" y="409" on="0"/>
        <pt x="319" y="409" on="1"/>
        <pt x="250" y="409" on="0"/>
        <pt x="156" y="307" on="0"/>
      </contour>
    </TTGlyph>
    <TTGlyph name="dagger" xMin="83" yMin="0" xMax="448" yMax="700">
      <contour>
        <pt x="122" y="0" on="1"/>
        <pt x="213" y="427" on="1"/>
        <pt x="83" y="427" on="1"/>
        <pt x="101" y="507" on="1"/>
        <pt x="230" y="507" on="1"/>
        <pt x="271" y="700" on="1"/>
        <pt x="360" y="700" on="1"/>
        <pt x="319" y="507" on="1"/>
        <pt x="448" y="507" on="1"/>
        <pt x="429" y="427" on="1"/>
        <pt x="302" y="427" on="1"/>
        <pt x="211" y="0" on="1"/>
      </contour>
    </TTGlyph>
    <TTGlyph name="daggerdbl" xMin="33" yMin="0" xMax="448" yMax="700">
      <contour>
        <pt x="122" y="0" on="1"/>
        <pt x="163" y="193" on="1"/>
        <pt x="33" y="193" on="1"/>
        <pt x="51" y="274" on="1"/>
        <pt x="180" y="274" on="1"/>
        <pt x="213" y="427" on="1"/>
        <pt x="83" y="427" on="1"/>
        <pt x="101" y="507" on="1"/>
        <pt x="230" y="507" on="1"/>
        <pt x="271" y="700" on="1"/>
        <pt x="360" y="700" on="1"/>
        <pt x="319" y="507" on="1"/>
        <pt x="448" y="507" on="1"/>
        <pt x="429" y="427" on="1"/>
        <pt x="302" y="427" on="1"/>
        <pt x="269" y="274" on="1"/>
        <pt x="398" y="274" on="1"/>
        <pt x="379" y="193" on="1"/>
        <pt x="252" y="193" on="1"/>
        <pt x="211" y="0" on="1"/>
      </contour>
    </TTGlyph>
    <TTGlyph name="dcaron" xMin="55" yMin="-5" xMax="844" yMax="734">
      <component glyphName="d" x="9" y="0" flags="0x4"/>
      <component glyphName="caronSlovak" x="497" y="0" flags="0x4"/>
    </TTGlyph>
    <TTGlyph name="dcroat" xMin="46" yMin="-5" xMax="670" yMax="734">
      <contour>
        <pt x="364" y="0" on="1"/>
        <pt x="374" y="48" on="1"/>
        <pt x="348" y="23" on="0"/>
        <pt x="279" y="-5" on="0"/>
        <pt x="241" y="-5" on="1"/>
        <pt x="200" y="-5" on="0"/>
        <pt x="128" y="30" on="0"/>
        <pt x="76" y="91" on="0"/>
        <pt x="46" y="175" on="0"/>
        <pt x="46" y="223" on="1"/>
        <pt x="46" y="281" on="0"/>
        <pt x="87" y="384" on="0"/>
        <pt x="156" y="460" on="0"/>
        <pt x="249" y="505" on="0"/>
        <pt x="302" y="505" on="1"/>
        <pt x="351" y="505" on="0"/>
        <pt x="428" y="465" on="0"/>
        <pt x="453" y="428" on="1"/>
        <pt x="482" y="567" on="1"/>
        <pt x="364" y="567" on="1"/>
        <pt x="380" y="634" on="1"/>
        <pt x="496" y="634" on="1"/>
        <pt x="513" y="715" on="1"/>
        <pt x="628" y="734" on="1"/>
        <pt x="607" y="634" on="1"/>
        <pt x="670" y="634" on="1"/>
        <pt x="655" y="567" on="1"/>
        <pt x="593" y="567" on="1"/>
        <pt x="474" y="0" on="1"/>
      </contour>
      <contour>
        <pt x="156" y="232" on="1"/>
        <pt x="156" y="169" on="0"/>
        <pt x="229" y="89" on="0"/>
        <pt x="286" y="89" on="1"/>
        <pt x="315" y="89" on="0"/>
        <pt x="368" y="110" on="0"/>
        <pt x="391" y="131" on="1"/>
        <pt x="437" y="351" on="1"/>
        <pt x="418" y="378" on="0"/>
        <pt x="355" y="409" on="0"/>
        <pt x="319" y="409" on="1"/>
        <pt x="250" y="409" on="0"/>
        <pt x="156" y="307" on="0"/>
      </contour>
    </TTGlyph>
    <TTGlyph name="degree" xMin="116" yMin="420" xMax="405" yMax="708">
      <contour>
        <pt x="246" y="420" on="1"/>
        <pt x="190" y="420" on="0"/>
        <pt x="116" y="493" on="0"/>
        <pt x="116" y="549" on="1"/>
        <pt x="116" y="581" on="0"/>
        <pt x="142" y="639" on="0"/>
        <pt x="185" y="682" on="0"/>
        <pt x="242" y="708" on="0"/>
        <pt x="274" y="708" on="1"/>
        <pt x="331" y="708" on="0"/>
        <pt x="405" y="635" on="0"/>
        <pt x="405" y="580" on="1"/>
        <pt x="405" y="548" on="0"/>
        <pt x="379" y="490" on="0"/>
        <pt x="336" y="446" on="0"/>
        <pt x="278" y="420" on="0"/>
      </contour>
      <contour>
        <pt x="250" y="482" on="1"/>
        <pt x="287" y="482" on="0"/>
        <pt x="340" y="535" on="0"/>
        <pt x="340" y="572" on="1"/>
        <pt x="340" y="603" on="0"/>
        <pt x="300" y="645" on="0"/>
        <pt x="270" y="645" on="1"/>
        <pt x="233" y="645" on="0"/>
        <pt x="181" y="593" on="0"/>
        <pt x="181" y="556" on="1"/>
        <pt x="181" y="525" on="0"/>
        <pt x="221" y="482" on="0"/>
      </contour>
    </TTGlyph>
    <TTGlyph name="dieresis" xMin="205" yMin="597" xMax="530" yMax="727">
      <contour>
        <pt x="260" y="597" on="1"/>
        <pt x="237" y="597" on="0"/>
        <pt x="205" y="630" on="0"/>
        <pt x="205" y="655" on="1"/>
        <pt x="205" y="684" on="0"/>
        <pt x="247" y="727" on="0"/>
        <pt x="275" y="727" on="1"/>
        <pt x="298" y="727" on="0"/>
        <pt x="330" y="694" on="0"/>
        <pt x="330" y="670" on="1"/>
        <pt x="330" y="642" on="0"/>
        <pt x="288" y="597" on="0"/>
      </contour>
      <contour>
        <pt x="460" y="597" on="1"/>
        <pt x="437" y="597" on="0"/>
        <pt x="404" y="630" on="0"/>
        <pt x="404" y="655" on="1"/>
        <pt x="404" y="683" on="0"/>
        <pt x="447" y="727" on="0"/>
        <pt x="475" y="727" on="1"/>
        <pt x="498" y="727" on="0"/>
        <pt x="530" y="694" on="0"/>
        <pt x="530" y="670" on="1"/>
        <pt x="530" y="642" on="0"/>
        <pt x="488" y="597" on="0"/>
      </contour>
    </TTGlyph>
    <TTGlyph name="divide" xMin="73" yMin="83" xMax="503" yMax="636">
      <contour>
        <pt x="325" y="495" on="1"/>
        <pt x="299" y="495" on="0"/>
        <pt x="263" y="531" on="0"/>
        <pt x="263" y="557" on="1"/>
        <pt x="263" y="588" on="0"/>
        <pt x="309" y="636" on="0"/>
        <pt x="341" y="636" on="1"/>
        <pt x="366" y="636" on="0"/>
        <pt x="401" y="600" on="0"/>
        <pt x="401" y="574" on="1"/>
        <pt x="401" y="543" on="0"/>
        <pt x="355" y="495" on="0"/>
      </contour>
      <contour>
        <pt x="73" y="313" on="1"/>
        <pt x="92" y="403" on="1"/>
        <pt x="503" y="403" on="1"/>
        <pt x="484" y="313" on="1"/>
      </contour>
      <contour>
        <pt x="237" y="83" on="1"/>
        <pt x="211" y="83" on="0"/>
        <pt x="175" y="119" on="0"/>
        <pt x="175" y="145" on="1"/>
        <pt x="175" y="176" on="0"/>
        <pt x="221" y="223" on="0"/>
        <pt x="253" y="223" on="1"/>
        <pt x="278" y="223" on="0"/>
        <pt x="313" y="187" on="0"/>
        <pt x="313" y="161" on="1"/>
        <pt x="313" y="130" on="0"/>
        <pt x="267" y="83" on="0"/>
      </contour>
    </TTGlyph>
    <TTGlyph name="dollar" xMin="10" yMin="-75" xMax="563" yMax="759">
      <contour>
        <pt x="176" y="-75" on="1"/>
        <pt x="197" y="23" on="1"/>
        <pt x="146" y="31" on="0"/>
        <pt x="53" y="76" on="0"/>
        <pt x="10" y="113" on="1"/>
        <pt x="73" y="194" on="1"/>
        <pt x="110" y="163" on="0"/>
        <pt x="181" y="125" on="0"/>
        <pt x="217" y="118" on="1"/>
        <pt x="259" y="315" on="1"/>
        <pt x="210" y="331" on="1"/>
        <pt x="153" y="350" on="0"/>
        <pt x="88" y="432" on="0"/>
        <pt x="88" y="483" on="1"/>
        <pt x="88" y="576" on="0"/>
        <pt x="218" y="683" on="0"/>
        <pt x="330" y="683" on="1"/>
        <pt x="337" y="683" on="1"/>
        <pt x="353" y="759" on="1"/>
        <pt x="409" y="759" on="1"/>
        <pt x="392" y="677" on="1"/>
        <pt x="439" y="667" on="0"/>
        <pt x="527" y="619" on="0"/>
        <pt x="563" y="584" on="1"/>
        <pt x="495" y="508" on="1"/>
        <pt x="467" y="536" on="0"/>
        <pt x="404" y="574" on="0"/>
        <pt x="372" y="582" on="1"/>
        <pt x="333" y="402" on="1"/>
        <pt x="378" y="386" on="1"/>
        <pt x="441" y="363" on="0"/>
        <pt x="508" y="283" on="0"/>
        <pt x="508" y="232" on="1"/>
        <pt x="508" y="136" on="0"/>
        <pt x="369" y="18" on="0"/>
        <pt x="256" y="18" on="1"/>
        <pt x="252" y="18" on="1"/>
        <pt x="232" y="-75" on="1"/>
      </contour>
      <contour>
        <pt x="251" y="425" on="1"/>
        <pt x="280" y="415" on="1"/>
        <pt x="317" y="590" on="1"/>
        <pt x="314" y="590" on="1"/>
        <pt x="257" y="590" on="0"/>
        <pt x="190" y="540" on="0"/>
        <pt x="190" y="498" on="1"/>
        <pt x="190" y="473" on="0"/>
        <pt x="222" y="435" on="0"/>
      </contour>
      <contour>
        <pt x="333" y="292" on="1"/>
        <pt x="312" y="300" on="1"/>
        <pt x="272" y="113" on="1"/>
        <pt x="332" y="114" on="0"/>
        <pt x="403" y="168" on="0"/>
        <pt x="403" y="213" on="1"/>
        <pt x="403" y="239" on="0"/>
        <pt x="368" y="279" on="0"/>
      </contour>
    </TTGlyph>
    <TTGlyph name="dotaccent" xMin="172" yMin="602" xMax="299" yMax="731">
      <contour>
        <pt x="228" y="602" on="1"/>
        <pt x="204" y="602" on="0"/>
        <pt x="172" y="634" on="0"/>
        <pt x="172" y="659" on="1"/>
        <pt x="172" y="688" on="0"/>
        <pt x="216" y="731" on="0"/>
        <pt x="244" y="731" on="1"/>
        <pt x="267" y="731" on="0"/>
        <pt x="299" y="698" on="0"/>
        <pt x="299" y="674" on="1"/>
        <pt x="299" y="645" on="0"/>
        <pt x="256" y="602" on="0"/>
      </contour>
    </TTGlyph>
    <TTGlyph name="dotlessi" xMin="14" yMin="0" xMax="235" yMax="501">
      <contour>
        <pt x="235" y="501" on="1"/>
        <pt x="126" y="0" on="1"/>
        <pt x="14" y="0" on="1"/>
        <pt x="123" y="501" on="1"/>
      </contour>
    </TTGlyph>
    <TTGlyph name="dotlessj" xMin="-122" yMin="-217" xMax="235" yMax="501">
      <contour>
        <pt x="-122" y="-206" on="1"/>
        <pt x="-103" y="-116" on="1"/>
        <pt x="-94" y="-119" on="0"/>
        <pt x="-72" y="-122" on="0"/>
        <pt x="-58" y="-122" on="1"/>
        <pt x="-33" y="-122" on="0"/>
        <pt x="-5" y="-98" on="0"/>
        <pt x="1" y="-71" on="1"/>
        <pt x="123" y="501" on="1"/>
        <pt x="235" y="501" on="1"/>
        <pt x="110" y="-80" on="1"/>
        <pt x="96" y="-145" on="0"/>
        <pt x="10" y="-217" on="0"/>
        <pt x="-53" y="-217" on="1"/>
        <pt x="-70" y="-217" on="0"/>
        <pt x="-111" y="-210" on="0"/>
      </contour>
    </TTGlyph>
    <TTGlyph name="e" xMin="45" yMin="-10" xMax="518" yMax="508">
      <contour>
        <pt x="465" y="51" on="1"/>
        <pt x="419" y="19" on="0"/>
        <pt x="331" y="-10" on="0"/>
        <pt x="281" y="-10" on="1"/>
        <pt x="230" y="-10" on="0"/>
        <pt x="142" y="24" on="0"/>
        <pt x="80" y="86" on="0"/>
        <pt x="45" y="172" on="0"/>
        <pt x="45" y="223" on="1"/>
        <pt x="45" y="281" on="0"/>
        <pt x="87" y="385" on="0"/>
        <pt x="158" y="463" on="0"/>
        <pt x="255" y="508" on="0"/>
        <pt x="309" y="508" on="1"/>
        <pt x="402" y="508" on="0"/>
        <pt x="518" y="384" on="0"/>
        <pt x="518" y="287" on="1"/>
        <pt x="518" y="268" on="0"/>
        <pt x="516" y="238" on="0"/>
        <pt x="514" y="223" on="1"/>
        <pt x="153" y="223" on="1"/>
        <pt x="154" y="163" on="0"/>
        <pt x="232" y="84" on="0"/>
        <pt x="290" y="84" on="1"/>
        <pt x="322" y="84" on="0"/>
        <pt x="382" y="105" on="0"/>
        <pt x="404" y="125" on="1"/>
      </contour>
      <contour>
        <pt x="303" y="415" on="1"/>
        <pt x="253" y="415" on="0"/>
        <pt x="177" y="346" on="0"/>
        <pt x="162" y="292" on="1"/>
        <pt x="418" y="292" on="1"/>
        <pt x="414" y="346" on="0"/>
        <pt x="351" y="415" on="0"/>
      </contour>
    </TTGlyph>
    <TTGlyph name="eacute" xMin="45" yMin="-10" xMax="553" yMax="724">
      <component glyphName="e" x="0" y="0" flags="0x204"/>
      <component glyphName="acute" x="32" y="0" flags="0x4"/>
    </TTGlyph>
    <TTGlyph name="ebreve" xMin="45" yMin="-10" xMax="520" yMax="743">
      <component glyphName="e" x="0" y="0" flags="0x204"/>
      <component glyphName="breve" x="-1" y="0" flags="0x4"/>
    </TTGlyph>
    <TTGlyph name="ecaron" xMin="45" yMin="-10" xMax="530" yMax="730">
      <component glyphName="e" x="0" y="0" flags="0x204"/>
      <component glyphName="caron" x="1" y="0" flags="0x4"/>
    </TTGlyph>
    <TTGlyph name="ecircumflex" xMin="45" yMin="-10" xMax="518" yMax="726">
      <component glyphName="e" x="0" y="0" flags="0x204"/>
      <component glyphName="circumflex" x="-2" y="0" flags="0x4"/>
    </TTGlyph>
    <TTGlyph name="edieresis" xMin="45" yMin="-10" xMax="518" yMax="727">
      <component glyphName="e" x="0" y="0" flags="0x204"/>
      <component glyphName="dieresis" x="-26" y="0" flags="0x4"/>
    </TTGlyph>
    <TTGlyph name="edotaccent" xMin="45" yMin="-10" xMax="518" yMax="731">
      <component glyphName="e" x="0" y="0" flags="0x204"/>
      <component glyphName="dotaccent" x="109" y="0" flags="0x4"/>
    </TTGlyph>
    <TTGlyph name="egrave" xMin="45" yMin="-10" xMax="518" yMax="724">
      <component glyphName="e" x="0" y="0" flags="0x204"/>
      <component glyphName="grave" x="-11" y="0" flags="0x4"/>
    </TTGlyph>
    <TTGlyph name="eight" xMin="37" yMin="-10" xMax="594" yMax="710">
      <contour>
        <pt x="278" y="-10" on="1"/>
        <pt x="171" y="-10" on="0"/>
        <pt x="37" y="93" on="0"/>
        <pt x="37" y="174" on="1"/>
        <pt x="37" y="245" on="0"/>
        <pt x="143" y="356" on="0"/>
        <pt x="221" y="372" on="1"/>
        <pt x="178" y="391" on="0"/>
        <pt x="128" y="459" on="0"/>
        <pt x="128" y="502" on="1"/>
        <pt x="128" y="545" on="0"/>
        <pt x="168" y="621" on="0"/>
        <pt x="236" y="677" on="0"/>
        <pt x="328" y="710" on="0"/>
        <pt x="379" y="710" on="1"/>
        <pt x="472" y="710" on="0"/>
        <pt x="594" y="611" on="0"/>
        <pt x="594" y="535" on="1"/>
        <pt x="594" y="474" on="0"/>
        <pt x="503" y="375" on="0"/>
        <pt x="434" y="357" on="1"/>
        <pt x="486" y="339" on="0"/>
        <pt x="550" y="260" on="0"/>
        <pt x="550" y="210" on="1"/>
        <pt x="550" y="164" on="0"/>
        <pt x="508" y="83" on="0"/>
        <pt x="434" y="24" on="0"/>
        <pt x="335" y="-10" on="0"/>
      </contour>
      <contour>
        <pt x="351" y="404" on="1"/>
        <pt x="406" y="404" on="0"/>
        <pt x="487" y="474" on="0"/>
        <pt x="487" y="522" on="1"/>
        <pt x="487" y="565" on="0"/>
        <pt x="420" y="621" on="0"/>
        <pt x="370" y="621" on="1"/>
        <pt x="314" y="621" on="0"/>
        <pt x="233" y="552" on="0"/>
        <pt x="233" y="503" on="1"/>
        <pt x="233" y="460" on="0"/>
        <pt x="300" y="404" on="0"/>
      </contour>
      <contour>
        <pt x="285" y="81" on="1"/>
        <pt x="350" y="81" on="0"/>
        <pt x="443" y="157" on="0"/>
        <pt x="443" y="210" on="1"/>
        <pt x="443" y="258" on="0"/>
        <pt x="363" y="321" on="0"/>
        <pt x="303" y="321" on="1"/>
        <pt x="238" y="321" on="0"/>
        <pt x="147" y="246" on="0"/>
        <pt x="147" y="193" on="1"/>
        <pt x="147" y="144" on="0"/>
        <pt x="225" y="81" on="0"/>
      </contour>
    </TTGlyph>
    <TTGlyph name="ellipsis" xMin="9" yMin="-9" xMax="644" yMax="136">
      <component glyphName="period" x="0" y="0" flags="0x4"/>
      <component glyphName="period" x="249" y="0" flags="0x4"/>
      <component glyphName="period" x="497" y="0" flags="0x4"/>
    </TTGlyph>
    <TTGlyph name="emacron" xMin="45" yMin="-10" xMax="518" yMax="692">
      <component glyphName="e" x="0" y="0" flags="0x204"/>
      <component glyphName="macron" x="-1" y="0" flags="0x4"/>
    </TTGlyph>
    <TTGlyph name="emdash" xMin="51" yMin="236" xMax="646" yMax="331">
      <contour>
        <pt x="72" y="331" on="1"/>
        <pt x="646" y="331" on="1"/>
        <pt x="625" y="236" on="1"/>
        <pt x="51" y="236" on="1"/>
      </contour>
    </TTGlyph>
    <TTGlyph name="emdash.cap" xMin="60" yMin="301" xMax="655" yMax="396">
      <component glyphName="emdash" x="9" y="65" flags="0x4"/>
    </TTGlyph>
    <TTGlyph name="endash" xMin="51" yMin="236" xMax="506" yMax="331">
      <contour>
        <pt x="72" y="331" on="1"/>
        <pt x="506" y="331" on="1"/>
        <pt x="485" y="236" on="1"/>
        <pt x="51" y="236" on="1"/>
      </contour>
    </TTGlyph>
    <TTGlyph name="endash.cap" xMin="59" yMin="301" xMax="514" yMax="396">
      <component glyphName="endash" x="8" y="65" flags="0x4"/>
    </TTGlyph>
    <TTGlyph name="eng" xMin="14" yMin="-216" xMax="525" yMax="507">
      <contour>
        <pt x="14" y="0" on="1"/>
        <pt x="123" y="501" on="1"/>
        <pt x="235" y="501" on="1"/>
        <pt x="219" y="426" on="1"/>
        <pt x="253" y="466" on="0"/>
        <pt x="334" y="507" on="0"/>
        <pt x="379" y="507" on="1"/>
        <pt x="458" y="507" on="0"/>
        <pt x="537" y="400" on="0"/>
        <pt x="520" y="318" on="1"/>
        <pt x="435" y="-79" on="1"/>
        <pt x="421" y="-145" on="0"/>
        <pt x="336" y="-216" on="0"/>
        <pt x="273" y="-216" on="1"/>
        <pt x="256" y="-216" on="0"/>
        <pt x="216" y="-210" on="0"/>
        <pt x="204" y="-205" on="1"/>
        <pt x="223" y="-113" on="1"/>
        <pt x="233" y="-116" on="0"/>
        <pt x="254" y="-119" on="0"/>
        <pt x="268" y="-119" on="1"/>
        <pt x="293" y="-119" on="0"/>
        <pt x="321" y="-94" on="0"/>
        <pt x="326" y="-68" on="1"/>
        <pt x="403" y="291" on="1"/>
        <pt x="415" y="347" on="0"/>
        <pt x="367" y="418" on="0"/>
        <pt x="316" y="418" on="1"/>
        <pt x="285" y="418" on="0"/>
        <pt x="230" y="391" on="0"/>
        <pt x="205" y="364" on="1"/>
        <pt x="126" y="0" on="1"/>
      </contour>
    </TTGlyph>
    <TTGlyph name="eogonek" xMin="45" yMin="-231" xMax="518" yMax="508">
      <contour>
        <pt x="342" y="-213" on="1"/>
        <pt x="326" y="-222" on="0"/>
        <pt x="285" y="-231" on="0"/>
        <pt x="263" y="-231" on="1"/>
        <pt x="222" y="-231" on="0"/>
        <pt x="171" y="-189" on="0"/>
        <pt x="171" y="-153" on="1"/>
        <pt x="171" y="-115" on="0"/>
        <pt x="223" y="-44" on="0"/>
        <pt x="274" y="-10" on="1"/>
        <pt x="224" y="-9" on="0"/>
        <pt x="139" y="26" on="0"/>
        <pt x="79" y="88" on="0"/>
        <pt x="45" y="173" on="0"/>
        <pt x="45" y="223" on="1"/>
        <pt x="45" y="281" on="0"/>
        <pt x="87" y="385" on="0"/>
        <pt x="158" y="463" on="0"/>
        <pt x="255" y="508" on="0"/>
        <pt x="309" y="508" on="1"/>
        <pt x="402" y="508" on="0"/>
        <pt x="518" y="384" on="0"/>
        <pt x="518" y="287" on="1"/>
        <pt x="518" y="268" on="0"/>
        <pt x="516" y="238" on="0"/>
        <pt x="514" y="223" on="1"/>
        <pt x="153" y="223" on="1"/>
        <pt x="154" y="163" on="0"/>
        <pt x="232" y="84" on="0"/>
        <pt x="290" y="84" on="1"/>
        <pt x="322" y="84" on="0"/>
        <pt x="382" y="105" on="0"/>
        <pt x="404" y="125" on="1"/>
        <pt x="465" y="51" on="1"/>
        <pt x="438" y="32" on="0"/>
        <pt x="386" y="7" on="0"/>
        <pt x="359" y="0" on="1"/>
        <pt x="299" y="-32" on="0"/>
        <pt x="241" y="-96" on="0"/>
        <pt x="241" y="-127" on="1"/>
        <pt x="241" y="-146" on="0"/>
        <pt x="269" y="-170" on="0"/>
        <pt x="292" y="-170" on="1"/>
        <pt x="304" y="-170" on="0"/>
        <pt x="329" y="-164" on="0"/>
        <pt x="338" y="-160" on="1"/>
      </contour>
      <contour>
        <pt x="303" y="415" on="1"/>
        <pt x="253" y="415" on="0"/>
        <pt x="177" y="346" on="0"/>
        <pt x="162" y="292" on="1"/>
        <pt x="418" y="292" on="1"/>
        <pt x="414" y="346" on="0"/>
        <pt x="351" y="415" on="0"/>
      </contour>
    </TTGlyph>
    <TTGlyph name="equal" xMin="53" yMin="219" xMax="522" yMax="489">
      <component glyphName="minus" x="-20" y="-94" flags="0x4"/>
      <component glyphName="minus" x="19" y="86" flags="0x4"/>
    </TTGlyph>
    <TTGlyph name="eth" xMin="49" yMin="-9" xMax="583" yMax="749">
      <contour>
        <pt x="305" y="521" on="1"/>
        <pt x="280" y="583" on="1"/>
        <pt x="360" y="623" on="1"/>
        <pt x="344" y="639" on="0"/>
        <pt x="306" y="667" on="0"/>
        <pt x="284" y="678" on="1"/>
        <pt x="351" y="749" on="1"/>
        <pt x="380" y="732" on="0"/>
        <pt x="430" y="691" on="0"/>
        <pt x="451" y="669" on="1"/>
        <pt x="557" y="722" on="1"/>
        <pt x="583" y="660" on="1"/>
        <pt x="491" y="614" on="1"/>
        <pt x="522" y="565" on="0"/>
        <pt x="553" y="445" on="0"/>
        <pt x="553" y="376" on="1"/>
        <pt x="553" y="292" on="0"/>
        <pt x="510" y="150" on="0"/>
        <pt x="434" y="49" on="0"/>
        <pt x="328" y="-9" on="0"/>
        <pt x="266" y="-9" on="1"/>
        <pt x="170" y="-9" on="0"/>
        <pt x="49" y="115" on="0"/>
        <pt x="49" y="212" on="1"/>
        <pt x="49" y="267" on="0"/>
        <pt x="86" y="363" on="0"/>
        <pt x="151" y="433" on="0"/>
        <pt x="239" y="473" on="0"/>
        <pt x="290" y="473" on="1"/>
        <pt x="350" y="473" on="0"/>
        <pt x="440" y="418" on="0"/>
        <pt x="457" y="375" on="1"/>
        <pt x="457" y="429" on="0"/>
        <pt x="430" y="529" on="0"/>
        <pt x="403" y="570" on="1"/>
      </contour>
      <contour>
        <pt x="271" y="88" on="1"/>
        <pt x="301" y="88" on="0"/>
        <pt x="357" y="115" on="0"/>
        <pt x="398" y="161" on="0"/>
        <pt x="423" y="222" on="0"/>
        <pt x="423" y="255" on="1"/>
        <pt x="423" y="311" on="0"/>
        <pt x="354" y="386" on="0"/>
        <pt x="303" y="386" on="1"/>
        <pt x="272" y="386" on="0"/>
        <pt x="217" y="359" on="0"/>
        <pt x="175" y="313" on="0"/>
        <pt x="150" y="253" on="0"/>
        <pt x="150" y="219" on="1"/>
        <pt x="150" y="162" on="0"/>
        <pt x="219" y="88" on="0"/>
      </contour>
    </TTGlyph>
    <TTGlyph name="exclam" xMin="10" yMin="-9" xMax="275" yMax="730">
      <contour>
        <pt x="68" y="215" on="1"/>
        <pt x="166" y="730" on="1"/>
        <pt x="275" y="730" on="1"/>
        <pt x="151" y="215" on="1"/>
      </contour>
      <contour>
        <pt x="70" y="-9" on="1"/>
        <pt x="44" y="-9" on="0"/>
        <pt x="10" y="26" on="0"/>
        <pt x="10" y="52" on="1"/>
        <pt x="10" y="84" on="0"/>
        <pt x="56" y="131" on="0"/>
        <pt x="87" y="131" on="1"/>
        <pt x="112" y="131" on="0"/>
        <pt x="146" y="95" on="0"/>
        <pt x="146" y="69" on="1"/>
        <pt x="146" y="38" on="0"/>
        <pt x="100" y="-9" on="0"/>
      </contour>
    </TTGlyph>
    <TTGlyph name="exclamdown" xMin="4" yMin="-27" xMax="269" yMax="712">
      <contour>
        <pt x="211" y="488" on="1"/>
        <pt x="113" y="-27" on="1"/>
        <pt x="4" y="-27" on="1"/>
        <pt x="128" y="488" on="1"/>
      </contour>
      <contour>
        <pt x="209" y="712" on="1"/>
        <pt x="235" y="712" on="0"/>
        <pt x="269" y="677" on="0"/>
        <pt x="269" y="651" on="1"/>
        <pt x="269" y="619" on="0"/>
        <pt x="223" y="572" on="0"/>
        <pt x="192" y="572" on="1"/>
        <pt x="167" y="572" on="0"/>
        <pt x="133" y="608" on="0"/>
        <pt x="133" y="634" on="1"/>
        <pt x="133" y="665" on="0"/>
        <pt x="179" y="712" on="0"/>
      </contour>
    </TTGlyph>
    <TTGlyph name="f" xMin="63" yMin="0" xMax="480" yMax="758">
      <contour>
        <pt x="84" y="501" on="1"/>
        <pt x="185" y="501" on="1"/>
        <pt x="206" y="602" on="1"/>
        <pt x="222" y="677" on="0"/>
        <pt x="318" y="758" on="0"/>
        <pt x="390" y="758" on="1"/>
        <pt x="415" y="758" on="0"/>
        <pt x="464" y="750" on="0"/>
        <pt x="480" y="743" on="1"/>
        <pt x="460" y="647" on="1"/>
        <pt x="443" y="653" on="0"/>
        <pt x="411" y="659" on="0"/>
        <pt x="394" y="659" on="1"/>
        <pt x="360" y="659" on="0"/>
        <pt x="323" y="627" on="0"/>
        <pt x="316" y="592" on="1"/>
        <pt x="297" y="501" on="1"/>
        <pt x="433" y="501" on="1"/>
        <pt x="412" y="411" on="1"/>
        <pt x="278" y="411" on="1"/>
        <pt x="191" y="0" on="1"/>
        <pt x="80" y="0" on="1"/>
        <pt x="166" y="411" on="1"/>
        <pt x="63" y="411" on="1"/>
      </contour>
    </TTGlyph>
    <TTGlyph name="fi" xMin="63" yMin="0" xMax="681" yMax="758">
      <component glyphName="f" x="0" y="0" flags="0x4"/>
      <component glyphName="i" x="402" y="0" flags="0x4"/>
    </TTGlyph>
    <TTGlyph name="five" xMin="3" yMin="-9" xMax="591" yMax="700">
      <contour>
        <pt x="85" y="354" on="1"/>
        <pt x="172" y="700" on="1"/>
        <pt x="591" y="700" on="1"/>
        <pt x="571" y="606" on="1"/>
        <pt x="244" y="606" on="1"/>
        <pt x="194" y="410" on="1"/>
        <pt x="224" y="423" on="0"/>
        <pt x="283" y="437" on="0"/>
        <pt x="314" y="437" on="1"/>
        <pt x="410" y="437" on="0"/>
        <pt x="529" y="332" on="0"/>
        <pt x="529" y="246" on="1"/>
        <pt x="529" y="193" on="0"/>
        <pt x="486" y="100" on="0"/>
        <pt x="411" y="31" on="0"/>
        <pt x="309" y="-9" on="0"/>
        <pt x="251" y="-9" on="1"/>
        <pt x="174" y="-9" on="0"/>
        <pt x="46" y="50" on="0"/>
        <pt x="3" y="104" on="1"/>
        <pt x="80" y="174" on="1"/>
        <pt x="118" y="128" on="0"/>
        <pt x="204" y="85" on="0"/>
        <pt x="258" y="85" on="1"/>
        <pt x="326" y="85" on="0"/>
        <pt x="418" y="169" on="0"/>
        <pt x="418" y="231" on="1"/>
        <pt x="418" y="286" on="0"/>
        <pt x="339" y="353" on="0"/>
        <pt x="274" y="353" on="1"/>
        <pt x="246" y="353" on="0"/>
        <pt x="187" y="339" on="0"/>
        <pt x="153" y="325" on="1"/>
      </contour>
    </TTGlyph>
    <TTGlyph name="fl" xMin="63" yMin="0" xMax="681" yMax="758">
      <component glyphName="f" x="0" y="0" flags="0x4"/>
      <component glyphName="l" x="402" y="0" flags="0x4"/>
    </TTGlyph>
    <TTGlyph name="four" xMin="21" yMin="0" xMax="608" yMax="700">
      <contour>
        <pt x="608" y="700" on="1"/>
        <pt x="516" y="267" on="1"/>
        <pt x="606" y="267" on="1"/>
        <pt x="585" y="173" on="1"/>
        <pt x="496" y="173" on="1"/>
        <pt x="459" y="0" on="1"/>
        <pt x="353" y="0" on="1"/>
        <pt x="390" y="173" on="1"/>
        <pt x="21" y="173" on="1"/>
        <pt x="41" y="262" on="1"/>
        <pt x="487" y="700" on="1"/>
      </contour>
      <contour>
        <pt x="159" y="267" on="1"/>
        <pt x="409" y="267" on="1"/>
        <pt x="475" y="579" on="1"/>
      </contour>
    </TTGlyph>
    <TTGlyph name="fraction" xMin="-15" yMin="0" xMax="601" yMax="700">
      <contour>
        <pt x="63" y="0" on="1"/>
        <pt x="-15" y="0" on="1"/>
        <pt x="521" y="700" on="1"/>
        <pt x="601" y="700" on="1"/>
      </contour>
    </TTGlyph>
    <TTGlyph name="g" xMin="17" yMin="-220" xMax="579" yMax="505">
      <contour>
        <pt x="241" y="-3" on="1"/>
        <pt x="200" y="-3" on="0"/>
        <pt x="128" y="32" on="0"/>
        <pt x="77" y="92" on="0"/>
        <pt x="47" y="176" on="0"/>
        <pt x="47" y="224" on="1"/>
        <pt x="47" y="282" on="0"/>
        <pt x="87" y="385" on="0"/>
        <pt x="157" y="461" on="0"/>
        <pt x="250" y="505" on="0"/>
        <pt x="302" y="505" on="1"/>
        <pt x="351" y="505" on="0"/>
        <pt x="429" y="465" on="0"/>
        <pt x="454" y="428" on="1"/>
        <pt x="470" y="501" on="1"/>
        <pt x="579" y="501" on="1"/>
        <pt x="466" y="-43" on="1"/>
        <pt x="447" y="-129" on="0"/>
        <pt x="331" y="-220" on="0"/>
        <pt x="241" y="-220" on="1"/>
        <pt x="184" y="-220" on="0"/>
        <pt x="62" y="-181" on="0"/>
        <pt x="17" y="-147" on="1"/>
        <pt x="68" y="-68" on="1"/>
        <pt x="111" y="-99" on="0"/>
        <pt x="196" y="-129" on="0"/>
        <pt x="236" y="-129" on="1"/>
        <pt x="285" y="-129" on="0"/>
        <pt x="348" y="-79" on="0"/>
        <pt x="358" y="-31" on="1"/>
        <pt x="375" y="50" on="1"/>
        <pt x="348" y="25" on="0"/>
        <pt x="279" y="-3" on="0"/>
      </contour>
      <contour>
        <pt x="157" y="233" on="1"/>
        <pt x="157" y="170" on="0"/>
        <pt x="230" y="90" on="0"/>
        <pt x="287" y="90" on="1"/>
        <pt x="316" y="90" on="0"/>
        <pt x="369" y="111" on="0"/>
        <pt x="392" y="132" on="1"/>
        <pt x="438" y="351" on="1"/>
        <pt x="419" y="378" on="0"/>
        <pt x="356" y="409" on="0"/>
        <pt x="319" y="409" on="1"/>
        <pt x="251" y="409" on="0"/>
        <pt x="157" y="308" on="0"/>
      </contour>
    </TTGlyph>
    <TTGlyph name="g.alt" xMin="-39" yMin="-213" xMax="625" yMax="531">
      <contour>
        <pt x="73" y="306" on="1"/>
        <pt x="73" y="347" on="0"/>
        <pt x="111" y="421" on="0"/>
        <pt x="174" y="476" on="0"/>
        <pt x="260" y="508" on="0"/>
        <pt x="307" y="508" on="1"/>
        <pt x="359" y="508" on="0"/>
        <pt x="446" y="470" on="0"/>
        <pt x="473" y="439" on="1"/>
        <pt x="492" y="484" on="0"/>
        <pt x="551" y="531" on="0"/>
        <pt x="589" y="531" on="1"/>
        <pt x="598" y="531" on="0"/>
        <pt x="615" y="529" on="0"/>
        <pt x="625" y="525" on="1"/>
        <pt x="606" y="431" on="1"/>
        <pt x="595" y="435" on="0"/>
        <pt x="566" y="440" on="0"/>
        <pt x="551" y="440" on="1"/>
        <pt x="532" y="440" on="0"/>
        <pt x="501" y="427" on="0"/>
        <pt x="489" y="415" on="1"/>
        <pt x="499" y="399" on="0"/>
        <pt x="509" y="361" on="0"/>
        <pt x="509" y="341" on="1"/>
        <pt x="509" y="299" on="0"/>
        <pt x="473" y="225" on="0"/>
        <pt x="410" y="171" on="0"/>
        <pt x="324" y="139" on="0"/>
        <pt x="275" y="139" on="1"/>
        <pt x="252" y="139" on="0"/>
        <pt x="209" y="146" on="0"/>
        <pt x="190" y="153" on="1"/>
        <pt x="167" y="149" on="0"/>
        <pt x="138" y="123" on="0"/>
        <pt x="138" y="107" on="1"/>
        <pt x="138" y="94" on="0"/>
        <pt x="162" y="77" on="0"/>
        <pt x="186" y="74" on="1"/>
        <pt x="367" y="53" on="1"/>
        <pt x="428" y="46" on="0"/>
        <pt x="493" y="-6" on="0"/>
        <pt x="493" y="-48" on="1"/>
        <pt x="493" y="-122" on="0"/>
        <pt x="346" y="-213" on="0"/>
        <pt x="225" y="-213" on="1"/>
        <pt x="106" y="-213" on="0"/>
        <pt x="-39" y="-150" on="0"/>
        <pt x="-39" y="-98" on="1"/>
        <pt x="-39" y="-63" on="0"/>
        <pt x="26" y="-14" on="0"/>
        <pt x="85" y="-4" on="1"/>
        <pt x="63" y="7" on="0"/>
        <pt x="39" y="40" on="0"/>
        <pt x="39" y="62" on="1"/>
        <pt x="39" y="102" on="0"/>
        <pt x="106" y="160" on="0"/>
        <pt x="158" y="168" on="1"/>
        <pt x="119" y="190" on="0"/>
        <pt x="73" y="263" on="0"/>
      </contour>
      <contour>
        <pt x="403" y="334" on="1"/>
        <pt x="403" y="374" on="0"/>
        <pt x="346" y="427" on="0"/>
        <pt x="303" y="427" on="1"/>
        <pt x="252" y="427" on="0"/>
        <pt x="179" y="359" on="0"/>
        <pt x="179" y="312" on="1"/>
        <pt x="179" y="271" on="0"/>
        <pt x="236" y="218" on="0"/>
        <pt x="280" y="218" on="1"/>
        <pt x="330" y="218" on="0"/>
        <pt x="403" y="286" on="0"/>
      </contour>
      <contour>
        <pt x="65" y="-74" on="1"/>
        <pt x="65" y="-105" on="0"/>
        <pt x="154" y="-140" on="0"/>
        <pt x="232" y="-140" on="1"/>
        <pt x="296" y="-140" on="0"/>
        <pt x="377" y="-105" on="0"/>
        <pt x="377" y="-77" on="1"/>
        <pt x="377" y="-64" on="0"/>
        <pt x="354" y="-47" on="0"/>
        <pt x="332" y="-43" on="1"/>
        <pt x="165" y="-25" on="1"/>
        <pt x="154" y="-24" on="0"/>
        <pt x="132" y="-20" on="0"/>
        <pt x="123" y="-18" on="1"/>
        <pt x="96" y="-25" on="0"/>
        <pt x="65" y="-55" on="0"/>
      </contour>
    </TTGlyph>
    <TTGlyph name="gbreve" xMin="17" yMin="-220" xMax="579" yMax="743">
      <component glyphName="g" x="0" y="0" flags="0x204"/>
      <component glyphName="breve" x="24" y="0" flags="0x4"/>
    </TTGlyph>
    <TTGlyph name="gbreve.alt" xMin="-39" yMin="-213" xMax="625" yMax="743">
      <component glyphName="g.alt" x="0" y="0" flags="0x204"/>
      <component glyphName="breve" x="2" y="0" flags="0x4"/>
    </TTGlyph>
    <TTGlyph name="gcircumflex" xMin="17" yMin="-220" xMax="579" yMax="726">
      <component glyphName="g" x="0" y="0" flags="0x204"/>
      <component glyphName="circumflex" x="23" y="0" flags="0x4"/>
    </TTGlyph>
    <TTGlyph name="gcircumflex.alt" xMin="-39" yMin="-213" xMax="625" yMax="726">
      <component glyphName="g.alt" x="0" y="0" flags="0x204"/>
      <component glyphName="circumflex" x="2" y="0" flags="0x4"/>
    </TTGlyph>
    <TTGlyph name="gcommaaccent" xMin="17" yMin="-220" xMax="579" yMax="817">
      <contour>
        <pt x="381" y="617" on="1"/>
        <pt x="277" y="617" on="1"/>
        <pt x="398" y="817" on="1"/>
        <pt x="477" y="817" on="1"/>
      </contour>
      <contour>
        <pt x="241" y="-3" on="1"/>
        <pt x="200" y="-3" on="0"/>
        <pt x="128" y="32" on="0"/>
        <pt x="77" y="92" on="0"/>
        <pt x="47" y="176" on="0"/>
        <pt x="47" y="224" on="1"/>
        <pt x="47" y="282" on="0"/>
        <pt x="87" y="385" on="0"/>
        <pt x="157" y="461" on="0"/>
        <pt x="250" y="505" on="0"/>
        <pt x="302" y="505" on="1"/>
        <pt x="351" y="505" on="0"/>
        <pt x="429" y="465" on="0"/>
        <pt x="454" y="428" on="1"/>
        <pt x="470" y="501" on="1"/>
        <pt x="579" y="501" on="1"/>
        <pt x="466" y="-43" on="1"/>
        <pt x="447" y="-129" on="0"/>
        <pt x="331" y="-220" on="0"/>
        <pt x="241" y="-220" on="1"/>
        <pt x="184" y="-220" on="0"/>
        <pt x="62" y="-181" on="0"/>
        <pt x="17" y="-147" on="1"/>
        <pt x="68" y="-68" on="1"/>
        <pt x="111" y="-99" on="0"/>
        <pt x="196" y="-129" on="0"/>
        <pt x="236" y="-129" on="1"/>
        <pt x="285" y="-129" on="0"/>
        <pt x="348" y="-79" on="0"/>
        <pt x="358" y="-31" on="1"/>
        <pt x="375" y="50" on="1"/>
        <pt x="348" y="25" on="0"/>
        <pt x="279" y="-3" on="0"/>
      </contour>
      <contour>
        <pt x="157" y="233" on="1"/>
        <pt x="157" y="170" on="0"/>
        <pt x="230" y="90" on="0"/>
        <pt x="287" y="90" on="1"/>
        <pt x="316" y="90" on="0"/>
        <pt x="369" y="111" on="0"/>
        <pt x="392" y="132" on="1"/>
        <pt x="438" y="351" on="1"/>
        <pt x="419" y="378" on="0"/>
        <pt x="356" y="409" on="0"/>
        <pt x="319" y="409" on="1"/>
        <pt x="251" y="409" on="0"/>
        <pt x="157" y="308" on="0"/>
      </contour>
    </TTGlyph>
    <TTGlyph name="gcommaaccent.alt" xMin="-39" yMin="-213" xMax="625" yMax="818">
      <contour>
        <pt x="383" y="618" on="1"/>
        <pt x="279" y="618" on="1"/>
        <pt x="400" y="818" on="1"/>
        <pt x="479" y="818" on="1"/>
      </contour>
      <contour>
        <pt x="73" y="306" on="1"/>
        <pt x="73" y="347" on="0"/>
        <pt x="111" y="421" on="0"/>
        <pt x="174" y="476" on="0"/>
        <pt x="260" y="508" on="0"/>
        <pt x="307" y="508" on="1"/>
        <pt x="359" y="508" on="0"/>
        <pt x="446" y="470" on="0"/>
        <pt x="473" y="439" on="1"/>
        <pt x="492" y="484" on="0"/>
        <pt x="551" y="531" on="0"/>
        <pt x="589" y="531" on="1"/>
        <pt x="598" y="531" on="0"/>
        <pt x="615" y="529" on="0"/>
        <pt x="625" y="525" on="1"/>
        <pt x="606" y="431" on="1"/>
        <pt x="595" y="435" on="0"/>
        <pt x="566" y="440" on="0"/>
        <pt x="551" y="440" on="1"/>
        <pt x="532" y="440" on="0"/>
        <pt x="501" y="427" on="0"/>
        <pt x="489" y="415" on="1"/>
        <pt x="499" y="399" on="0"/>
        <pt x="509" y="361" on="0"/>
        <pt x="509" y="341" on="1"/>
        <pt x="509" y="299" on="0"/>
        <pt x="473" y="225" on="0"/>
        <pt x="410" y="171" on="0"/>
        <pt x="324" y="139" on="0"/>
        <pt x="275" y="139" on="1"/>
        <pt x="252" y="139" on="0"/>
        <pt x="209" y="146" on="0"/>
        <pt x="190" y="153" on="1"/>
        <pt x="167" y="149" on="0"/>
        <pt x="138" y="123" on="0"/>
        <pt x="138" y="107" on="1"/>
        <pt x="138" y="94" on="0"/>
        <pt x="162" y="77" on="0"/>
        <pt x="186" y="74" on="1"/>
        <pt x="367" y="53" on="1"/>
        <pt x="428" y="46" on="0"/>
        <pt x="493" y="-6" on="0"/>
        <pt x="493" y="-48" on="1"/>
        <pt x="493" y="-122" on="0"/>
        <pt x="346" y="-213" on="0"/>
        <pt x="225" y="-213" on="1"/>
        <pt x="106" y="-213" on="0"/>
        <pt x="-39" y="-150" on="0"/>
        <pt x="-39" y="-98" on="1"/>
        <pt x="-39" y="-63" on="0"/>
        <pt x="26" y="-14" on="0"/>
        <pt x="85" y="-4" on="1"/>
        <pt x="63" y="7" on="0"/>
        <pt x="39" y="40" on="0"/>
        <pt x="39" y="62" on="1"/>
        <pt x="39" y="102" on="0"/>
        <pt x="106" y="160" on="0"/>
        <pt x="158" y="168" on="1"/>
        <pt x="119" y="190" on="0"/>
        <pt x="73" y="263" on="0"/>
      </contour>
      <contour>
        <pt x="403" y="334" on="1"/>
        <pt x="403" y="374" on="0"/>
        <pt x="346" y="427" on="0"/>
        <pt x="303" y="427" on="1"/>
        <pt x="252" y="427" on="0"/>
        <pt x="179" y="359" on="0"/>
        <pt x="179" y="312" on="1"/>
        <pt x="179" y="271" on="0"/>
        <pt x="236" y="218" on="0"/>
        <pt x="280" y="218" on="1"/>
        <pt x="330" y="218" on="0"/>
        <pt x="403" y="286" on="0"/>
      </contour>
      <contour>
        <pt x="65" y="-74" on="1"/>
        <pt x="65" y="-105" on="0"/>
        <pt x="154" y="-140" on="0"/>
        <pt x="232" y="-140" on="1"/>
        <pt x="296" y="-140" on="0"/>
        <pt x="377" y="-105" on="0"/>
        <pt x="377" y="-77" on="1"/>
        <pt x="377" y="-64" on="0"/>
        <pt x="354" y="-47" on="0"/>
        <pt x="332" y="-43" on="1"/>
        <pt x="165" y="-25" on="1"/>
        <pt x="154" y="-24" on="0"/>
        <pt x="132" y="-20" on="0"/>
        <pt x="123" y="-18" on="1"/>
        <pt x="96" y="-25" on="0"/>
        <pt x="65" y="-55" on="0"/>
      </contour>
    </TTGlyph>
    <TTGlyph name="gdotaccent" xMin="17" yMin="-220" xMax="579" yMax="731">
      <component glyphName="g" x="0" y="0" flags="0x204"/>
      <component glyphName="dotaccent" x="134" y="0" flags="0x4"/>
    </TTGlyph>
    <TTGlyph name="gdotaccent.alt" xMin="-39" yMin="-213" xMax="625" yMax="731">
      <component glyphName="g.alt" x="0" y="0" flags="0x204"/>
      <component glyphName="dotaccent" x="112" y="0" flags="0x4"/>
    </TTGlyph>
    <TTGlyph name="germandbls" xMin="13" yMin="-13" xMax="618" yMax="765">
      <contour>
        <pt x="411" y="360" on="1"/>
        <pt x="411" y="347" on="0"/>
        <pt x="429" y="324" on="0"/>
        <pt x="447" y="316" on="1"/>
        <pt x="512" y="284" on="1"/>
        <pt x="562" y="259" on="0"/>
        <pt x="610" y="195" on="0"/>
        <pt x="610" y="153" on="1"/>
        <pt x="610" y="81" on="0"/>
        <pt x="506" y="-13" on="0"/>
        <pt x="425" y="-13" on="1"/>
        <pt x="365" y="-13" on="0"/>
        <pt x="263" y="33" on="0"/>
        <pt x="229" y="76" on="1"/>
        <pt x="292" y="141" on="1"/>
        <pt x="317" y="108" on="0"/>
        <pt x="386" y="72" on="0"/>
        <pt x="424" y="72" on="1"/>
        <pt x="462" y="72" on="0"/>
        <pt x="509" y="112" on="0"/>
        <pt x="509" y="144" on="1"/>
        <pt x="509" y="166" on="0"/>
        <pt x="480" y="196" on="0"/>
        <pt x="446" y="212" on="1"/>
        <pt x="377" y="245" on="1"/>
        <pt x="342" y="261" on="0"/>
        <pt x="307" y="312" on="0"/>
        <pt x="307" y="346" on="1"/>
        <pt x="307" y="401" on="0"/>
        <pt x="369" y="458" on="0"/>
        <pt x="444" y="499" on="0"/>
        <pt x="506" y="543" on="0"/>
        <pt x="506" y="585" on="1"/>
        <pt x="506" y="619" on="0"/>
        <pt x="439" y="669" on="0"/>
        <pt x="390" y="669" on="1"/>
        <pt x="327" y="669" on="0"/>
        <pt x="245" y="591" on="0"/>
        <pt x="229" y="516" on="1"/>
        <pt x="124" y="0" on="1"/>
        <pt x="13" y="0" on="1"/>
        <pt x="121" y="530" on="1"/>
        <pt x="143" y="642" on="0"/>
        <pt x="286" y="765" on="0"/>
        <pt x="392" y="765" on="1"/>
        <pt x="441" y="765" on="0"/>
        <pt x="524" y="739" on="0"/>
        <pt x="584" y="693" on="0"/>
        <pt x="618" y="628" on="0"/>
        <pt x="618" y="590" on="1"/>
        <pt x="618" y="530" on="0"/>
        <pt x="553" y="463" on="0"/>
        <pt x="476" y="421" on="0"/>
        <pt x="411" y="387" on="0"/>
      </contour>
    </TTGlyph>
    <TTGlyph name="grave" xMin="127" yMin="591" xMax="391" yMax="724">
      <contour>
        <pt x="269" y="724" on="1"/>
        <pt x="391" y="591" on="1"/>
        <pt x="290" y="591" on="1"/>
        <pt x="127" y="724" on="1"/>
      </contour>
    </TTGlyph>
    <TTGlyph name="greater" xMin="70" yMin="76" xMax="500" yMax="620">
      <contour>
        <pt x="230" y="620" on="1"/>
        <pt x="500" y="348" on="1"/>
        <pt x="114" y="76" on="1"/>
        <pt x="70" y="147" on="1"/>
        <pt x="369" y="351" on="1"/>
        <pt x="159" y="555" on="1"/>
      </contour>
    </TTGlyph>
    <TTGlyph name="guillemotleft" xMin="36" yMin="0" xMax="681" yMax="501">
      <component glyphName="guilsinglleft" x="0" y="0" flags="0x4"/>
      <component glyphName="guilsinglleft" x="254" y="0" flags="0x4"/>
    </TTGlyph>
    <TTGlyph name="guillemotright" xMin="-1" yMin="0" xMax="643" yMax="501">
      <contour>
        <pt x="252" y="0" on="1"/>
        <pt x="527" y="252" on="1"/>
        <pt x="364" y="501" on="1"/>
        <pt x="474" y="501" on="1"/>
        <pt x="643" y="250" on="1"/>
        <pt x="365" y="0" on="1"/>
      </contour>
      <contour>
        <pt x="-1" y="0" on="1"/>
        <pt x="274" y="252" on="1"/>
        <pt x="111" y="501" on="1"/>
        <pt x="221" y="501" on="1"/>
        <pt x="390" y="250" on="1"/>
        <pt x="112" y="0" on="1"/>
      </contour>
    </TTGlyph>
    <TTGlyph name="guilsinglleft" xMin="36" yMin="0" xMax="427" yMax="501">
      <contour>
        <pt x="427" y="501" on="1"/>
        <pt x="152" y="249" on="1"/>
        <pt x="315" y="0" on="1"/>
        <pt x="205" y="0" on="1"/>
        <pt x="36" y="251" on="1"/>
        <pt x="314" y="501" on="1"/>
      </contour>
    </TTGlyph>
    <TTGlyph name="guilsinglright" xMin="-1" yMin="0" xMax="390" yMax="501">
      <contour>
        <pt x="-1" y="0" on="1"/>
        <pt x="274" y="252" on="1"/>
        <pt x="111" y="501" on="1"/>
        <pt x="221" y="501" on="1"/>
        <pt x="390" y="250" on="1"/>
        <pt x="112" y="0" on="1"/>
      </contour>
    </TTGlyph>
    <TTGlyph name="h" xMin="14" yMin="0" xMax="524" yMax="734">
      <contour>
        <pt x="14" y="0" on="1"/>
        <pt x="163" y="715" on="1"/>
        <pt x="279" y="734" on="1"/>
        <pt x="214" y="420" on="1"/>
        <pt x="249" y="463" on="0"/>
        <pt x="333" y="507" on="0"/>
        <pt x="379" y="507" on="1"/>
        <pt x="459" y="507" on="0"/>
        <pt x="537" y="400" on="0"/>
        <pt x="519" y="317" on="1"/>
        <pt x="451" y="0" on="1"/>
        <pt x="340" y="0" on="1"/>
        <pt x="403" y="291" on="1"/>
        <pt x="415" y="347" on="0"/>
        <pt x="367" y="418" on="0"/>
        <pt x="316" y="418" on="1"/>
        <pt x="285" y="418" on="0"/>
        <pt x="226" y="389" on="0"/>
        <pt x="201" y="360" on="1"/>
        <pt x="126" y="0" on="1"/>
      </contour>
    </TTGlyph>
    <TTGlyph name="hbar" xMin="22" yMin="0" xMax="532" yMax="734">
      <contour>
        <pt x="22" y="0" on="1"/>
        <pt x="140" y="567" on="1"/>
        <pt x="85" y="567" on="1"/>
        <pt x="101" y="634" on="1"/>
        <pt x="154" y="634" on="1"/>
        <pt x="171" y="715" on="1"/>
        <pt x="287" y="734" on="1"/>
        <pt x="266" y="634" on="1"/>
        <pt x="395" y="634" on="1"/>
        <pt x="379" y="567" on="1"/>
        <pt x="252" y="567" on="1"/>
        <pt x="222" y="420" on="1"/>
        <pt x="257" y="463" on="0"/>
        <pt x="341" y="507" on="0"/>
        <pt x="387" y="507" on="1"/>
        <pt x="467" y="507" on="0"/>
        <pt x="545" y="400" on="0"/>
        <pt x="527" y="317" on="1"/>
        <pt x="459" y="0" on="1"/>
        <pt x="348" y="0" on="1"/>
        <pt x="411" y="291" on="1"/>
        <pt x="423" y="347" on="0"/>
        <pt x="375" y="418" on="0"/>
        <pt x="324" y="418" on="1"/>
        <pt x="293" y="418" on="0"/>
        <pt x="234" y="389" on="0"/>
        <pt x="209" y="360" on="1"/>
        <pt x="134" y="0" on="1"/>
      </contour>
    </TTGlyph>
    <TTGlyph name="hcircumflex" xMin="14" yMin="0" xMax="524" yMax="925">
      <contour>
        <pt x="322" y="787" on="1"/>
        <pt x="252" y="873" on="1"/>
        <pt x="149" y="787" on="1"/>
        <pt x="59" y="787" on="1"/>
        <pt x="204" y="925" on="1"/>
        <pt x="316" y="925" on="1"/>
        <pt x="406" y="787" on="1"/>
      </contour>
      <contour>
        <pt x="14" y="0" on="1"/>
        <pt x="164" y="712" on="1"/>
        <pt x="274" y="712" on="1"/>
        <pt x="213" y="420" on="1"/>
        <pt x="248" y="463" on="0"/>
        <pt x="332" y="507" on="0"/>
        <pt x="379" y="507" on="1"/>
        <pt x="458" y="507" on="0"/>
        <pt x="537" y="399" on="0"/>
        <pt x="519" y="317" on="1"/>
        <pt x="451" y="0" on="1"/>
        <pt x="340" y="0" on="1"/>
        <pt x="403" y="291" on="1"/>
        <pt x="416" y="347" on="0"/>
        <pt x="367" y="418" on="0"/>
        <pt x="316" y="418" on="1"/>
        <pt x="285" y="418" on="0"/>
        <pt x="226" y="388" on="0"/>
        <pt x="201" y="359" on="1"/>
        <pt x="126" y="0" on="1"/>
      </contour>
    </TTGlyph>
    <TTGlyph name="hungarumlaut" xMin="159" yMin="592" xMax="620" yMax="724">
      <contour>
        <pt x="315" y="724" on="1"/>
        <pt x="425" y="724" on="1"/>
        <pt x="251" y="592" on="1"/>
        <pt x="159" y="592" on="1"/>
      </contour>
      <contour>
        <pt x="509" y="724" on="1"/>
        <pt x="620" y="724" on="1"/>
        <pt x="440" y="592" on="1"/>
        <pt x="353" y="592" on="1"/>
      </contour>
    </TTGlyph>
    <TTGlyph name="hyphen" xMin="51" yMin="236" xMax="413" yMax="331">
      <contour>
        <pt x="72" y="331" on="1"/>
        <pt x="413" y="331" on="1"/>
        <pt x="392" y="236" on="1"/>
        <pt x="51" y="236" on="1"/>
      </contour>
    </TTGlyph>
    <TTGlyph name="hyphen.cap" xMin="59" yMin="301" xMax="421" yMax="396">
      <component glyphName="hyphen" x="8" y="65" flags="0x4"/>
    </TTGlyph>
    <TTGlyph name="i" xMin="14" yMin="0" xMax="279" yMax="742">
      <contour>
        <pt x="201" y="603" on="1"/>
        <pt x="175" y="603" on="0"/>
        <pt x="140" y="638" on="0"/>
        <pt x="140" y="664" on="1"/>
        <pt x="140" y="695" on="0"/>
        <pt x="186" y="742" on="0"/>
        <pt x="217" y="742" on="1"/>
        <pt x="242" y="742" on="0"/>
        <pt x="279" y="706" on="0"/>
        <pt x="279" y="680" on="1"/>
        <pt x="279" y="649" on="0"/>
        <pt x="232" y="603" on="0"/>
      </contour>
      <contour>
        <pt x="235" y="501" on="1"/>
        <pt x="126" y="0" on="1"/>
        <pt x="14" y="0" on="1"/>
        <pt x="123" y="501" on="1"/>
      </contour>
    </TTGlyph>
    <TTGlyph name="iacute" xMin="14" yMin="0" xMax="422" yMax="724">
      <component glyphName="dotlessi" x="0" y="0" flags="0x204"/>
      <component glyphName="acute" x="-99" y="0" flags="0x4"/>
    </TTGlyph>
    <TTGlyph name="ibreve" xMin="14" yMin="0" xMax="389" yMax="743">
      <component glyphName="dotlessi" x="0" y="0" flags="0x204"/>
      <component glyphName="breve" x="-132" y="0" flags="0x4"/>
    </TTGlyph>
    <TTGlyph name="icircumflex" xMin="14" yMin="0" xMax="371" yMax="726">
      <component glyphName="dotlessi" x="0" y="0" flags="0x204"/>
      <component glyphName="circumflex" x="-132" y="0" flags="0x4"/>
    </TTGlyph>
    <TTGlyph name="idieresis" xMin="14" yMin="0" xMax="373" yMax="727">
      <component glyphName="dotlessi" x="0" y="0" flags="0x204"/>
      <component glyphName="dieresis" x="-157" y="0" flags="0x4"/>
    </TTGlyph>
    <TTGlyph name="idotaccent" xMin="14" yMin="0" xMax="279" yMax="742">
      <component glyphName="i" x="0" y="0" flags="0x4"/>
    </TTGlyph>
    <TTGlyph name="igrave" xMin="-15" yMin="0" xMax="249" yMax="724">
      <component glyphName="dotlessi" x="0" y="0" flags="0x204"/>
      <component glyphName="grave" x="-142" y="0" flags="0x4"/>
    </TTGlyph>
    <TTGlyph name="ij" xMin="14" yMin="-217" xMax="530" yMax="742">
      <component glyphName="i" x="0" y="0" flags="0x4"/>
      <component glyphName="j" x="251" y="0" flags="0x4"/>
    </TTGlyph>
    <TTGlyph name="imacron" xMin="14" yMin="0" xMax="367" yMax="692">
      <component glyphName="dotlessi" x="0" y="0" flags="0x204"/>
      <component glyphName="macron" x="-132" y="0" flags="0x4"/>
    </TTGlyph>
    <TTGlyph name="iogonek" xMin="-63" yMin="-231" xMax="279" yMax="742">
      <contour>
        <pt x="201" y="603" on="1"/>
        <pt x="175" y="603" on="0"/>
        <pt x="140" y="638" on="0"/>
        <pt x="140" y="664" on="1"/>
        <pt x="140" y="695" on="0"/>
        <pt x="186" y="742" on="0"/>
        <pt x="217" y="742" on="1"/>
        <pt x="242" y="742" on="0"/>
        <pt x="279" y="706" on="0"/>
        <pt x="279" y="680" on="1"/>
        <pt x="279" y="649" on="0"/>
        <pt x="232" y="603" on="0"/>
      </contour>
      <contour>
        <pt x="126" y="0" on="1"/>
        <pt x="66" y="-32" on="0"/>
        <pt x="7" y="-96" on="0"/>
        <pt x="7" y="-127" on="1"/>
        <pt x="7" y="-146" on="0"/>
        <pt x="35" y="-170" on="0"/>
        <pt x="58" y="-170" on="1"/>
        <pt x="70" y="-170" on="0"/>
        <pt x="95" y="-164" on="0"/>
        <pt x="104" y="-160" on="1"/>
        <pt x="108" y="-213" on="1"/>
        <pt x="92" y="-222" on="0"/>
        <pt x="51" y="-231" on="0"/>
        <pt x="29" y="-231" on="1"/>
        <pt x="-12" y="-231" on="0"/>
        <pt x="-63" y="-189" on="0"/>
        <pt x="-63" y="-153" on="1"/>
        <pt x="-63" y="-112" on="0"/>
        <pt x="-4" y="-36" on="0"/>
        <pt x="56" y="0" on="1"/>
        <pt x="14" y="0" on="1"/>
        <pt x="123" y="501" on="1"/>
        <pt x="235" y="501" on="1"/>
      </contour>
    </TTGlyph>
    <TTGlyph name="itilde" xMin="14" yMin="0" xMax="402" yMax="725">
      <component glyphName="dotlessi" x="0" y="0" flags="0x204"/>
      <component glyphName="tilde" x="-128" y="0" flags="0x4"/>
    </TTGlyph>
    <TTGlyph name="j" xMin="-122" yMin="-217" xMax="279" yMax="742">
      <contour>
        <pt x="201" y="603" on="1"/>
        <pt x="175" y="603" on="0"/>
        <pt x="140" y="638" on="0"/>
        <pt x="140" y="664" on="1"/>
        <pt x="140" y="695" on="0"/>
        <pt x="186" y="742" on="0"/>
        <pt x="217" y="742" on="1"/>
        <pt x="242" y="742" on="0"/>
        <pt x="279" y="706" on="0"/>
        <pt x="279" y="680" on="1"/>
        <pt x="279" y="649" on="0"/>
        <pt x="232" y="603" on="0"/>
      </contour>
      <contour>
        <pt x="-52" y="-217" on="1"/>
        <pt x="-70" y="-217" on="0"/>
        <pt x="-111" y="-210" on="0"/>
        <pt x="-122" y="-206" on="1"/>
        <pt x="-103" y="-116" on="1"/>
        <pt x="-94" y="-119" on="0"/>
        <pt x="-72" y="-122" on="0"/>
        <pt x="-57" y="-122" on="1"/>
        <pt x="-33" y="-122" on="0"/>
        <pt x="-5" y="-98" on="0"/>
        <pt x="1" y="-71" on="1"/>
        <pt x="123" y="501" on="1"/>
        <pt x="235" y="501" on="1"/>
        <pt x="110" y="-81" on="1"/>
        <pt x="96" y="-146" on="0"/>
        <pt x="11" y="-217" on="0"/>
      </contour>
    </TTGlyph>
    <TTGlyph name="jcircumflex" xMin="-122" yMin="-217" xMax="371" yMax="726">
      <component glyphName="dotlessj" x="0" y="0" flags="0x204"/>
      <component glyphName="circumflex" x="-132" y="0" flags="0x4"/>
    </TTGlyph>
    <TTGlyph name="k" xMin="14" yMin="0" xMax="568" yMax="734">
      <contour>
        <pt x="14" y="0" on="1"/>
        <pt x="165" y="715" on="1"/>
        <pt x="279" y="734" on="1"/>
        <pt x="185" y="283" on="1"/>
        <pt x="428" y="501" on="1"/>
        <pt x="568" y="501" on="1"/>
        <pt x="280" y="252" on="1"/>
        <pt x="468" y="0" on="1"/>
        <pt x="336" y="0" on="1"/>
        <pt x="174" y="228" on="1"/>
        <pt x="126" y="0" on="1"/>
      </contour>
    </TTGlyph>
    <TTGlyph name="kcommaaccent" xMin="14" yMin="-288" xMax="568" yMax="734">
      <component glyphName="k" x="0" y="0" flags="0x204"/>
      <component glyphName="commaaccent" x="152" y="0" flags="0x4"/>
    </TTGlyph>
    <TTGlyph name="kgreenlandic" xMin="14" yMin="0" xMax="570" yMax="501">
      <contour>
        <pt x="14" y="0" on="1"/>
        <pt x="124" y="501" on="1"/>
        <pt x="235" y="501" on="1"/>
        <pt x="187" y="282" on="1"/>
        <pt x="431" y="501" on="1"/>
        <pt x="570" y="501" on="1"/>
        <pt x="279" y="249" on="1"/>
        <pt x="463" y="0" on="1"/>
        <pt x="331" y="0" on="1"/>
        <pt x="175" y="224" on="1"/>
        <pt x="126" y="0" on="1"/>
      </contour>
    </TTGlyph>
    <TTGlyph name="l" xMin="14" yMin="0" xMax="279" yMax="734">
      <contour>
        <pt x="279" y="734" on="1"/>
        <pt x="126" y="0" on="1"/>
        <pt x="14" y="0" on="1"/>
        <pt x="165" y="715" on="1"/>
      </contour>
    </TTGlyph>
    <TTGlyph name="lacute" xMin="14" yMin="0" xMax="461" yMax="920">
      <contour>
        <pt x="318" y="920" on="1"/>
        <pt x="461" y="920" on="1"/>
        <pt x="272" y="787" on="1"/>
        <pt x="169" y="787" on="1"/>
      </contour>
      <contour>
        <pt x="14" y="0" on="1"/>
        <pt x="163" y="712" on="1"/>
        <pt x="274" y="712" on="1"/>
        <pt x="126" y="0" on="1"/>
      </contour>
    </TTGlyph>
    <TTGlyph name="lcaron" xMin="29" yMin="0" xMax="489" yMax="734">
      <component glyphName="l" x="15" y="0" flags="0x4"/>
      <component glyphName="caronSlovak" x="142" y="0" flags="0x4"/>
    </TTGlyph>
    <TTGlyph name="lcommaaccent" xMin="-82" yMin="-288" xMax="279" yMax="734">
      <component glyphName="l" x="0" y="0" flags="0x204"/>
      <component glyphName="commaaccent" x="-5" y="0" flags="0x4"/>
    </TTGlyph>
    <TTGlyph name="ldot" xMin="29" yMin="0" xMax="395" yMax="734">
      <component glyphName="l" x="15" y="0" flags="0x4"/>
      <component glyphName="dotaccent" x="96" y="-310" flags="0x4"/>
    </TTGlyph>
    <TTGlyph name="less" xMin="42" yMin="76" xMax="472" yMax="620">
      <contour>
        <pt x="312" y="76" on="1"/>
        <pt x="42" y="348" on="1"/>
        <pt x="428" y="620" on="1"/>
        <pt x="472" y="549" on="1"/>
        <pt x="173" y="345" on="1"/>
        <pt x="383" y="141" on="1"/>
      </contour>
    </TTGlyph>
    <TTGlyph name="lslash" xMin="-4" yMin="0" xMax="353" yMax="734">
      <contour>
        <pt x="19" y="308" on="1"/>
        <pt x="119" y="373" on="1"/>
        <pt x="191" y="715" on="1"/>
        <pt x="305" y="734" on="1"/>
        <pt x="247" y="458" on="1"/>
        <pt x="353" y="527" on="1"/>
        <pt x="330" y="416" on="1"/>
        <pt x="224" y="347" on="1"/>
        <pt x="152" y="0" on="1"/>
        <pt x="40" y="0" on="1"/>
        <pt x="95" y="262" on="1"/>
        <pt x="-4" y="197" on="1"/>
      </contour>
    </TTGlyph>
    <TTGlyph name="m" xMin="14" yMin="0" xMax="812" yMax="507">
      <contour>
        <pt x="14" y="0" on="1"/>
        <pt x="123" y="501" on="1"/>
        <pt x="235" y="501" on="1"/>
        <pt x="217" y="416" on="1"/>
        <pt x="252" y="462" on="0"/>
        <pt x="330" y="507" on="0"/>
        <pt x="372" y="507" on="1"/>
        <pt x="423" y="507" on="0"/>
        <pt x="491" y="450" on="0"/>
        <pt x="501" y="403" on="1"/>
        <pt x="541" y="454" on="0"/>
        <pt x="632" y="507" on="0"/>
        <pt x="681" y="507" on="1"/>
        <pt x="753" y="507" on="0"/>
        <pt x="824" y="399" on="0"/>
        <pt x="806" y="318" on="1"/>
        <pt x="739" y="0" on="1"/>
        <pt x="627" y="0" on="1"/>
        <pt x="692" y="302" on="1"/>
        <pt x="702" y="353" on="0"/>
        <pt x="660" y="418" on="0"/>
        <pt x="615" y="418" on="1"/>
        <pt x="587" y="418" on="0"/>
        <pt x="533" y="387" on="0"/>
        <pt x="505" y="354" on="1"/>
        <pt x="504" y="345" on="0"/>
        <pt x="502" y="327" on="0"/>
        <pt x="500" y="318" on="1"/>
        <pt x="432" y="0" on="1"/>
        <pt x="321" y="0" on="1"/>
        <pt x="385" y="298" on="1"/>
        <pt x="396" y="352" on="0"/>
        <pt x="354" y="418" on="0"/>
        <pt x="308" y="418" on="1"/>
        <pt x="280" y="418" on="0"/>
        <pt x="230" y="390" on="0"/>
        <pt x="205" y="362" on="1"/>
        <pt x="126" y="0" on="1"/>
      </contour>
    </TTGlyph>
    <TTGlyph name="macron" xMin="191" yMin="618" xMax="499" yMax="692">
      <contour>
        <pt x="499" y="692" on="1"/>
        <pt x="483" y="618" on="1"/>
        <pt x="191" y="618" on="1"/>
        <pt x="207" y="692" on="1"/>
      </contour>
    </TTGlyph>
    <TTGlyph name="minus" xMin="73" yMin="313" xMax="503" yMax="403">
      <contour>
        <pt x="503" y="403" on="1"/>
        <pt x="484" y="313" on="1"/>
        <pt x="73" y="313" on="1"/>
        <pt x="92" y="403" on="1"/>
      </contour>
    </TTGlyph>
    <TTGlyph name="multiply" xMin="61" yMin="147" xMax="516" yMax="569">
      <contour>
        <pt x="105" y="147" on="1"/>
        <pt x="61" y="206" on="1"/>
        <pt x="237" y="361" on="1"/>
        <pt x="128" y="515" on="1"/>
        <pt x="190" y="569" on="1"/>
        <pt x="298" y="416" on="1"/>
        <pt x="472" y="569" on="1"/>
        <pt x="516" y="510" on="1"/>
        <pt x="341" y="355" on="1"/>
        <pt x="449" y="202" on="1"/>
        <pt x="387" y="148" on="1"/>
        <pt x="279" y="301" on="1"/>
      </contour>
    </TTGlyph>
    <TTGlyph name="n" xMin="14" yMin="0" xMax="525" yMax="507">
      <contour>
        <pt x="14" y="0" on="1"/>
        <pt x="123" y="501" on="1"/>
        <pt x="235" y="501" on="1"/>
        <pt x="219" y="426" on="1"/>
        <pt x="253" y="466" on="0"/>
        <pt x="334" y="507" on="0"/>
        <pt x="379" y="507" on="1"/>
        <pt x="459" y="507" on="0"/>
        <pt x="538" y="400" on="0"/>
        <pt x="519" y="317" on="1"/>
        <pt x="451" y="0" on="1"/>
        <pt x="340" y="0" on="1"/>
        <pt x="403" y="291" on="1"/>
        <pt x="416" y="347" on="0"/>
        <pt x="367" y="418" on="0"/>
        <pt x="316" y="418" on="1"/>
        <pt x="285" y="418" on="0"/>
        <pt x="230" y="391" on="0"/>
        <pt x="205" y="364" on="1"/>
        <pt x="126" y="0" on="1"/>
      </contour>
    </TTGlyph>
    <TTGlyph name="nacute" xMin="14" yMin="0" xMax="580" yMax="724">
      <component glyphName="n" x="0" y="0" flags="0x204"/>
      <component glyphName="acute" x="59" y="0" flags="0x4"/>
    </TTGlyph>
    <TTGlyph name="ncaron" xMin="14" yMin="0" xMax="557" yMax="730">
      <component glyphName="n" x="0" y="0" flags="0x204"/>
      <component glyphName="caron" x="28" y="0" flags="0x4"/>
    </TTGlyph>
    <TTGlyph name="ncommaaccent" xMin="14" yMin="-288" xMax="525" yMax="507">
      <component glyphName="n" x="0" y="0" flags="0x204"/>
      <component glyphName="commaaccent" x="154" y="0" flags="0x4"/>
    </TTGlyph>
    <TTGlyph name="nine" xMin="24" yMin="-10" xMax="596" yMax="706">
      <contour>
        <pt x="352" y="706" on="1"/>
        <pt x="462" y="706" on="0"/>
        <pt x="596" y="556" on="0"/>
        <pt x="596" y="431" on="1"/>
        <pt x="596" y="341" on="0"/>
        <pt x="536" y="180" on="0"/>
        <pt x="434" y="61" on="0"/>
        <pt x="296" y="-10" on="0"/>
        <pt x="219" y="-10" on="1"/>
        <pt x="162" y="-10" on="0"/>
        <pt x="61" y="28" on="0"/>
        <pt x="24" y="62" on="1"/>
        <pt x="97" y="137" on="1"/>
        <pt x="125" y="112" on="0"/>
        <pt x="194" y="86" on="0"/>
        <pt x="234" y="86" on="1"/>
        <pt x="279" y="86" on="0"/>
        <pt x="361" y="127" on="0"/>
        <pt x="427" y="199" on="0"/>
        <pt x="473" y="298" on="0"/>
        <pt x="483" y="355" on="1"/>
        <pt x="442" y="311" on="0"/>
        <pt x="341" y="264" on="0"/>
        <pt x="290" y="264" on="1"/>
        <pt x="202" y="264" on="0"/>
        <pt x="87" y="372" on="0"/>
        <pt x="87" y="455" on="1"/>
        <pt x="87" y="506" on="0"/>
        <pt x="129" y="598" on="0"/>
        <pt x="202" y="666" on="0"/>
        <pt x="298" y="706" on="0"/>
      </contour>
      <contour>
        <pt x="490" y="435" on="1"/>
        <pt x="490" y="516" on="0"/>
        <pt x="411" y="612" on="0"/>
        <pt x="345" y="612" on="1"/>
        <pt x="282" y="612" on="0"/>
        <pt x="193" y="527" on="0"/>
        <pt x="193" y="469" on="1"/>
        <pt x="193" y="417" on="0"/>
        <pt x="265" y="349" on="0"/>
        <pt x="319" y="349" on="1"/>
        <pt x="364" y="349" on="0"/>
        <pt x="452" y="384" on="0"/>
        <pt x="490" y="418" on="1"/>
      </contour>
    </TTGlyph>
    <TTGlyph name="notequal" xMin="36" yMin="104" xMax="536" yMax="604">
      <contour>
        <pt x="36" y="104" on="1"/>
        <pt x="132" y="220" on="1"/>
        <pt x="53" y="220" on="1"/>
        <pt x="72" y="309" on="1"/>
        <pt x="206" y="309" on="1"/>
        <pt x="282" y="400" on="1"/>
        <pt x="91" y="400" on="1"/>
        <pt x="110" y="489" on="1"/>
        <pt x="356" y="489" on="1"/>
        <pt x="451" y="604" on="1"/>
        <pt x="536" y="604" on="1"/>
        <pt x="441" y="489" on="1"/>
        <pt x="522" y="489" on="1"/>
        <pt x="503" y="400" on="1"/>
        <pt x="367" y="400" on="1"/>
        <pt x="292" y="309" on="1"/>
        <pt x="483" y="309" on="1"/>
        <pt x="464" y="220" on="1"/>
        <pt x="218" y="220" on="1"/>
        <pt x="122" y="104" on="1"/>
      </contour>
    </TTGlyph>
    <TTGlyph name="ntilde" xMin="14" yMin="0" xMax="560" yMax="725">
      <component glyphName="n" x="0" y="0" flags="0x204"/>
      <component glyphName="tilde" x="30" y="0" flags="0x4"/>
    </TTGlyph>
    <TTGlyph name="numbersign" xMin="-6" yMin="0" xMax="728" yMax="700">
      <contour>
        <pt x="-6" y="0" on="1"/>
        <pt x="106" y="203" on="1"/>
        <pt x="21" y="203" on="1"/>
        <pt x="39" y="286" on="1"/>
        <pt x="151" y="286" on="1"/>
        <pt x="222" y="414" on="1"/>
        <pt x="112" y="414" on="1"/>
        <pt x="130" y="497" on="1"/>
        <pt x="267" y="497" on="1"/>
        <pt x="379" y="700" on="1"/>
        <pt x="476" y="700" on="1"/>
        <pt x="365" y="497" on="1"/>
        <pt x="520" y="497" on="1"/>
        <pt x="631" y="700" on="1"/>
        <pt x="728" y="700" on="1"/>
        <pt x="617" y="497" on="1"/>
        <pt x="701" y="497" on="1"/>
        <pt x="683" y="414" on="1"/>
        <pt x="571" y="414" on="1"/>
        <pt x="501" y="286" on="1"/>
        <pt x="609" y="286" on="1"/>
        <pt x="591" y="203" on="1"/>
        <pt x="455" y="203" on="1"/>
        <pt x="344" y="0" on="1"/>
        <pt x="247" y="0" on="1"/>
        <pt x="358" y="203" on="1"/>
        <pt x="203" y="203" on="1"/>
        <pt x="92" y="0" on="1"/>
      </contour>
      <contour>
        <pt x="249" y="286" on="1"/>
        <pt x="404" y="286" on="1"/>
        <pt x="474" y="414" on="1"/>
        <pt x="319" y="414" on="1"/>
      </contour>
    </TTGlyph>
    <TTGlyph name="o" xMin="46" yMin="-10" xMax="541" yMax="509">
      <contour>
        <pt x="46" y="224" on="1"/>
        <pt x="46" y="283" on="0"/>
        <pt x="89" y="387" on="0"/>
        <pt x="162" y="464" on="0"/>
        <pt x="261" y="509" on="0"/>
        <pt x="317" y="509" on="1"/>
        <pt x="366" y="509" on="0"/>
        <pt x="449" y="474" on="0"/>
        <pt x="508" y="413" on="0"/>
        <pt x="541" y="327" on="0"/>
        <pt x="541" y="276" on="1"/>
        <pt x="541" y="217" on="0"/>
        <pt x="498" y="113" on="0"/>
        <pt x="425" y="35" on="0"/>
        <pt x="326" y="-10" on="0"/>
        <pt x="271" y="-10" on="1"/>
        <pt x="222" y="-10" on="0"/>
        <pt x="140" y="25" on="0"/>
        <pt x="80" y="87" on="0"/>
        <pt x="46" y="173" on="0"/>
      </contour>
      <contour>
        <pt x="277" y="88" on="1"/>
        <pt x="342" y="88" on="0"/>
        <pt x="432" y="196" on="0"/>
        <pt x="432" y="274" on="1"/>
        <pt x="432" y="336" on="0"/>
        <pt x="365" y="413" on="0"/>
        <pt x="310" y="413" on="1"/>
        <pt x="278" y="413" on="0"/>
        <pt x="221" y="384" on="0"/>
        <pt x="180" y="334" on="0"/>
        <pt x="156" y="266" on="0"/>
        <pt x="156" y="228" on="1"/>
        <pt x="156" y="165" on="0"/>
        <pt x="223" y="88" on="0"/>
      </contour>
    </TTGlyph>
    <TTGlyph name="oacute" xMin="46" yMin="-10" xMax="563" yMax="724">
      <component glyphName="o" x="0" y="0" flags="0x204"/>
      <component glyphName="acute" x="42" y="0" flags="0x4"/>
    </TTGlyph>
    <TTGlyph name="obreve" xMin="46" yMin="-10" xMax="541" yMax="743">
      <component glyphName="o" x="0" y="0" flags="0x204"/>
      <component glyphName="breve" x="9" y="0" flags="0x4"/>
    </TTGlyph>
    <TTGlyph name="ocircumflex" xMin="46" yMin="-10" xMax="541" yMax="726">
      <component glyphName="o" x="0" y="0" flags="0x204"/>
      <component glyphName="circumflex" x="8" y="0" flags="0x4"/>
    </TTGlyph>
    <TTGlyph name="odieresis" xMin="46" yMin="-10" xMax="541" yMax="727">
      <component glyphName="o" x="0" y="0" flags="0x204"/>
      <component glyphName="dieresis" x="-16" y="0" flags="0x4"/>
    </TTGlyph>
    <TTGlyph name="oe" xMin="46" yMin="-10" xMax="907" yMax="509">
      <contour>
        <pt x="46" y="224" on="1"/>
        <pt x="46" y="283" on="0"/>
        <pt x="89" y="387" on="0"/>
        <pt x="162" y="464" on="0"/>
        <pt x="261" y="509" on="0"/>
        <pt x="317" y="509" on="1"/>
        <pt x="377" y="509" on="0"/>
        <pt x="473" y="456" on="0"/>
        <pt x="501" y="410" on="1"/>
        <pt x="537" y="455" on="0"/>
        <pt x="639" y="508" on="0"/>
        <pt x="698" y="508" on="1"/>
        <pt x="790" y="508" on="0"/>
        <pt x="907" y="384" on="0"/>
        <pt x="907" y="286" on="1"/>
        <pt x="907" y="268" on="0"/>
        <pt x="904" y="238" on="0"/>
        <pt x="902" y="223" on="1"/>
        <pt x="541" y="223" on="1"/>
        <pt x="542" y="163" on="0"/>
        <pt x="621" y="84" on="0"/>
        <pt x="679" y="84" on="1"/>
        <pt x="711" y="84" on="0"/>
        <pt x="771" y="105" on="0"/>
        <pt x="793" y="125" on="1"/>
        <pt x="853" y="51" on="1"/>
        <pt x="807" y="19" on="0"/>
        <pt x="719" y="-10" on="0"/>
        <pt x="669" y="-10" on="1"/>
        <pt x="605" y="-10" on="0"/>
        <pt x="503" y="44" on="0"/>
        <pt x="473" y="90" on="1"/>
        <pt x="436" y="44" on="0"/>
        <pt x="331" y="-10" on="0"/>
        <pt x="271" y="-10" on="1"/>
        <pt x="222" y="-10" on="0"/>
        <pt x="140" y="25" on="0"/>
        <pt x="80" y="87" on="0"/>
        <pt x="46" y="173" on="0"/>
      </contour>
      <contour>
        <pt x="691" y="415" on="1"/>
        <pt x="642" y="415" on="0"/>
        <pt x="565" y="346" on="0"/>
        <pt x="550" y="292" on="1"/>
        <pt x="806" y="292" on="1"/>
        <pt x="803" y="346" on="0"/>
        <pt x="739" y="415" on="0"/>
      </contour>
      <contour>
        <pt x="277" y="88" on="1"/>
        <pt x="342" y="88" on="0"/>
        <pt x="432" y="196" on="0"/>
        <pt x="432" y="274" on="1"/>
        <pt x="432" y="336" on="0"/>
        <pt x="365" y="413" on="0"/>
        <pt x="310" y="413" on="1"/>
        <pt x="278" y="413" on="0"/>
        <pt x="221" y="384" on="0"/>
        <pt x="180" y="334" on="0"/>
        <pt x="156" y="266" on="0"/>
        <pt x="156" y="228" on="1"/>
        <pt x="156" y="165" on="0"/>
        <pt x="223" y="88" on="0"/>
      </contour>
    </TTGlyph>
    <TTGlyph name="ogonek" xMin="73" yMin="-231" xMax="262" yMax="20">
      <contour>
        <pt x="262" y="0" on="1"/>
        <pt x="202" y="-32" on="0"/>
        <pt x="143" y="-96" on="0"/>
        <pt x="143" y="-127" on="1"/>
        <pt x="143" y="-146" on="0"/>
        <pt x="171" y="-170" on="0"/>
        <pt x="194" y="-170" on="1"/>
        <pt x="206" y="-170" on="0"/>
        <pt x="231" y="-164" on="0"/>
        <pt x="240" y="-160" on="1"/>
        <pt x="244" y="-213" on="1"/>
        <pt x="228" y="-222" on="0"/>
        <pt x="187" y="-231" on="0"/>
        <pt x="165" y="-231" on="1"/>
        <pt x="124" y="-231" on="0"/>
        <pt x="73" y="-189" on="0"/>
        <pt x="73" y="-153" on="1"/>
        <pt x="73" y="-106" on="0"/>
        <pt x="150" y="-20" on="0"/>
        <pt x="228" y="20" on="1"/>
      </contour>
    </TTGlyph>
    <TTGlyph name="ograve" xMin="46" yMin="-10" xMax="541" yMax="724">
      <component glyphName="o" x="0" y="0" flags="0x204"/>
      <component glyphName="grave" x="-2" y="0" flags="0x4"/>
    </TTGlyph>
    <TTGlyph name="ohungarumlaut" xMin="46" yMin="-10" xMax="638" yMax="724">
      <component glyphName="o" x="0" y="0" flags="0x204"/>
      <component glyphName="hungarumlaut" x="18" y="0" flags="0x4"/>
    </TTGlyph>
    <TTGlyph name="omacron" xMin="46" yMin="-10" xMax="541" yMax="692">
      <component glyphName="o" x="0" y="0" flags="0x204"/>
      <component glyphName="macron" x="9" y="0" flags="0x4"/>
    </TTGlyph>
    <TTGlyph name="one" xMin="94" yMin="0" xMax="359" yMax="700">
      <contour>
        <pt x="359" y="700" on="1"/>
        <pt x="210" y="0" on="1"/>
        <pt x="103" y="0" on="1"/>
        <pt x="227" y="586" on="1"/>
        <pt x="94" y="532" on="1"/>
        <pt x="115" y="629" on="1"/>
        <pt x="292" y="700" on="1"/>
      </contour>
    </TTGlyph>
    <TTGlyph name="onehalf" xMin="-2" yMin="0" xMax="641" yMax="700">
      <component glyphName="onesuperior" x="0" y="0" flags="0x4"/>
      <component glyphName="fraction" x="13" y="0" flags="0x4"/>
      <component glyphName="uni2082" x="371" y="0" flags="0x4"/>
    </TTGlyph>
    <TTGlyph name="onequarter" xMin="1" yMin="0" xMax="617" yMax="700">
      <component glyphName="uni2084" x="296" y="0" flags="0x4"/>
      <component glyphName="onesuperior" x="0" y="0" flags="0x4"/>
      <component glyphName="fraction" x="16" y="0" flags="0x4"/>
    </TTGlyph>
    <TTGlyph name="onesuperior" xMin="94" yMin="350" xMax="251" yMax="700">
      <component glyphName="uni2081" x="74" y="350" flags="0x4"/>
    </TTGlyph>
    <TTGlyph name="ordfeminine" xMin="70" yMin="311" xMax="439" yMax="710">
      <contour>
        <pt x="199" y="311" on="1"/>
        <pt x="140" y="311" on="0"/>
        <pt x="70" y="370" on="0"/>
        <pt x="70" y="419" on="1"/>
        <pt x="70" y="478" on="0"/>
        <pt x="157" y="547" on="0"/>
        <pt x="231" y="547" on="1"/>
        <pt x="259" y="547" on="0"/>
        <pt x="316" y="534" on="0"/>
        <pt x="341" y="522" on="1"/>
        <pt x="347" y="549" on="1"/>
        <pt x="356" y="592" on="0"/>
        <pt x="315" y="634" on="0"/>
        <pt x="265" y="634" on="1"/>
        <pt x="244" y="634" on="0"/>
        <pt x="191" y="621" on="0"/>
        <pt x="154" y="608" on="1"/>
        <pt x="132" y="676" on="1"/>
        <pt x="174" y="693" on="0"/>
        <pt x="250" y="710" on="0"/>
        <pt x="284" y="710" on="1"/>
        <pt x="370" y="710" on="0"/>
        <pt x="451" y="624" on="0"/>
        <pt x="435" y="551" on="1"/>
        <pt x="385" y="316" on="1"/>
        <pt x="297" y="316" on="1"/>
        <pt x="303" y="344" on="1"/>
        <pt x="278" y="327" on="0"/>
        <pt x="227" y="311" on="0"/>
      </contour>
      <contour>
        <pt x="155" y="427" on="1"/>
        <pt x="155" y="402" on="0"/>
        <pt x="195" y="376" on="0"/>
        <pt x="231" y="376" on="1"/>
        <pt x="253" y="376" on="0"/>
        <pt x="296" y="389" on="0"/>
        <pt x="315" y="402" on="1"/>
        <pt x="329" y="464" on="1"/>
        <pt x="309" y="474" on="0"/>
        <pt x="262" y="486" on="0"/>
        <pt x="238" y="486" on="1"/>
        <pt x="201" y="486" on="0"/>
        <pt x="155" y="453" on="0"/>
      </contour>
    </TTGlyph>
    <TTGlyph name="ordmasculine" xMin="86" yMin="308" xMax="488" yMax="710">
      <contour>
        <pt x="86" y="494" on="1"/>
        <pt x="86" y="538" on="0"/>
        <pt x="120" y="617" on="0"/>
        <pt x="179" y="676" on="0"/>
        <pt x="257" y="710" on="0"/>
        <pt x="301" y="710" on="1"/>
        <pt x="381" y="710" on="0"/>
        <pt x="488" y="604" on="0"/>
        <pt x="488" y="524" on="1"/>
        <pt x="488" y="480" on="0"/>
        <pt x="454" y="402" on="0"/>
        <pt x="395" y="343" on="0"/>
        <pt x="317" y="308" on="0"/>
        <pt x="274" y="308" on="1"/>
        <pt x="194" y="308" on="0"/>
        <pt x="86" y="415" on="0"/>
      </contour>
      <contour>
        <pt x="400" y="520" on="1"/>
        <pt x="400" y="568" on="0"/>
        <pt x="341" y="630" on="0"/>
        <pt x="296" y="630" on="1"/>
        <pt x="246" y="630" on="0"/>
        <pt x="174" y="552" on="0"/>
        <pt x="174" y="498" on="1"/>
        <pt x="174" y="450" on="0"/>
        <pt x="233" y="387" on="0"/>
        <pt x="279" y="387" on="1"/>
        <pt x="328" y="387" on="0"/>
        <pt x="400" y="466" on="0"/>
      </contour>
    </TTGlyph>
    <TTGlyph name="oslash" xMin="-6" yMin="-10" xMax="595" yMax="509">
      <contour>
        <pt x="-6" y="-5" on="1"/>
        <pt x="86" y="86" on="1"/>
        <pt x="67" y="114" on="0"/>
        <pt x="46" y="184" on="0"/>
        <pt x="46" y="224" on="1"/>
        <pt x="46" y="283" on="0"/>
        <pt x="89" y="387" on="0"/>
        <pt x="162" y="464" on="0"/>
        <pt x="261" y="509" on="0"/>
        <pt x="317" y="509" on="1"/>
        <pt x="360" y="509" on="0"/>
        <pt x="434" y="483" on="0"/>
        <pt x="462" y="459" on="1"/>
        <pt x="509" y="506" on="1"/>
        <pt x="595" y="506" on="1"/>
        <pt x="502" y="414" on="1"/>
        <pt x="521" y="386" on="0"/>
        <pt x="541" y="316" on="0"/>
        <pt x="541" y="276" on="1"/>
        <pt x="541" y="217" on="0"/>
        <pt x="498" y="113" on="0"/>
        <pt x="425" y="35" on="0"/>
        <pt x="326" y="-10" on="0"/>
        <pt x="271" y="-10" on="1"/>
        <pt x="228" y="-10" on="0"/>
        <pt x="154" y="17" on="0"/>
        <pt x="126" y="41" on="1"/>
        <pt x="79" y="-5" on="1"/>
      </contour>
      <contour>
        <pt x="156" y="228" on="1"/>
        <pt x="156" y="211" on="0"/>
        <pt x="162" y="179" on="0"/>
        <pt x="166" y="166" on="1"/>
        <pt x="388" y="386" on="1"/>
        <pt x="372" y="399" on="0"/>
        <pt x="333" y="413" on="0"/>
        <pt x="310" y="413" on="1"/>
        <pt x="278" y="413" on="0"/>
        <pt x="221" y="384" on="0"/>
        <pt x="180" y="334" on="0"/>
        <pt x="156" y="266" on="0"/>
      </contour>
      <contour>
        <pt x="277" y="88" on="1"/>
        <pt x="342" y="88" on="0"/>
        <pt x="432" y="196" on="0"/>
        <pt x="432" y="274" on="1"/>
        <pt x="432" y="290" on="0"/>
        <pt x="427" y="322" on="0"/>
        <pt x="422" y="335" on="1"/>
        <pt x="200" y="115" on="1"/>
        <pt x="215" y="102" on="0"/>
        <pt x="255" y="88" on="0"/>
      </contour>
    </TTGlyph>
    <TTGlyph name="otilde" xMin="46" yMin="-10" xMax="543" yMax="725">
      <component glyphName="o" x="0" y="0" flags="0x204"/>
      <component glyphName="tilde" x="13" y="0" flags="0x4"/>
    </TTGlyph>
    <TTGlyph name="p" xMin="-30" yMin="-212" xMax="552" yMax="504">
      <contour>
        <pt x="-30" y="-212" on="1"/>
        <pt x="123" y="501" on="1"/>
        <pt x="233" y="501" on="1"/>
        <pt x="222" y="448" on="1"/>
        <pt x="250" y="475" on="0"/>
        <pt x="319" y="504" on="0"/>
        <pt x="358" y="504" on="1"/>
        <pt x="399" y="504" on="0"/>
        <pt x="470" y="469" on="0"/>
        <pt x="522" y="408" on="0"/>
        <pt x="552" y="325" on="0"/>
        <pt x="552" y="277" on="1"/>
        <pt x="552" y="219" on="0"/>
        <pt x="511" y="115" on="0"/>
        <pt x="442" y="39" on="0"/>
        <pt x="349" y="-6" on="0"/>
        <pt x="296" y="-6" on="1"/>
        <pt x="246" y="-6" on="0"/>
        <pt x="167" y="36" on="0"/>
        <pt x="143" y="76" on="1"/>
        <pt x="81" y="-212" on="1"/>
      </contour>
      <contour>
        <pt x="312" y="410" on="1"/>
        <pt x="282" y="410" on="0"/>
        <pt x="229" y="389" on="0"/>
        <pt x="206" y="367" on="1"/>
        <pt x="160" y="154" on="1"/>
        <pt x="178" y="125" on="0"/>
        <pt x="242" y="90" on="0"/>
        <pt x="279" y="90" on="1"/>
        <pt x="348" y="90" on="0"/>
        <pt x="443" y="193" on="0"/>
        <pt x="443" y="267" on="1"/>
        <pt x="443" y="330" on="0"/>
        <pt x="369" y="410" on="0"/>
      </contour>
    </TTGlyph>
    <TTGlyph name="paragraph" xMin="93" yMin="0" xMax="682" yMax="700">
      <contour>
        <pt x="255" y="0" on="1"/>
        <pt x="311" y="266" on="1"/>
        <pt x="294" y="266" on="1"/>
        <pt x="204" y="266" on="0"/>
        <pt x="93" y="370" on="0"/>
        <pt x="93" y="454" on="1"/>
        <pt x="93" y="507" on="0"/>
        <pt x="130" y="598" on="0"/>
        <pt x="195" y="663" on="0"/>
        <pt x="286" y="700" on="0"/>
        <pt x="340" y="700" on="1"/>
        <pt x="682" y="700" on="1"/>
        <pt x="533" y="0" on="1"/>
        <pt x="443" y="0" on="1"/>
        <pt x="500" y="266" on="1"/>
        <pt x="402" y="266" on="1"/>
        <pt x="346" y="0" on="1"/>
      </contour>
      <contour>
        <pt x="519" y="358" on="1"/>
        <pt x="572" y="607" on="1"/>
        <pt x="475" y="607" on="1"/>
        <pt x="422" y="358" on="1"/>
      </contour>
      <contour>
        <pt x="300" y="358" on="1"/>
        <pt x="331" y="358" on="1"/>
        <pt x="384" y="607" on="1"/>
        <pt x="326" y="607" on="1"/>
        <pt x="267" y="607" on="0"/>
        <pt x="189" y="527" on="0"/>
        <pt x="189" y="467" on="1"/>
        <pt x="189" y="417" on="0"/>
        <pt x="249" y="358" on="0"/>
      </contour>
    </TTGlyph>
    <TTGlyph name="parenleft" xMin="55" yMin="-218" xMax="444" yMax="711">
      <contour>
        <pt x="55" y="136" on="1"/>
        <pt x="55" y="229" on="0"/>
        <pt x="104" y="404" on="0"/>
        <pt x="193" y="553" on="0"/>
        <pt x="321" y="673" on="0"/>
        <pt x="400" y="711" on="1"/>
        <pt x="444" y="634" on="1"/>
        <pt x="379" y="602" on="0"/>
        <pt x="272" y="499" on="0"/>
        <pt x="197" y="373" on="0"/>
        <pt x="156" y="225" on="0"/>
        <pt x="156" y="147" on="1"/>
        <pt x="156" y="53" on="0"/>
        <pt x="220" y="-99" on="0"/>
        <pt x="281" y="-152" on="1"/>
        <pt x="208" y="-218" on="1"/>
        <pt x="133" y="-157" on="0"/>
        <pt x="55" y="24" on="0"/>
      </contour>
    </TTGlyph>
    <TTGlyph name="parenright" xMin="-39" yMin="-218" xMax="350" yMax="711">
      <contour>
        <pt x="350" y="357" on="1"/>
        <pt x="350" y="264" on="0"/>
        <pt x="301" y="89" on="0"/>
        <pt x="212" y="-60" on="0"/>
        <pt x="84" y="-180" on="0"/>
        <pt x="5" y="-218" on="1"/>
        <pt x="-39" y="-141" on="1"/>
        <pt x="26" y="-109" on="0"/>
        <pt x="133" y="-6" on="0"/>
        <pt x="208" y="120" on="0"/>
        <pt x="249" y="268" on="0"/>
        <pt x="249" y="346" on="1"/>
        <pt x="249" y="440" on="0"/>
        <pt x="185" y="592" on="0"/>
        <pt x="124" y="645" on="1"/>
        <pt x="197" y="711" on="1"/>
        <pt x="272" y="650" on="0"/>
        <pt x="350" y="469" on="0"/>
      </contour>
    </TTGlyph>
    <TTGlyph name="percent" xMin="80" yMin="-5" xMax="745" yMax="706">
      <component glyphName="uni2070" x="0" y="0" flags="0x4"/>
      <component glyphName="fraction" x="117" y="0" flags="0x4"/>
      <component glyphName="uni2080" x="433" y="0" flags="0x4"/>
    </TTGlyph>
    <TTGlyph name="period" xMin="9" yMin="-9" xMax="147" yMax="136">
      <contour>
        <pt x="87" y="136" on="1"/>
        <pt x="112" y="136" on="0"/>
        <pt x="147" y="99" on="0"/>
        <pt x="147" y="72" on="1"/>
        <pt x="147" y="40" on="0"/>
        <pt x="101" y="-9" on="0"/>
        <pt x="70" y="-9" on="1"/>
        <pt x="44" y="-9" on="0"/>
        <pt x="9" y="28" on="0"/>
        <pt x="9" y="55" on="1"/>
        <pt x="9" y="88" on="0"/>
        <pt x="56" y="136" on="0"/>
      </contour>
    </TTGlyph>
    <TTGlyph name="periodcentered" xMin="68" yMin="213" xMax="206" yMax="358">
      <component glyphName="period" x="59" y="222" flags="0x4"/>
    </TTGlyph>
    <TTGlyph name="periodcentered.cap" xMin="97" yMin="278" xMax="235" yMax="423">
      <component glyphName="periodcentered" x="29" y="65" flags="0x4"/>
    </TTGlyph>
    <TTGlyph name="perthousand" xMin="80" yMin="-5" xMax="1093" yMax="706">
      <component glyphName="uni2070" x="0" y="0" flags="0x4"/>
      <component glyphName="fraction" x="117" y="0" flags="0x4"/>
      <component glyphName="uni2080" x="433" y="0" flags="0x4"/>
      <component glyphName="uni2080" x="781" y="0" flags="0x4"/>
    </TTGlyph>
    <TTGlyph name="plus" xMin="73" yMin="135" xMax="503" yMax="578">
      <contour>
        <pt x="283" y="135" on="1"/>
        <pt x="198" y="135" on="1"/>
        <pt x="236" y="313" on="1"/>
        <pt x="73" y="313" on="1"/>
        <pt x="92" y="403" on="1"/>
        <pt x="255" y="403" on="1"/>
        <pt x="293" y="578" on="1"/>
        <pt x="378" y="578" on="1"/>
        <pt x="340" y="403" on="1"/>
        <pt x="503" y="403" on="1"/>
        <pt x="484" y="313" on="1"/>
        <pt x="321" y="313" on="1"/>
      </contour>
    </TTGlyph>
    <TTGlyph name="plusminus" xMin="6" yMin="-1" xMax="512" yMax="605">
      <contour>
        <pt x="295" y="189" on="1"/>
        <pt x="210" y="189" on="1"/>
        <pt x="245" y="354" on="1"/>
        <pt x="82" y="354" on="1"/>
        <pt x="101" y="443" on="1"/>
        <pt x="264" y="443" on="1"/>
        <pt x="299" y="605" on="1"/>
        <pt x="383" y="605" on="1"/>
        <pt x="349" y="443" on="1"/>
        <pt x="512" y="443" on="1"/>
        <pt x="493" y="354" on="1"/>
        <pt x="330" y="354" on="1"/>
      </contour>
      <contour>
        <pt x="437" y="89" on="1"/>
        <pt x="418" y="-1" on="1"/>
        <pt x="6" y="-1" on="1"/>
        <pt x="25" y="89" on="1"/>
      </contour>
    </TTGlyph>
    <TTGlyph name="q" xMin="46" yMin="-212" xMax="583" yMax="505">
      <contour>
        <pt x="241" y="-5" on="1"/>
        <pt x="200" y="-5" on="0"/>
        <pt x="128" y="30" on="0"/>
        <pt x="76" y="91" on="0"/>
        <pt x="46" y="175" on="0"/>
        <pt x="46" y="223" on="1"/>
        <pt x="46" y="281" on="0"/>
        <pt x="87" y="384" on="0"/>
        <pt x="156" y="460" on="0"/>
        <pt x="249" y="505" on="0"/>
        <pt x="302" y="505" on="1"/>
        <pt x="352" y="505" on="0"/>
        <pt x="431" y="462" on="0"/>
        <pt x="456" y="422" on="1"/>
        <pt x="473" y="501" on="1"/>
        <pt x="583" y="501" on="1"/>
        <pt x="430" y="-212" on="1"/>
        <pt x="318" y="-212" on="1"/>
        <pt x="374" y="47" on="1"/>
        <pt x="348" y="22" on="0"/>
        <pt x="279" y="-5" on="0"/>
      </contour>
      <contour>
        <pt x="156" y="232" on="1"/>
        <pt x="156" y="169" on="0"/>
        <pt x="229" y="89" on="0"/>
        <pt x="286" y="89" on="1"/>
        <pt x="315" y="89" on="0"/>
        <pt x="369" y="110" on="0"/>
        <pt x="392" y="132" on="1"/>
        <pt x="439" y="347" on="1"/>
        <pt x="420" y="375" on="0"/>
        <pt x="356" y="409" on="0"/>
        <pt x="319" y="409" on="1"/>
        <pt x="250" y="409" on="0"/>
        <pt x="156" y="307" on="0"/>
      </contour>
    </TTGlyph>
    <TTGlyph name="question" xMin="94" yMin="-9" xMax="528" yMax="708">
      <contour>
        <pt x="387" y="352" on="1"/>
        <pt x="342" y="326" on="1"/>
        <pt x="305" y="305" on="0"/>
        <pt x="271" y="256" on="0"/>
        <pt x="264" y="217" on="1"/>
        <pt x="173" y="217" on="1"/>
        <pt x="183" y="282" on="0"/>
        <pt x="235" y="361" on="0"/>
        <pt x="286" y="391" on="1"/>
        <pt x="346" y="428" on="1"/>
        <pt x="382" y="450" on="0"/>
        <pt x="420" y="503" on="0"/>
        <pt x="420" y="531" on="1"/>
        <pt x="420" y="567" on="0"/>
        <pt x="362" y="611" on="0"/>
        <pt x="316" y="611" on="1"/>
        <pt x="275" y="611" on="0"/>
        <pt x="197" y="570" on="0"/>
        <pt x="169" y="533" on="1"/>
        <pt x="94" y="581" on="1"/>
        <pt x="138" y="641" on="0"/>
        <pt x="264" y="708" on="0"/>
        <pt x="331" y="708" on="1"/>
        <pt x="418" y="708" on="0"/>
        <pt x="528" y="619" on="0"/>
        <pt x="528" y="547" on="1"/>
        <pt x="528" y="490" on="0"/>
        <pt x="461" y="396" on="0"/>
      </contour>
      <contour>
        <pt x="198" y="131" on="1"/>
        <pt x="224" y="131" on="0"/>
        <pt x="258" y="95" on="0"/>
        <pt x="258" y="69" on="1"/>
        <pt x="258" y="38" on="0"/>
        <pt x="212" y="-9" on="0"/>
        <pt x="182" y="-9" on="1"/>
        <pt x="156" y="-9" on="0"/>
        <pt x="121" y="26" on="0"/>
        <pt x="121" y="52" on="1"/>
        <pt x="121" y="84" on="0"/>
        <pt x="167" y="131" on="0"/>
      </contour>
    </TTGlyph>
    <TTGlyph name="questiondown" xMin="34" yMin="-6" xMax="468" yMax="711">
      <contour>
        <pt x="175" y="350" on="1"/>
        <pt x="220" y="376" on="1"/>
        <pt x="257" y="397" on="0"/>
        <pt x="291" y="446" on="0"/>
        <pt x="298" y="485" on="1"/>
        <pt x="389" y="485" on="1"/>
        <pt x="379" y="420" on="0"/>
        <pt x="327" y="341" on="0"/>
        <pt x="276" y="311" on="1"/>
        <pt x="216" y="274" on="1"/>
        <pt x="180" y="252" on="0"/>
        <pt x="142" y="199" on="0"/>
        <pt x="142" y="171" on="1"/>
        <pt x="142" y="135" on="0"/>
        <pt x="200" y="91" on="0"/>
        <pt x="246" y="91" on="1"/>
        <pt x="287" y="91" on="0"/>
        <pt x="365" y="132" on="0"/>
        <pt x="393" y="169" on="1"/>
        <pt x="468" y="121" on="1"/>
        <pt x="424" y="61" on="0"/>
        <pt x="298" y="-6" on="0"/>
        <pt x="231" y="-6" on="1"/>
        <pt x="144" y="-6" on="0"/>
        <pt x="34" y="83" on="0"/>
        <pt x="34" y="155" on="1"/>
        <pt x="34" y="212" on="0"/>
        <pt x="101" y="306" on="0"/>
      </contour>
      <contour>
        <pt x="364" y="571" on="1"/>
        <pt x="338" y="571" on="0"/>
        <pt x="304" y="607" on="0"/>
        <pt x="304" y="633" on="1"/>
        <pt x="304" y="664" on="0"/>
        <pt x="350" y="711" on="0"/>
        <pt x="380" y="711" on="1"/>
        <pt x="406" y="711" on="0"/>
        <pt x="441" y="676" on="0"/>
        <pt x="441" y="650" on="1"/>
        <pt x="441" y="618" on="0"/>
        <pt x="395" y="571" on="0"/>
      </contour>
    </TTGlyph>
    <TTGlyph name="quotedbl" xMin="123" yMin="489" xMax="446" yMax="750">
      <component glyphName="quotesingle" x="0" y="0" flags="0x4"/>
      <component glyphName="quotesingle" x="177" y="0" flags="0x4"/>
    </TTGlyph>
    <TTGlyph name="quotedblbase" xMin="-71" yMin="-166" xMax="352" yMax="98">
      <component glyphName="comma" x="193" y="0" flags="0x4"/>
      <component glyphName="comma" x="0" y="0" flags="0x4"/>
    </TTGlyph>
    <TTGlyph name="quotedblleft" xMin="86" yMin="486" xMax="507" yMax="750">
      <contour>
        <pt x="199" y="486" on="1"/>
        <pt x="86" y="486" on="1"/>
        <pt x="234" y="750" on="1"/>
        <pt x="316" y="750" on="1"/>
      </contour>
      <contour>
        <pt x="390" y="486" on="1"/>
        <pt x="277" y="486" on="1"/>
        <pt x="425" y="750" on="1"/>
        <pt x="507" y="750" on="1"/>
      </contour>
    </TTGlyph>
    <TTGlyph name="quotedblright" xMin="99" yMin="486" xMax="520" yMax="750">
      <component glyphName="comma" x="361" y="652" flags="0x4"/>
      <component glyphName="comma" x="170" y="652" flags="0x4"/>
    </TTGlyph>
    <TTGlyph name="quoteleft" xMin="89" yMin="486" xMax="319" yMax="750">
      <contour>
        <pt x="202" y="486" on="1"/>
        <pt x="89" y="486" on="1"/>
        <pt x="237" y="750" on="1"/>
        <pt x="319" y="750" on="1"/>
      </contour>
    </TTGlyph>
    <TTGlyph name="quoteright" xMin="99" yMin="486" xMax="329" yMax="750">
      <component glyphName="comma" x="170" y="652" flags="0x4"/>
    </TTGlyph>
    <TTGlyph name="quotesinglbase" xMin="-71" yMin="-166" xMax="159" yMax="98">
      <component glyphName="comma" x="0" y="0" flags="0x4"/>
    </TTGlyph>
    <TTGlyph name="quotesingle" xMin="123" yMin="489" xMax="269" yMax="750">
      <contour>
        <pt x="123" y="489" on="1"/>
        <pt x="163" y="750" on="1"/>
        <pt x="269" y="750" on="1"/>
        <pt x="201" y="489" on="1"/>
      </contour>
    </TTGlyph>
</ttFont>
